<?xml version="1.0" encoding="utf-8"?>
<!-- Generator: Adobe Illustrator 18.1.0, SVG Export Plug-In . SVG Version: 6.00 Build 0)  -->
<svg version="1.1" id="Layer_1" xmlns="http://www.w3.org/2000/svg" xmlns:xlink="http://www.w3.org/1999/xlink" x="0px" y="0px"
	 viewBox="0 0 841.9 595.3" enable-background="new 0 0 841.9 595.3" xml:space="preserve">
<polygon fill="#C6E09D" points="417,295.7 417.6,295.9 417.4,295.9 417.4,296.2 417.4,296.2 417.5,296.4 417.4,296.5 417.5,296.6
	417.5,296.6 417.6,296.6 417.6,296.9 417.8,296.9 417.7,297.1 417.8,297.1 417.9,297.5 418.6,298 418.6,298.1 418.7,298.1
	419,298.5 419.2,298.6 419.5,298.7 419.6,298.6 419.8,298.6 419.9,298.4 420.1,298.3 420.1,298.3 420,298.4 420,298.5 419.8,298.6
	419.8,298.7 420,298.8 420.1,298.9 420.2,298.9 420.2,299.2 420.2,299.3 420.3,299.3 420.5,299.3 420.6,299.4 420.8,299.5
	420.9,299.6 420.9,299.6 421.3,299.8 421.4,299.9 421.4,299.9 421.4,300 421.5,300.1 422.1,300.4 422.2,300.5 422.3,300.5
	422.3,300.5 422.5,300.6 423,300.9 423.3,301.2 423.3,301.2 423.7,301.6 423.9,301.8 423.9,301.9 424,302.1 424.1,302.1
	424.5,302.5 424.6,302.5 424.7,302.7 425,302.9 425.1,303 425.4,303.3 425.4,303.3 425.7,303.4 425.8,303.7 426.1,303.9
	426.7,304.1 426.7,304.2 426.8,304.4 426.8,304.5 427.2,304.9 427.7,305.1 427.7,305.1 427.9,305.3 428,305.4 428.2,305.5
	428.5,305.7 428.6,305.7 429,305.8 429.6,306.3 429.9,306.5 430,306.7 430.1,306.9 430.3,307.2 431.1,307.2 431.4,307.4
	431.5,307.4 431.2,307.2 430.4,307 430.3,306.8 430.2,306.8 430.1,306.6 430,306.4 429.5,306.1 429,305.5 429,305.4 429.3,305.3
	429.4,305.3 429.5,305.4 429.6,305.4 429.6,305.4 429.5,305.5 429.6,305.6 429.7,305.5 429.7,305.4 430,305.4 430,305.2
	429.5,305.2 429.4,305.1 429.2,305.1 429.2,305 428.9,304.9 428.6,304.9 428.3,304.7 428.3,304.3 428.7,304.3 429,304.2 429,304.2
	428.7,304.2 428.7,304.2 428.9,303.9 429.3,304.7 431.5,304.6 433.4,305.6 435.7,307.7 437.9,310.2 438.1,311.5 435.6,313.1
	435.5,313.5 436.6,315.4 438.9,317.2 438.8,317.5 440.4,321.5 440.8,323.3 440.6,324.2 442.3,325.8 443,327.4 445,327.3
	447.4,328.9 447.4,328.9 447.9,330.6 447.8,333.1 446.3,333.3 444.5,334.6 440.9,331.1 439.6,331 437.1,331.7 435.4,330 433.8,330
	430.4,332.4 430.1,332.3 428.9,333.4 428.5,335 426.7,335.9 427.3,338.2 425.7,340.1 425.5,341.1 426.2,343.3 426.7,343.9
	427.6,344.3 429.6,344.5 430,345.5 430.4,345.9 433.4,346.5 433.9,347.6 435.6,348.7 435.7,349.2 435.1,350.1 432.9,350.5
	431.8,353 432.1,354.7 432,355.4 430.2,356.7 429.8,359.1 429.3,359.8 427.1,361.4 427.1,362.8 427.9,364.5 427.4,365.9
	427.8,366.1 429,365.9 430,364.4 432.9,362.4 434.4,364 434.8,364.8 433.9,366.7 432.5,367.2 432,368.6 427.9,368.8 425.8,370.1
	423.4,371.1 422.5,372.4 422.5,374.1 422.7,375 423.4,375.8 424.9,376.4 426.3,378 428.1,379.3 430,381.3 432.3,381.7 434.7,381.2
	435.7,381.6 435.9,382.4 435.7,383 433.9,384.2 433.4,386.1 434,387.1 435.6,387.5 435.9,387.9 435.8,388.3 432.8,388.8 432,389.9
	430.6,390.8 430.3,392.2 427.6,396.2 427.7,396.8 428.1,397.2 429.6,396.9 429.7,397.2 429.6,397.7 426.8,399.5 426.9,400.1
	428.3,400.7 428.1,400.9 427.5,401.9 426.9,404.2 427.7,404.3 429.3,406.2 429.4,407.1 429,408.2 430.8,411.4 432,413.1
	433.8,414.8 434,416.2 435.1,416.7 435.5,417.6 436.4,417.8 438.8,416.2 440.3,416 442.7,418.2 444.8,419.5 445.4,420.5
	445.4,421.1 446.9,423.4 449,423.4 449.7,424.5 450.6,424.7 451,425.4 451.5,424.8 451.5,424.8 451.5,425.6 450,427.5 450.1,428.1
	449.7,429.5 450.4,431 450.5,431.6 449.6,432.7 449.5,433.3 450.2,434.5 450,435.8 450.9,437.1 449.4,438.2 449.7,438.7
	450.3,438.8 450.1,440 450.6,442 450.6,442 450.5,442.4 450.3,442.5 450.2,442.6 450,442.6 449.7,442.7 449.4,443 449.4,443.1
	449.1,443.3 448.9,443.7 448.8,443.7 448.8,444.1 448.6,444.1 448.5,444.2 448.4,444.2 448.4,444.5 448.3,444.5 448.3,444.5
	448.1,444.7 447,444.7 446.1,444.9 446,445 445.5,445.1 445.3,445.4 445,445.4 444.8,445.6 444.1,445.9 442.6,447 442.3,447
	442,447.3 441.8,447.3 441.3,447.7 440.8,447.8 440.6,447.9 440.1,447.9 439.7,448.1 439.4,448.2 439.1,448.4 438.8,448.4
	438.5,448.5 438.4,448.5 438.4,448.7 438.2,448.7 438.2,448.6 437.9,448.5 437.4,448.4 437.4,448.4 436.4,448.4 435.6,448.4
	435.2,448.2 434.9,448.2 434.7,448 434.6,448 434.5,447.8 434.5,447.7 434.4,447.7 434,447.7 434,447.8 433.8,447.8 433.8,448
	433.7,448.1 433.7,448.3 433.5,448.5 433.5,448.6 433.1,449 432.5,449.3 432.4,449.4 431.9,449.8 431.5,449.7 431.3,450.1
	430.7,450.4 430.4,450.7 430.3,450.7 430,450.9 429.7,451 429.7,451.1 429.6,451.1 429.6,451.2 429.5,451.2 429.2,451.4 429,451.4
	428.9,451.6 428.6,451.6 428.6,451.7 428.4,451.8 427.9,452 427.3,452.1 427.1,452.7 427.1,452.7 427.1,453 426.8,453.2
	426.8,453.4 426.6,453.6 426.5,453.6 426.4,453.6 426.4,453.7 426.5,453.7 426.6,453.9 426.6,454 426.1,454.6 425.7,454.9
	425.5,455.3 425.3,455.3 425.3,455.2 425.2,455.2 425.1,455.1 425.1,454.9 425.1,454.8 425.1,454.7 425.2,454.6 425.2,454.5
	425.1,454.5 425.1,454.3 425,454.4 425,454.5 424.9,454.7 424.7,454.7 424.6,454.7 424.4,454.6 424.5,454.4 424.3,454.3
	424.3,454.4 424.3,454.8 424.3,455 424.3,455.1 424.3,455.4 424.4,455.5 424.5,455.5 424.5,455.7 424.6,455.7 424.9,455.7
	424.9,455.8 425,455.8 425.1,456.1 424.8,457.1 424.7,457.2 424.7,458.5 424.8,458.8 424.8,459 424.7,459.1 424.6,459.1
	424.3,459.3 423.9,459.3 423.8,459.4 423.8,459.5 423.7,459.5 422.9,459.5 422.7,459.4 422.6,459.5 422.3,459.3 421.9,459.3
	421.8,459.3 421.7,459.4 421.5,459.5 421.5,459.6 421.2,459.8 420.6,459.8 420.3,460.1 420.1,460 420.1,460.1 419.9,460.2
	419.9,460.6 419.7,460.6 419.5,460.3 419.2,460.3 419.1,460.5 419.2,460.6 419.1,460.7 418.8,460.4 418.9,460.3 419,460.3
	419.1,460.2 419,460.1 418.7,460.1 418.7,460.4 418.6,460.4 418.6,460.7 418.5,460.7 418.3,460.4 418,460.2 417.5,460.1 417,460.6
	416.8,460.6 416.4,460.9 416.2,460.9 416,461.1 415.8,461.1 415.7,461 415.2,460.8 413.4,460.9 413.1,461 413,461 412.8,461.1
	412.7,461.1 412.7,460.9 412.6,460.9 412.5,460.7 412.3,460.6 411.8,460.5 411.5,460.6 411.2,460.5 410.5,460.5 409.9,460.4
	409.3,460.1 409.1,460.1 408.9,460.2 408.3,459.9 407.8,459.8 407.6,459.9 407.4,459.7 406.7,459.5 406.4,459.5 406.2,459.6
	406.1,459.7 405.8,459.8 405.4,459.7 405.2,459.5 404.7,459.4 404.6,459.2 404.5,458.8 404.5,458.8 404.3,458.5 403.8,457.9
	403.6,457.3 403.5,457.1 403.3,457.1 403.3,456.8 403.1,456.6 402.9,456.4 402.8,456.2 402.4,456.1 402.4,456 402.4,456
	402.4,455.7 401.6,455.2 401,454.9 400.8,454.7 400.8,454.6 400.6,454.4 400.6,454.3 400.5,454.3 400.5,453.6 400.2,453.2
	399.4,453 399,453.1 398.8,453.1 398.6,453.5 398.5,453.5 398.5,453.3 398.4,453.2 398.3,453.2 398.2,453.4 398.1,453.4 398,453.4
	398,453.1 397.9,453.1 397.6,453.1 397.5,453.2 397.6,453.5 397.4,453.5 397.3,453.4 397,453.3 396.8,453.1 396.6,453.1 396.5,453
	396.5,452.8 396.4,452.7 396.4,452.5 396.2,452.4 396.3,452.2 396.1,452.1 396,451.8 395.8,451.7 395.8,451.5 395.3,451.2
	395.3,451.2 395.2,451 395,451 395.2,450.7 394.8,450.1 394.8,449.9 394.8,449.7 394.5,448.8 394.4,448.5 394.4,448 394.3,448
	394.3,447.9 394.2,447.8 394,447.5 393.8,447.1 393.8,446.9 393.6,446.7 393.5,446.4 393.5,446.4 393.3,446 393.2,446 393.2,445.8
	393,445.6 393,445.5 392.8,445.5 392.5,445.7 392.3,445.7 392.1,445.6 391.9,445.6 391.5,445.2 391.5,445.1 391.6,445.1
	391.9,445.4 392.4,445.6 392.6,445.6 392.5,445.4 392.2,445.3 392.2,445.2 392.4,445.2 392.5,445.1 392.2,444.7 391.8,444.6
	391.6,444.8 391.5,444.8 391.5,444.7 391.7,444.5 392.1,444.5 392,444.4 392.2,444.4 392.1,444.2 391.9,444.1 391.9,444
	391.5,443.5 391.1,443.2 390.8,443 390.7,442.8 390.4,442.6 390.1,442.1 390,441.9 390.1,441.7 390.2,441.7 390.2,441.5
	390.2,441.4 390.7,441.2 390.8,440.8 390.8,440.7 390.7,440.7 390.6,441.1 390.4,441.2 390.2,441.3 390.1,441.4 389.9,441.4
	389.9,441.5 389.8,441.5 389.1,441.6 388.5,441.6 388.5,441.7 388.2,441.7 387.6,441.5 387.2,442 386.7,442.2 386.4,442.3
	386,442.3 386,442.2 385.9,442.1 385.9,442 385.8,441.9 384.5,442 384.2,442.1 383.9,442.1 383.1,442.6 382.7,443 382.3,443.7
	382.3,443.8 382.2,443.8 382.2,444 382.2,444.9 382.5,445.3 383.1,445.5 383.4,445.6 383.4,445.7 383.7,445.8 383.7,445.9
	383.6,445.8 383.3,445.8 383.2,446 383.1,446 383,445.9 382.9,445.9 382.7,446.1 382.6,446.1 382.3,446 382,446 382,445.9
	381.9,445.9 381.8,445.8 381.5,445.7 381.4,445.8 381.4,446 381.2,446 380.9,446.1 380.8,446 380.9,445.9 380.6,445.8 380.6,445.7
	380.5,445.6 380.4,445.6 380.3,445.7 380,445.8 379.9,446 379.7,445.9 379.5,446.1 379.4,446 379.2,446.1 379.2,446.4 379.1,446.5
	379,446.6 378.8,446.6 378.4,446.2 378.3,446.3 378.2,446.2 378,446.3 377.8,446.3 377.6,446 377.4,446 377.3,446 376.9,446
	376.7,445.6 376.5,445.6 376.5,445.5 376.6,445.5 376.5,445.4 376.5,445.3 376.4,445.2 376.3,445.5 375.9,445.7 375.8,445.7
	375.8,445.6 375.6,445.6 375.5,445.6 375.3,445.6 375.1,445.6 374.7,445.7 374.7,445.8 374.4,446 374.3,446.1 374.3,446.1
	374.2,446.2 374.1,446.3 374.1,446.4 374.1,446.4 374,446.6 374,446.6 374,446.8 374.1,446.8 374.2,447 374.6,447.2 374.7,447.3
	374.7,447.6 374.7,447.6 374.7,447.7 374.6,447.7 374.5,447.9 374.2,447.9 374,447.7 373.7,447.7 373.5,447.6 372.9,447.5
	372.8,447.4 372.7,447.4 372.6,447.5 372.4,447.5 372.4,447.4 372.4,447.4 372.2,447.4 372,447.3 371.6,447.5 371.6,448
	371.7,448.1 371.8,448.2 371.7,448.3 371.6,448.4 371.5,448.4 371.4,448.3 371.1,448.2 371.1,448.1 371,448.1 370.8,448
	370.5,447.9 370.5,448 370.3,447.9 370,447.9 369.6,447.5 369.5,447.5 369.2,447.3 369.1,447.3 369.1,447.2 369,447.2 368.8,447.1
	368.8,447 368.7,447 368.5,446.8 368.2,446.7 368.2,446.6 368.1,446.6 368,446.5 367.9,446.5 367.8,446.3 367.7,446.3 367.6,446.3
	367.5,446.2 367.4,446.3 367.2,446.2 367.1,446.3 367.1,446.4 367,446.5 366.8,446.3 366.5,446.3 366.4,446.2 366.4,446.1
	366.9,445.6 367.2,445.6 367.2,445.5 367.3,445.5 367.4,445.3 367.4,444.4 367.1,443.5 367.1,443.5 366.9,443.2 366.8,443
	366.8,442.9 366.7,442.8 366.6,442.4 366.5,442.3 366.3,442.4 366.1,442.4 366,442.4 366,442.3 366.1,442.2 366.3,442.3 366.6,442
	366.8,442 366.9,441.8 367.2,441.8 367.3,441.9 367.4,441.9 367.5,442 367.9,441.9 368,441.8 368.1,441.6 368,441.4 368.1,441.4
	368.2,441.2 368.4,440.9 368.4,441 368.7,441 369,440.7 369,440.6 369.2,440.5 369.2,440.4 369.3,440.1 369.5,439.7 369.4,439.4
	369.5,439.3 369.5,439.2 369.7,439.2 369.9,439.6 370.1,439.5 370.2,439.6 370.1,439.7 370.2,439.9 370.1,440 370.1,440.2
	370.2,440.2 370.2,440.4 370,440.5 370.2,440.5 370.3,440.4 370.6,440.8 370.6,440.8 370.6,440.7 370.5,440.4 370.5,440.3
	370.5,440.3 370.6,440.4 370.7,440.4 370.8,440.3 370.8,440.3 371,440.5 371.6,440.7 371.6,440.8 371.9,440.9 372.2,440.9
	372.4,440.9 372.7,440.8 372.9,440.9 373,440.7 373.4,440.5 373.5,440.4 373.6,440.5 373.6,440.7 373.7,440.8 373.6,440.7
	373.7,440.5 373.8,440.4 374,440.3 374.1,440.3 374.3,440.3 374.4,440.1 374.5,440.2 374.5,440 374.8,440 374.9,439.9 374.9,439.7
	375.1,439.6 376.1,439.5 376.2,439.2 376.6,439 376.6,438.9 376.8,438.8 377.2,438.7 377.3,438.5 377.5,438.5 378,438.2
	378.1,438.3 378.1,438.5 378.2,438.4 378.2,438.3 378.1,438.3 378.1,438.1 378,438.1 378.3,437.7 378.5,437.6 378.6,437.5
	378.7,437.4 378.7,437.3 378.6,437.1 378.5,437.1 378.5,437 378.2,436.7 378.2,436.4 378.2,436.2 378.3,436.1 378.6,436.2
	378.7,435.9 378.9,435.7 378.9,435.5 379.2,435.4 379.1,435.2 379.2,435 379.5,434.9 379.6,434.7 379.4,434.6 379.4,434.8
	379.1,434.9 378.9,435.1 378.8,435.1 378.8,435.2 378.9,435.3 378.7,435.5 378.7,435.8 378.5,435.8 378.3,435.8 378.1,435.8
	378,435.8 377.9,435.8 377.9,436.2 378.1,436.5 378,437 378.1,437.1 378.1,437.3 378,437.5 378.1,437.5 378.2,437.7 378.1,437.7
	377.9,438 377.3,437.9 377.1,438.1 376.6,438.2 376.6,438.3 376,438.3 375.9,438.3 375.7,438.4 375.4,438.3 375.3,438.3
	375.3,438.4 375.1,438.4 375,438.4 374.8,438.4 374.7,438.6 374.4,438.6 373.7,438 373.8,437.9 373.6,437.6 373.5,437.6
	373.5,437.7 373.4,437.7 373.3,437.2 373.1,437.1 373,436.6 372.9,436.5 372.7,436.4 371.5,436.1 371,436.1 370.9,436.2
	370.7,436.2 370.6,436.3 370.6,436.6 370.3,436.6 370.2,436.7 369.4,436.7 369.4,436.8 369.1,436.7 368.7,436.8 368.6,436.7
	368.1,436.6 368.1,436.7 368.3,436.7 368.5,436.8 368.6,437.1 368.3,437.2 368.2,437.3 367.9,437.5 367.1,437.5 366.7,437.3
	366.6,437.3 366.4,437.2 366.2,437.1 365.5,436.5 364.9,435.9 364.9,435.9 364.7,435.7 364.4,435.3 363.8,434.6 363.8,434.5
	363.6,434.5 363.6,434.4 363.5,434.3 363.5,434.2 363.3,433.9 363.2,433.5 363.1,433.4 363.1,433.3 363,433.1 363,433 362.9,432.9
	362.8,432.6 362.8,432.5 362.8,432.2 363.2,432.4 363.4,432.6 363.7,432.5 363.8,432.4 364.1,432.3 364.1,432.3 364.4,432.3
	364.5,432.3 364.6,432.3 364.7,432.5 364.7,432.5 364.8,432.3 364.9,432.3 365,432.5 365.1,432.6 365.2,432.7 365.3,432.7
	365.5,432.9 365.8,432.9 365.9,432.8 365.4,432.6 365.2,432.4 365.3,432.2 365.6,432.2 365.6,432.1 365.1,431.9 364.8,431.9
	364.7,432 364.6,432 364.4,431.9 364,431.9 363.9,431.8 363.5,431.8 363.4,431.7 363.3,431.5 363,431.4 363,431.3 362.9,431.2
	362.9,431.1 362.8,431 363,430.7 362.8,430.4 362.9,430.3 362.9,430.1 363,430.1 363.1,429.8 363.1,429.5 363.2,429.4 363.2,429.2
	363.5,428.8 363.6,428.7 363.6,428.3 363.4,428.1 363.3,427.7 363.4,427.7 363.7,427.7 363.7,427.6 364.2,427.2 364.3,427
	364.6,426.9 365.1,426.9 365.6,426.6 365.7,426.1 365.6,425.8 365.7,425.6 365.7,425.5 365.8,425.4 365.8,425.3 365.7,425.4
	365.7,425.5 365.5,425.7 365.5,426.5 365.4,426.6 365.3,426.7 365,426.8 364.7,426.7 364.5,426.7 363.8,427.2 363.5,427.3
	363.2,427.5 363.2,427.7 363,427.8 363,428.2 362.9,428.3 362.9,428.6 362.7,428.7 362.7,428.8 362.6,428.8 362.4,429.2
	362.3,429.3 362.3,429.5 362.1,429.7 361.8,429.7 361.7,430.1 361.5,430.2 361.2,430.2 361.1,430.1 360.9,430.1 360.5,429.8
	360.4,429.8 360.2,429.7 359.9,429.7 359.7,429.5 359.2,429.2 359.1,429.1 359.2,428.9 359.3,428.8 359.6,428.7 359.6,428.6
	359.7,428.5 359.7,428.3 359.7,428.3 359.5,428.3 359.5,428.1 359.4,427.9 359.3,428 359.2,427.9 359,427.9 358.8,427.6
	358.8,427.5 358.5,427.5 358.3,427.6 358.4,427.6 358.7,427.6 358.8,427.8 359.1,428 359.2,428.3 359.2,428.4 359.1,428.6
	359,428.8 358.7,429.1 358.6,429.4 358.8,429.5 358.8,429.6 359.2,429.8 359.6,430.1 359.7,430.5 360,430.6 360.2,430.7
	360.4,430.9 360.4,431.2 360.3,431.2 360.4,431.3 360.2,431.4 360.2,431.5 360,431.6 359.7,431.7 359.7,431.8 359.2,432 359.1,432
	359,432.1 358,432 357.6,432.1 356.7,431.9 356.4,431.9 355.5,431.7 354.8,431.6 354.3,431.5 353.8,431.5 353.7,431.4 353.6,431.5
	353.5,431.4 353.4,431.5 353.4,431.6 353.1,431.8 353,431.8 352.9,431.8 352.8,431.8 352.7,432 352.5,432.1 352.1,432 351.9,431.9
	351.4,431.9 351.2,431.8 350.8,431.8 350.1,432.1 350,432.2 349.8,432.1 349.8,432 349.4,432.1 349.3,432.2 349,432.1 348.3,432.3
	348,432.5 347.8,432.6 347,433.2 347,433.3 346.9,433.4 346.9,433.5 346.6,433.6 346.6,433.8 346.5,434 346.5,434.2 346.6,434.3
	346.6,434.5 346.8,434.6 346.8,434.7 346.8,434.7 346.8,434.8 346.9,434.8 346.9,435.1 347.4,435.1 347.5,435.2 347.2,435.1
	347.1,435.2 347.1,435.4 347,435.5 346.9,435.8 346.8,435.8 346.7,435.9 346.7,435.9 346.5,436.2 346.5,436.4 346.5,436.4
	346.4,436.6 346.3,436.7 346.3,437.1 346.7,437.1 346.7,437.2 346.5,437.3 346.3,437.5 346.1,437.6 346,437.7 345.5,438.4
	345.5,438.6 345.8,438.8 345.8,438.9 345.4,438.9 345.2,438.9 344.7,438.8 344.4,438.9 344.4,438.8 344.3,438.8 344.1,438.8
	344,438.8 343.9,438.8 343.8,438.8 343.6,438.8 343.4,438.8 343.2,438.9 343.2,439.2 343.5,439.4 343.5,439.5 343.4,439.6
	343.1,439.6 343.1,439.6 342.8,439.6 342.7,439.7 342.4,439.7 342.4,439.8 342.5,439.8 342.5,439.9 342.3,440 342.2,440.1
	342.2,440.3 342.1,440.3 341.9,440.3 341.8,440.2 341.8,440.1 341.7,440 341.6,440.1 341.4,440.1 341.3,440 340.9,440 340.8,439.9
	340.8,439.8 341,439.8 340.9,439.6 340.7,439.6 340.4,439.5 340.4,439.6 340.3,439.7 340.2,439.7 339.9,439.7 339.8,439.6
	339.9,439.4 339.9,439.4 339.4,439.3 339.4,439.5 339.2,439.6 338.9,439.6 338.7,439.4 338,439.4 337.8,439.5 337.7,439.8
	338.1,439.9 338.1,440 338.1,440.1 337.9,440.1 337.7,440.1 337.6,440.1 337.3,440.2 337.1,440.3 337.1,440.6 336.9,440.6
	336.7,440.7 336.6,440.7 336.3,440.9 336.3,441 336.2,441 336.1,441.2 336.2,441.3 336.2,441.5 336.1,441.6 335.8,441.6
	335.9,441.8 336,441.8 336.1,441.9 336.1,442 336.2,442.1 336.3,442.2 336.3,442.4 336.2,442.4 335.9,442.2 335.8,442.2
	335.6,442.3 335.6,442.4 335.5,442.4 335.4,442.3 335.4,442.5 335.3,442.6 335.2,442.5 335.1,442.4 335,442.4 334.9,442.6
	335.1,442.7 335,442.7 335,443 334.8,443.2 334.8,443.3 334.9,443.4 334.9,443.5 334.8,443.6 334.5,443.3 334.2,443.4 334.1,443.5
	333.9,443.4 333.8,443.5 333.7,443.5 333.5,443.3 333.5,443.3 333.5,443.2 333.4,443.2 333.4,443.1 333.2,443.1 333.2,442.9
	332.2,442.7 332.2,442.4 331.8,442.5 331.7,442.3 331.5,442.3 331.4,442.4 331.3,442.3 331,442.4 330.8,442.4 330.7,442.5
	330.4,442.5 330.1,442.3 330,442.1 329.7,442.1 329.4,442 329.3,441.8 329,441.8 328.9,441.7 328.8,441.6 328.6,441.7 328.5,441.6
	328,441.6 327.9,441.5 327.7,441.3 327.7,440.8 327.9,440.5 328.3,440.4 328.3,440.3 328.2,440.2 328.4,440.1 328.4,439.7
	328.1,439.4 328,439 327.8,438.8 327.8,438.7 327.9,438.7 327.9,438.6 327.7,438.3 327.7,438.2 327.5,438 326.7,437.9 326.4,437.7
	326.2,437.8 326.1,437.6 325.8,437.7 325.6,437.6 325.6,437.5 325.5,437.6 325.4,437.4 325.1,437.2 324.9,437.3 324.9,437.4
	324.7,437.4 324.6,437.3 324.8,437.3 324.8,437.2 324.9,437.1 324.9,437 324.8,437 324.8,436.8 324.7,436.7 324.5,436.5
	324.5,436.4 324.7,436.3 325.1,436.2 325.2,436.1 325.5,436.2 325.5,436 325.2,436 325.3,435.9 325.1,435.8 325.1,435.7
	325.3,435.6 325.7,435.6 326.1,435.7 326.6,435.7 326.9,435.8 327.1,436 327.1,436.1 326.8,436.3 326.9,436.4 326.9,436.6
	327.1,436.7 327.4,436.8 327.4,436.8 327.6,436.8 327.7,436.7 328.1,436.6 328.1,436.7 328,436.7 328,436.9 328.5,436.9
	328.7,436.6 328.7,436.4 328.7,436.3 328.4,436.1 328.3,436.1 328,436 328.3,435.8 328.3,435.6 328.3,435.6 328.3,435.4
	328.3,435.2 328.7,435.2 328.8,435.1 329.1,435.1 329.2,435.1 329.3,435.1 329.3,435.2 328.4,435.3 328.4,435.4 329.5,435.4
	329.4,435.1 329.6,435.1 329.6,435.2 329.7,435.1 329.9,435.2 329.9,435.2 329.6,435.2 329.6,435.3 329.6,435.4 330,435.7
	330.3,435.7 330.7,435.8 331.2,435.8 331.5,435.9 331.7,435.8 331.9,435.8 332,435.9 332,436.1 331.8,436.1 331.8,436.2
	331.9,436.6 332,436.6 332.1,436.8 332.1,436.8 332.1,437 332.2,437.1 332.6,437 332.7,436.9 333,437 333.1,437 333.1,436.9
	333.4,437 333.4,436.8 333.7,436.9 333.8,436.9 333.9,436.9 334.1,436.9 334.1,436.7 334.4,436.6 334.3,436.6 334.1,436.7
	333.9,436.6 333.5,436.7 333,436.4 332.7,436.4 332.5,436.3 332.2,436.2 332.1,436.1 332.1,436 332.5,435.9 332.6,435.8
	332.9,435.5 333,435.2 333.1,435 333.2,435.1 333.2,435.2 333.4,435.1 333.5,435.1 333.4,435.2 333.5,435.3 333.8,435.3
	333.7,435.1 333.8,435 334,435 334.3,434.9 334.3,434.6 334.7,434.7 334.8,434.9 335.1,434.9 335,435.2 335.1,435.3 335.1,435.4
	335.8,435.5 335.8,435.4 335.2,435.3 335.1,435.2 335.1,435.1 335.5,434.8 335.7,434.5 335.7,434.4 335.8,434.3 336.2,434.3
	336.4,434.4 336.5,434.3 336.7,434.2 336.7,433.7 336.9,433.6 337.7,433.6 337.9,433.8 338,433.9 338.2,434 338.2,434.1
	338.1,434.2 338.2,434.3 338.2,434.3 338.3,434.4 338.4,434.6 338.6,434.7 338.7,434.9 338.8,434.9 338.6,434.5 338.6,434.4
	338.4,434.3 338.4,434.1 338.3,434.1 338.3,433.9 337.9,433.4 338.2,433.2 338.7,433.2 338.8,433.1 339,433.1 339.1,433
	339.2,433.2 339.4,433.1 339.4,433.1 339.2,433 338.8,432.9 338.7,432.9 338.3,433.2 338.1,433.1 337.6,433.1 337.5,433.4
	337.2,433.5 336.9,433.4 336.8,433.4 336.9,433.3 336.9,433.1 336.8,432.8 336.9,432.4 337,432.3 337.3,432.3 337.4,432.3
	337.4,432.3 337.2,432.2 337.1,432.1 336.9,432.1 336.6,431.8 336.2,431.7 336.2,431.6 336.2,431.4 336.3,431.3 336.4,431
	336.4,430.9 336.4,430.7 336.3,430.7 336.3,430.4 336.5,430.2 336.5,430 336.7,429.9 336.5,429.8 336.7,429.4 336.8,429.2
	337.3,429.1 337.5,428.9 337.7,428.7 337.7,428.5 337.8,428.4 337.9,428.1 338,428 338.5,427.7 339.1,427.7 339.3,427.6
	339.5,427.6 339.5,427.5 338.5,427.6 338.4,427.7 338.2,427.7 338,427.8 338,428 337.9,428 337.8,428.1 337.7,428.4 337.4,428.7
	337.3,428.9 336.9,428.9 336.9,429 336.7,429 336.3,429.4 336.1,429.3 336,429.1 335.8,429 335.8,428.9 335.6,428.7 335.7,428.6
	335.6,428.6 335.6,428.7 335.6,428.8 335.6,429 335.1,428.9 334.8,428.9 334.6,428.9 334.3,429.2 334.2,429.4 334,429.5
	333.9,429.3 333.8,429.3 333.8,428.8 333.8,428.6 333.9,428.6 333.9,428.5 334.2,428.3 334.3,428.1 334.2,428.1 334.1,428.3
	333.8,428.5 333.7,428.7 333.7,428.8 333.7,429.1 333.7,429.2 333.7,429.3 333.8,429.4 333.9,429.6 334.1,429.6 334.3,429.4
	334.4,429.4 334.9,429.1 335,429.1 335.3,429.1 335.4,429.2 335.5,429.2 335.5,429.3 335.7,429.4 336,429.6 336.1,429.8 336,429.9
	335.8,430 335.8,430 335.9,430.1 335.9,430.3 336,430.5 336,430.8 336.1,430.9 336.1,431.1 335.9,431.2 335.8,431.2 335.8,431.3
	335.9,431.4 335.9,431.6 336,432 336.5,432.2 336.7,432.3 336.7,432.4 336.6,432.7 336.7,433 336.4,433.5 336.4,433.9 336.3,434.1
	336.2,434.1 336.1,434 335.6,434 335.3,434.3 335.3,434.4 335,434.6 334.9,434.6 334.6,434.3 334.4,434.2 334.1,434.2 333.9,434.3
	333.8,434.4 333.8,434.6 333.7,434.7 333.3,434.5 333.2,434.5 333,434.5 332.8,434.6 332.5,434.6 332.4,434.7 331.8,435 331.8,435
	331.7,435.1 331.4,435 331.4,435.1 331.3,435 331.2,435 331.2,435 331,435 330.9,434.9 330.7,434.9 330.7,434.8 330.1,434.6
	329.9,434.5 329.8,434.4 329.8,434.4 329.9,434.1 329.9,433.9 329.9,433.8 329.8,434.1 329.7,434.3 329.6,434.2 329.4,434.2
	329.2,434.1 329.1,434.1 328.9,434 328.7,434 328.8,434.1 328.9,434.1 329.1,434.2 328.8,434.4 328.4,434.3 328.3,434.5
	328.3,434.5 328,434.4 327.9,434.2 327.8,434.1 327.7,434.2 327.7,434.4 327.8,434.9 328,434.8 328.1,434.8 327.8,435.1 327.7,435
	327.8,434.9 327.7,434.7 327.6,434.4 327,434.4 326.8,435 327,435.1 327.5,435 327.4,435.1 327,435.2 326.6,435.1 326.7,435
	326.7,435 326.9,434.4 326.6,434.5 326.4,434.4 326.3,434.3 326.4,434 326,433.6 325.9,433.2 325.7,433.1 325.6,433.1 325.5,433
	325.4,433 325.5,433.2 325.6,433.3 325.4,433.4 325.5,433.6 325.4,433.7 325.3,433.6 325.2,433.7 325,433.9 325.1,434 325,434.1
	324.8,434.1 324.8,433.8 324.5,433.6 324.4,433.6 324.1,433.6 324.1,433.7 324,433.8 324,433.9 324,434 323.8,434 323.6,433.9
	323.4,433.9 323.3,434 323,434 322.8,433.9 322.7,433.7 322.6,433.6 322.2,433.5 322,433.6 322,433.7 322.1,433.8 322.1,433.9
	322.2,434 322.3,434 322.3,434.2 322.3,434.3 322.4,434.4 322.6,434.6 323.2,434.6 323.3,434.8 322.9,434.9 322.9,435.1 323,435.2
	323.1,435.3 322.9,435.5 322.7,435.6 322.8,435.7 322.9,436 322.4,436.1 322.2,436.1 322.1,436.2 322.2,436.3 322.2,436.5
	321.9,436.6 321.8,436.5 321.8,436.3 321.5,436.1 321.5,435.9 321.2,435.8 321.3,435.5 321.2,435.4 321.2,435.1 321.1,435.1
	321.1,435 321.3,434.7 321.3,434.5 321.2,434.5 321.3,434.2 320.4,434 320.4,433.8 320.5,433.7 320.5,433.5 320.1,433.1 319.9,433
	319.4,433 319.3,433.1 319.3,433.4 319.2,433.4 319.1,433.5 318.9,433.5 318.9,433.4 319.1,433.3 319.2,433.1 318.8,432.9
	318.6,432.9 318.6,432.8 318.3,432.6 318.3,432.5 318.3,432.4 318.3,432.4 318.1,432.3 318.1,432.3 317.9,432.3 318,432
	317.9,431.9 317.9,431.8 318,431.8 318,431.8 318.3,431.8 318.5,431.9 319.4,431.9 319.5,431.9 319.8,432.1 319.9,432.1
	319.9,432.2 320.1,432.1 320.2,431.9 320.4,431.7 320.4,431.4 320.5,431.3 320.5,430.9 320.6,430.9 320.6,430.8 320.5,430.7
	320.6,430.4 320.8,430.5 320.9,430.4 320.9,430.3 321.1,430.3 321.2,430.4 321.5,430.4 321.6,430.1 321.8,430 321.8,429.8
	322,429.7 322,429.6 322.2,429.4 322.4,429.3 322.5,429.1 322.8,429 322.9,429.1 323.2,429.1 323.2,429 323.4,429 323.8,429.1
	323.9,428.9 324,428.9 324.2,429 324.3,429.2 324.9,429.3 325,429.2 325.1,429 325.4,428.8 325.4,428.7 325.5,428.6 325.5,428.5
	325.6,428.4 325.7,428.2 325.7,428 325.6,427.9 325.6,427.7 325.5,427.5 325.6,427.5 325.6,427.4 325.5,427.2 325.5,427.1
	325.5,426.4 325.6,426.3 325.6,426 325.6,425.7 325.5,425.4 325.5,425.2 325.3,425.1 325.3,424.9 325.4,424.7 325.3,424.7
	325.3,424.8 325.2,424.8 325.1,424.7 325,424.3 325.1,424.2 325.1,423.8 325.1,423.7 325.1,423.5 325,423.4 324.8,422.7
	324.6,422.4 324.5,422.1 324.2,421.8 324.1,421.6 323.9,421.5 323.8,421.5 323.7,421.6 323,421.6 322.9,421.6 322.9,421.8
	322.8,421.9 322.8,421.8 322.8,421.6 322.5,421.5 322.1,421.5 321.9,421.5 321.8,421.7 321.7,421.7 321.7,421.6 321.8,421.5
	321.7,421.2 321.3,421.1 321,421.2 321,421.1 321.1,421.1 320.9,421 320.9,421.2 320.7,421.2 320.7,421.2 320.6,421.2 320.6,421.1
	320.1,421.2 320.1,421.1 320.1,421.1 320.1,421 319.8,420.7 319.1,420.7 318.8,420.9 318.4,420.8 318.2,421 318.2,421.1
	318.1,421.1 318.1,421.2 318,421.2 318,421 318,421 318,420.8 317.8,420.9 317.7,421.1 317.6,421.1 317.5,420.9 317.3,420.8
	317,421.1 316.8,421.1 316.6,421.3 316.1,421.4 316,421.6 315.8,421.7 315.8,421.8 315.9,421.9 315.8,422 315.7,421.9 315.7,421.4
	315.6,421.5 315.4,421.5 315.2,421.7 314.9,421.8 314.8,421.8 314.6,421.6 314.6,421.3 314.9,421.1 314.9,421 314.9,421 315.1,421
	315.1,420.9 315.1,420.6 315.2,420.5 315.2,420.3 315,420.2 315,420.1 314.8,420 314.8,419.7 315.1,419.5 315.2,419.5 315.2,419.6
	315.4,419.6 315.5,419.3 315.7,419.1 315.8,418.9 315.8,418.7 315.6,418.7 315.6,418.5 315.4,418.4 315.3,418.2 314.9,418.3
	314.9,418.1 315,418.1 315.2,417.8 315.6,417.6 315.7,417.6 315.9,417.5 316,417.3 316.1,417.3 316.3,417.3 316.3,417.5
	316.4,417.5 316.6,417.4 316.9,417.4 317.1,417.3 317.8,417.1 317.9,417.1 317.9,416.8 318.1,416.8 318.1,416.6 318.4,416.6
	318.7,416.4 318.7,416.2 318.9,416.1 318.9,415.9 319.1,415.9 319.1,415.9 319.5,415.9 319.9,415.7 320.2,415.7 320.3,415.6
	320.3,415.4 320,415.3 320,415.2 320.8,414.9 320.8,414.8 320.7,414.8 320.3,414.8 320.2,414.7 320.8,414.6 320.8,414.6
	320.7,414.5 321,414.4 321,414.3 320.8,414.3 320.9,414.3 321.2,414.2 321.2,414.3 321.6,414.3 321.7,414.2 322,414.2 322.1,414.3
	322.3,414.2 322.6,414.4 322.9,414.4 323,414.3 322.9,414.1 323,414 323.3,414 323.3,413.8 323.6,413.8 323.5,413.7 323.6,413.5
	323.3,413.4 323.3,413.3 323.5,413.3 323.5,413.2 323.7,413.2 323.8,413 323.9,413 323.9,413.2 324.2,413.3 324.3,413.2
	324.4,413.3 324.5,413.2 324.6,413.3 325.4,413.3 325.6,413.1 325.6,412.9 325.5,412.8 325.5,412.7 325.9,412.5 326,412.7
	326.3,412.7 326.3,412.8 326.4,412.8 326.6,412.6 326.6,412.4 326.7,412.3 326.6,412.2 326.6,412.1 326.5,412 326.5,411.9
	326.5,411.8 326.5,411.8 326.5,411.7 326.5,411.5 326.7,411.4 326.8,411.2 326.6,411.1 326.3,411.1 326.4,410.9 326.2,410.7
	326.1,410.6 326.1,410.6 326.7,410.2 327.2,409.7 327.2,409.7 327.1,409.6 326.7,409.6 326.7,409.6 326.8,409.5 326.8,409.4
	326.9,409.3 326.8,409.3 326.9,409.1 326.6,409.1 326.5,408.9 326.3,408.9 326.3,408.8 326.4,408.6 326.4,408.5 326.6,408.3
	326.7,408.2 327.2,407.9 327.3,407.8 327.3,407.7 327,407.8 326.9,407.7 327.1,407.5 327.3,407.5 327.6,407.4 327.7,407.4
	327.8,407.4 327.9,407.6 328,407.5 328.1,407.6 328,407.7 328.2,407.7 328.3,407.7 328.5,407.7 328.7,407.8 329,407.7 329.2,407.8
	329.4,407.8 329.6,408 329.8,407.9 329.9,408.3 330,408.3 330,408.2 330.1,408 330.4,408.1 330.5,408 330.7,408 330.7,407.9
	330.8,407.9 330.8,408 330.9,408 331,408 331,408 331.2,408 331.3,408.2 331.3,407.9 331.6,408 331.7,408.2 331.6,408.3
	331.6,408.7 331.9,408.7 331.9,408.8 332.4,408.9 332.5,409 332.4,409 331.9,408.9 331.7,409.4 331.6,409.3 331.3,409.6
	331.4,409.9 331.5,409.9 331.5,410 331.6,410.1 331.7,410.1 331.9,409.9 332,410 332.1,410 332.2,410 332.2,410.2 332.3,410.3
	332.4,410.4 332.5,410.4 332.4,410.3 332.4,410.1 332.4,409.9 332.7,409.9 332.8,410 333,410 333,409.9 333.1,409.8 333.6,409.8
	333.7,409.6 333.9,409.5 333.9,409.4 334.2,409.5 334.2,409.3 334.5,409.3 334.6,409 334.7,409.1 334.8,409 334.9,409.2 335,409.2
	334.9,408.9 334.9,408.8 335.1,408.7 335.3,408.6 335.3,408.4 335.5,408.4 335.5,408.3 335.3,408.2 335.3,408.1 335.1,408
	335.1,407.8 335.2,407.7 335.2,407.6 335.3,407.6 335.3,407.5 335.4,407.5 335.4,407.2 335.6,407.2 335.6,407.2 335.9,407.2
	336,407.3 336.1,407.4 336.4,407.5 336.4,407.6 336.4,408.1 336.5,408 336.6,408.1 336.7,408.3 337.1,408.3 337.5,408.2
	337.7,408.4 337.9,408.4 337.9,408.2 338.3,408.1 338.4,408.2 338.5,408.2 338.6,408.2 338.8,408.1 338.8,408.3 339,408.3
	339,408.3 339.2,408.3 339.4,408.3 339.8,408.4 339.8,408.3 339.5,408.2 339.3,408.1 339.3,407.8 339.2,407.5 339.1,407.5
	339.1,407.3 338.7,407 338.8,407 338.7,406.7 338.8,406.6 338.8,406.6 338.9,406.4 338.9,406.4 339,406.3 339,406.2 339.2,406.1
	339.2,405.9 339.4,405.8 339.6,405.7 339.7,405.6 340,405.5 340.1,405.4 340.4,405.4 340.6,405.3 340.7,405.3 340.7,405.4
	341,405.3 341,405.4 341.1,405.4 341.8,405.1 342,404.6 342.3,404.5 342.3,404.4 342.4,404.3 342.3,404.2 342.6,404.2 342.7,404
	342.8,403.8 342.8,403.7 342.9,403.7 342.9,403.6 343,403.6 343.3,403 343.5,402.8 343.6,402.6 343.6,402.4 344,402.1 344,402
	344,401.9 344,401.7 343.9,401.6 343.7,401.5 343.7,401.4 343.8,401.3 344,401.3 344.4,401.1 344.5,400.6 344.5,400.5 344.7,400.3
	345.1,400.6 345.2,400.8 345.5,400.9 345.6,400.9 345.6,401.1 345.7,401.1 345.9,401.1 345.9,401.2 346.1,401.2 346.1,401.2
	346.1,401.3 346.1,401.3 346.4,401.3 346.7,401.5 346.7,401.8 347,401.9 347.1,402 347.1,402.2 347.2,402.2 347.2,402.4
	347.2,402.5 347.1,402.7 347.2,402.8 347.2,402.9 347.3,402.9 347.4,402.8 347.4,402.3 347.5,402.2 347.5,401.8 347.4,401.6
	347.2,401.4 347,401.4 346.9,401.5 346.8,401.5 347,401.2 347,401 346.9,400.7 346.9,400.5 346.6,400.3 346.6,400.2 346.7,400.1
	346.7,399.9 346.8,399.7 346.8,399.6 346.9,399.5 346.9,399.4 347,399.3 347.1,399.4 347.5,399.5 347.7,399.3 347.7,399.2
	347.8,399.2 348.1,399.2 348.4,399 349.1,399 349.2,398.9 349.1,398.8 349.1,398.7 349.1,398.6 350.4,398.6 350.9,398.5
	351.1,398.4 351.3,398.5 351.3,398.5 352.1,398.6 352.3,398.4 352.4,398.4 352.5,398.2 353,398 353.4,398 353.6,398.2 353.6,398.3
	353.6,398.4 353.6,398.5 353.9,398.5 354,398.6 354.1,398.8 354.2,398.8 354.2,398.7 354.7,398.8 355.6,398.7 355.8,398.6
	356.3,398.4 356.6,398.1 356.7,398.1 356.8,397.7 356.9,397.5 357.1,397.2 357.3,397 357.4,397 357.6,396.8 357.8,396.8
	357.9,396.7 358.1,396.2 358.1,396.1 358,396 358,395.9 358.1,395.9 358.2,395.6 358.3,395.6 358.3,395.9 358.3,396 358.5,396.1
	358.7,396.1 358.9,396 359,396 359.2,395.8 359.3,395.8 359.4,395.6 359.9,395.4 360.4,394.9 360.6,394.5 360.6,394.4 361.3,393.9
	361.3,393.8 361.7,393.5 362.1,392.9 362.4,392.7 362.4,392.5 362.7,392.1 363.1,392 363.4,391.8 363.6,391.9 363.6,392
	363.7,392.1 363.8,392.5 363.9,392.5 364.1,392.6 364.5,392.5 364.9,392.1 365,392.1 365,392.3 365.1,392.3 365.4,392.3
	366.3,391.7 366.4,391.5 366.7,391.4 366.7,391.3 366.8,391.2 366.8,391.1 367,391.1 367.3,390.8 367.3,390.7 367.6,390.6
	367.9,390.2 368.4,390 368.4,389.9 368.5,389.7 368.6,389.6 368.8,389.4 369.1,389.2 369.6,389.2 369.8,389.1 369.9,389
	370.1,389.1 370.2,389 370.3,388.8 370.6,388.6 370.8,388.5 371.5,388 371.8,387.5 371.8,387.2 371.9,387.2 371.9,387.1
	372.1,386.9 372.2,386.9 372.2,386.8 372.3,386.8 372.3,386.7 372.4,386.7 372.4,386.7 372.5,386.6 372.5,386.4 372.5,386.2
	372.7,386 372.5,385.9 372.6,385.8 372.7,385.7 372.7,385.6 372.8,385.5 373.3,385.6 373.3,385.4 373.4,385.4 373.7,384.7
	373.7,384.6 373.8,384.4 374.1,384.3 374.1,384.3 374.2,384.2 374.4,383.7 374.6,383.5 374.9,383.1 375,382.9 375,382.6
	375.1,382.6 375.1,382.5 375.2,382.5 375.2,382.3 375.3,382.1 375.5,381.8 375.5,381.7 375.7,381.5 375.8,380.9 375.9,380.8
	376,380.5 376.1,379.7 376.1,379.7 376.4,379.2 376.4,378.8 376.5,378.6 376.5,378.5 376.8,378.1 376.8,377.9 377,377.9 377,377.7
	377.1,377.4 377.1,377.2 377.2,377.1 377.3,377 377.4,376.9 377.6,376.9 377.7,376.8 377.5,376.5 377.5,376.3 377.4,376.1
	377.6,375.9 377.6,375.8 377.5,375.7 377.5,375.5 377.6,375.5 377.5,375.5 377.5,375.3 377.7,375.3 377.8,375.1 377.7,375.1
	377.7,374.6 377.8,374.4 377.8,374.1 378,374 378,373.8 377.9,373.8 377.9,373.7 377.9,373.6 377.8,373.5 377.9,373.4 378,372.9
	378.1,372.5 378.1,372.3 378.2,372.2 378.3,371.8 378.5,371.1 378.5,370.9 378.9,370.4 378.9,370.2 379.4,369.8 379.4,369.2
	379.4,369 379.4,368.4 379.3,367.5 379.2,367.2 379.2,366.9 379.1,366.2 379.1,365.8 379.2,365.6 379.5,365.6 379.5,365.9
	379.8,366 379.9,366.1 380,366 380,366.1 380.1,366.1 380.2,366 380.3,366 380.4,365.9 380.7,365.9 380.8,366 381,366 381,366.1
	381.1,366.1 381.6,365.8 381.7,365.7 381.9,365.5 382,365.5 382.3,365.5 382.3,365.4 382.5,365.2 382.6,365.2 382.7,365.1
	382.8,365.1 382.9,365 382.7,364.9 382.7,364.7 382.8,364.6 383.1,364.6 383.1,364.5 383,364.5 383,364.5 383.1,364.3 383.2,364.3
	383.2,364.1 383.4,364.1 383.3,364.3 383.4,364.4 383.6,364.4 383.6,364.4 383.6,364.4 383.7,364.5 383.8,364.5 383.9,364.4
	384,364.1 384,364.1 384.2,363.8 384.4,363.6 384.8,363.5 385,363.4 385.1,363.4 385.2,363.5 385.3,363.8 385.5,363.9 385.8,363.8
	385.9,363.6 385.9,363.4 385.8,363.4 385.8,363.7 385.7,363.8 385.6,363.8 385.4,363.6 385.3,363.3 385.2,363.2 385,363.2
	384.7,363.3 384.6,363.3 384.1,363.2 384,363.3 384,363.4 383.7,363.6 383.6,363.6 383.5,363.6 383,363.7 382.5,363.9 382.4,363.9
	382.2,364 382.2,364.1 381.8,364.1 381.7,364.3 380.8,364.4 380.5,364.5 380.3,364.5 380,364.6 379.9,364.7 379.4,364.7
	379.4,364.8 378.6,364.7 378.6,364.6 378.3,364.3 378.3,363.9 378.2,363.9 378,363.2 377.8,363.1 377.8,362.9 377.7,362.7
	377.6,362.4 377.5,362.3 377.4,362.2 377.4,362.2 377.3,362 377.1,361.7 377.1,361.4 377,361.3 377,361.2 376.9,361.1 376.8,360.9
	376.7,360.7 376.6,360.5 376.5,360.4 376.4,360.2 376.3,360 376.2,359.9 376.2,359.8 375.6,359.3 375.6,359.1 375.5,358.9
	375.6,358.4 375.7,358.2 375.7,358 375.8,357.9 375.8,357.8 375.8,357.7 375.9,357.4 376,357.3 376,357.1 376.1,356.9 376.1,356.5
	376.2,356.4 376.2,356.2 376.5,355.8 376.6,355.4 376.9,354.9 376.9,354.8 376.9,354.7 377.1,354.5 377.1,354.4 377.2,354.3
	377.2,354.1 377.8,353.9 378,353.7 378.1,353.5 378.3,353.3 378.4,353.1 378.7,353 378.9,352.8 379.2,352.5 379.2,351.8
	379.2,351.5 379.2,351.2 379.1,350.9 379.1,350.8 379.4,350.6 379.4,350.4 379.5,350.4 379.6,350.2 379.7,350.2 379.7,350.3
	379.6,350.4 379.6,350.5 379.5,350.6 379.5,350.9 379.7,351 380.1,350.8 380.2,350.7 380.4,350.7 380.4,350.5 380.5,350.5
	380.6,350.3 380.6,350.3 380.9,350.3 381,350.2 381.1,350 381.2,350 381.3,349.8 381.4,349.8 381.4,349.9 381.5,350 381.7,349.9
	381.8,349.7 382.2,349.6 382.2,349.5 382.3,349.4 382.3,349.2 382.4,349.1 382.6,349 382.7,348.5 382.8,348.4 383.5,348.3
	383.7,348.1 383.8,348 384.2,347.5 384.4,347.5 384.5,347.4 384.6,347.3 384.7,347.2 384.8,347.3 384.9,347.4 385.1,347.4
	385.4,347.5 385.5,347.4 385.5,347.3 385.9,347 385.9,347 385.8,347 385.5,347.1 385.4,347.2 385.4,347.4 384.9,347.1 384.7,347.1
	384.3,347.3 384.1,347.3 384,347.4 383.7,347.5 383.5,347.6 383.5,347.8 383.1,348 382.9,348.2 382.7,348.2 382.7,348.2
	382.6,348.2 382.6,348.2 382.3,348.2 382.2,348.3 382.2,348.4 382,348.4 381.8,348.5 381.7,348.7 381.3,348.7 381.2,348.8
	380.9,348.8 380.6,349 380.5,349.5 380.2,349.8 380,349.8 379.8,349.9 379.6,349.9 379.6,350 379.5,350 379.4,349.8 379.2,349.8
	379.2,349.7 379,349.6 378.9,349.4 378.7,349.2 378.6,348.9 378.5,348.7 378.4,348.7 378.4,348.5 378.2,348.3 378.2,348.1
	378.1,347.9 378,347.5 377.8,347.1 377.6,346.9 377.5,346.8 377.2,346.4 377.1,346.3 377,346 376.8,345.9 376.8,345.8 376.3,345.2
	376.2,344.9 375.8,344.5 375.8,344.4 375.7,344.4 375.5,344 375.2,343.8 375.1,343.4 374.9,343.2 374.8,343 374.7,343 374.6,342.5
	374.5,342.4 374.4,342.2 374.3,342 374.3,341.8 374.4,341.8 374.4,341.6 374.6,341.5 374.6,341.5 374.8,341.3 374.9,341.1
	375.2,341 375.3,340.9 375.5,340.8 375.6,340.6 375.7,340.6 375.6,340.8 375.5,340.8 375.5,340.9 375.3,341 375.4,341.1 375.5,341
	375.6,341 375.5,341.3 375.7,341.2 375.8,341 376,340.9 376,340.6 376.1,340.5 376.3,340.6 376.3,340.4 376,340.5 376,340.6
	375.8,340.5 375.8,340.6 375.6,340.5 375.6,340.4 375.6,340.3 375.6,340.2 375.6,339.9 375.8,339.8 375.9,339.4 376.1,339.2
	376.1,338.9 376,338.3 375.8,338.1 375.6,337.6 375.4,337.4 375.3,337 375.1,336.9 375.1,336.8 374.8,336.3 374.7,335.7
	374.7,335.6 374.7,335.3 374.8,335.1 375,334.9 375.1,335 375.4,334.9 375.6,334.9 375.9,334.8 376.1,334.8 376.3,334.8
	376.5,334.5 377.7,334.5 377.9,334.5 378,334.6 378.1,334.6 378.2,334.4 378.3,334.3 378.7,333.9 378.8,333.7 378.6,333.7
	378.8,333.4 379,333.3 379.2,333.3 379.2,333 379.3,332.7 379.3,332.6 379.4,332.6 379.5,332.5 379.7,332.4 379.9,332.3 380,332.1
	380.1,332 380.1,331.8 380.2,331.6 380.8,331.5 380.8,331.5 381,331.5 381.1,331.4 381.1,331.3 381.1,331.3 381,331.3 380.7,331.5
	380.5,331.4 380.3,331.4 380,331.7 380,331.9 379.9,332.2 379.7,332.3 379.5,332.3 379.3,332.5 379.2,332.5 379,332.4 378.2,332.7
	377.9,333 377.7,333 377.7,333.2 377.6,333.2 377.6,333.3 377.4,333.5 377.1,333.6 377.1,333.7 377,333.8 376.7,333.8 376.7,333.7
	376.4,333.6 376.4,333.5 376.6,333.3 376.7,333.1 376.7,332.9 377,332.7 377,332.6 376.8,332.5 376.8,332.3 376.7,332.3
	376.5,332.5 376.3,332.6 376.2,332.3 376.1,332.3 376.1,332.2 375.8,332.2 375.7,332.2 375.7,332.3 375.7,332.5 375.8,332.5
	375.8,332.5 375.9,332.5 375.7,332.7 375.6,332.8 375.5,333.1 375.3,333.3 375.3,333.5 375.2,333.5 375.1,333.7 374.9,333.7
	374.9,333.8 374.4,333.8 374.3,333.8 374.2,333.9 374.3,334 374.5,334 374.4,334.1 373.3,334 373,333.9 373,333.8 372.8,333.7
	372.6,333.6 372.3,333.5 372.3,333.4 372.2,333.4 372.1,333.5 371.8,333.5 371.7,333.3 371.1,333.1 371.1,333 370.7,333.1
	370.6,333 370.5,333 370.4,333 370.5,333.1 370.3,333.4 369.9,333.3 369.5,333.5 369.1,333.5 369,333.5 369,333.7 368.7,333.7
	368.7,333.8 368.5,333.8 368.4,333.6 368.2,333.6 368.2,333.7 367.7,333.7 367.6,333.7 367.6,333.8 367.4,333.7 367.2,333.8
	366.7,333.8 366.5,333.8 366.3,333.8 366.1,333.9 365.9,333.9 365.9,334.1 365.7,334.1 365.6,334.3 365.6,334.6 365.4,334.9
	365.4,335 365.6,335.1 365.5,335.1 365.5,335.3 365.5,335.4 365.2,335.3 365.1,335.3 364.1,335.1 363.5,335.1 363.3,334.9
	363.2,335 362.6,335 362,335.1 361.8,335.2 361.6,335.5 361.6,335.5 361.5,335.5 361.6,335.8 361.6,335.9 361.3,335.8 361.2,335.5
	361.4,335.5 361.4,335.4 361.4,335.3 361.2,335.3 360.8,335.7 360.8,335.7 360.9,335.8 361,335.9 361.1,336 361.4,335.9 361.6,336
	361.7,336 361.8,335.9 361.9,335.7 361.9,335.7 361.9,336.1 361.8,336.1 361.1,336.1 360.6,336.3 360.2,336.3 359.7,336.6
	359.5,336.6 359.3,336.8 358.8,337 358.7,337 358.6,337 358.4,337.3 358.4,337.7 358,337.8 357.8,338.2 357.7,338.4 358.1,338.7
	358.1,339 357.9,339.2 357.6,339.2 357.5,339.4 356.9,339.7 356.7,340.1 356.5,340.3 356.5,340.5 356.4,340.6 356.4,340.7
	356.7,340.8 356.8,340.9 356.8,341 356.5,341.2 356.5,341.5 356.5,341.9 356.6,341.9 356.7,342.2 357,342.2 357.1,342.1
	357.2,342.1 357.3,342.3 357.4,342.4 357.4,342.5 357.5,342.8 357.3,343 357.3,343.5 357.1,343.6 357.1,343.7 357.1,343.8
	356.9,343.8 356.9,343.7 356.7,343.6 356.7,343.5 356.5,343.5 355.8,343.7 355.7,343.8 355.7,344.1 355.6,344.4 355.5,344.4
	355.5,344.4 355.6,344.5 355.7,344.6 355.4,344.6 355.3,344.8 355.1,345 355,344.9 354.9,344.7 354.6,344.6 354.6,344.4
	354.4,344.4 354.3,344.2 354.4,344.1 354.4,343.9 354.4,343.8 354.4,343.7 354.3,343.6 354.4,343.5 354.5,343.5 354.5,343.4
	354.5,343.4 354.6,343.3 354.6,343.2 354.7,343.2 354.7,343 354.5,342.8 354.4,342.7 354.3,342.7 354.2,342.6 354.1,342.5
	354,342.3 353.4,341.9 353.3,341.8 353.2,341.8 352.8,341.4 352.6,341.4 352.1,341.2 351.3,340.9 351.1,340.9 350.8,341.1
	350.7,341.2 350.7,341.4 350.5,341.6 350.5,341.7 350.4,341.8 350.4,341.8 350.3,342 350.2,342.2 349.8,342.5 349.8,342.7
	349.5,342.7 349.3,343 349.2,343.1 348.9,343.2 348.8,342.7 348.5,342.7 348.4,342.6 348.3,342.6 347.8,342.8 347.9,342.9
	347.5,343 347.5,343.1 347.3,343.2 347.2,343.3 347,343.4 347,343.5 346.9,343.6 346.7,343.5 346.7,343.3 346.7,343.2 346.7,343.1
	346.5,343 346.1,342.8 345.7,342.7 345.4,342.7 345.2,342.9 345.2,343.2 345.1,343.4 345.1,343.7 344.9,344.1 344.8,344.2
	344.8,344.6 344.7,344.6 344.6,344.7 344.6,344.6 344.4,344.5 344.3,344.3 344.2,344.4 344,344.5 343.9,344.3 343.9,344.2
	343.7,344.1 343.6,344 343.4,344.1 343.3,343.9 343.1,343.8 343,343.6 342.8,343.6 342.9,343.4 342.8,343.2 342.8,343.1
	343.1,343.1 343.1,342.9 343.2,342.8 343.4,342.8 343.5,342.6 343.6,342.6 343.7,342.4 343.5,342.3 343.6,342.3 343.7,342.2
	343.7,341.7 343.9,341.5 344.2,341.2 344.2,341.1 344.3,340.9 344.3,340.8 344.2,340.7 344.2,340.7 344.5,340.6 344.5,340.5
	344.4,340.4 344.8,340.2 344.9,340 345,340 345,340.1 345.2,340 345.2,339.8 345.1,339.7 345.1,339.4 345,339.4 344.9,339.1
	345,338.8 345,338.6 345,338.6 345,338.5 345,338.4 345.2,338.2 345.3,338.2 345.3,338.3 345.6,338.3 345.6,338.3 345.6,338.2
	345.7,338.2 345.9,338.1 345.8,338 346,337.9 346.1,337.9 346.1,338 346.5,338 346.7,337.6 346.7,337.1 346.7,337.1 346.7,336.8
	346.8,336.7 347,336.5 347.3,336.6 347.7,336.6 348,336.3 348,336.1 348.1,335.9 348.1,335.7 348,335.5 348,335.4 348.3,335.2
	348.3,335 348.4,335 348.5,334.6 348.7,334.6 348.7,334.4 348.8,334.2 348.9,334.2 348.8,334.1 348.9,334 349,334 349.2,334.1
	349.3,334.1 349.5,334.1 349.5,334 349.7,334.1 349.8,334 349.9,333.8 350,333.7 350.3,333.2 350.3,333 350.4,332.8 350.4,332.7
	350.6,332.6 350.7,332.5 350.9,332.5 350.9,332.4 351.1,332.3 351.2,332.3 351.4,332.3 351.4,332.3 351.6,332.3 351.6,332.2
	351.7,332.2 351.8,332.1 352.2,331.7 352.2,331.6 352.3,331.5 352.4,331.3 352.5,331.3 352.5,331.2 353,331.2 352.9,330.8
	353,330.7 353,330.4 353.2,330.4 353.3,330.5 353.3,330.5 353.2,330.5 353.2,330.7 353.2,330.8 353.1,330.8 353.1,330.9 353.2,331
	353.2,331.1 353.3,331.2 353.6,331.3 354.1,331.3 354.1,331.3 354.5,331.3 354.6,331 354.7,331 354.7,331.1 354.7,331.4
	355.1,331.3 355.5,331.1 355.8,330.9 355.9,330.7 356.1,330.6 356.1,330.5 356.2,330.5 356.3,330.3 356.3,330.2 356.4,330.2
	356.6,330.2 356.7,330 357,329.8 357.2,329.3 357.2,329.2 357.4,329.1 357.4,328.9 357.6,328.9 357.6,328.8 357.9,328.9 358,328.8
	358.1,328.6 358.2,328.6 358.2,328.4 358.3,328.2 358.4,328 358.5,327.9 358.6,327.5 358.7,327.4 358.8,327.4 358.9,327.2
	359.4,326.8 359.5,326.6 359.5,326.5 359.6,326.3 359.7,326.2 359.7,326.1 360.5,326 360.6,326.1 360.6,326.1 360.7,326.1
	360.8,326.1 360.9,326.3 361.1,326.2 361.3,326.1 361.3,326 361.4,325.9 361.5,325.6 362,325.1 362.2,324.8 362.4,324.7
	362.6,324.5 363.1,324.1 363.2,323.7 363.5,323.6 363.6,323.4 363.6,323.3 363.9,323.3 364.2,322.8 364.3,322.4 364.2,322.2
	364.3,322.1 364.4,322 364.6,322 364.7,321.6 364.8,319.5 364.9,319.3 364.9,318.9 364.4,317.2 364.3,316.3 364.8,315.5
	365.2,315.5 365.3,315.5 365.3,315.8 365.8,315.7 365.8,315.8 365.4,315.9 365,316.3 365.5,316.9 365.5,317.5 365.6,317.7
	365.7,317.7 365.8,317.6 365.9,317.5 366.1,317.1 366.3,317 366.3,316.9 366.1,316.9 366.2,316.7 366.2,316.2 366.1,316.1
	366.2,315.9 366.1,315.4 366.2,315.1 366.3,314.9 366.5,314.8 366.7,314.8 366.9,314.5 367.5,314.2 367.9,314.1 367.9,313.8
	368,313.6 368.2,313.6 368.7,312.8 368.9,312.2 369.6,311.7 369.7,311.5 370.8,310.9 370.8,310.7 371.2,310.4 371.3,310.1
	371.4,310.1 371.4,310 371.4,309.5 371.4,309.4 371.4,309.3 371.4,308.8 371.4,308.8 371.6,308.4 371.8,308.3 371.8,308.2
	372.2,307.8 372.7,307.7 373.1,307.4 373.8,307.4 373.9,307.2 374,307.2 374.5,306.5 374.8,306.4 375.2,306.3 375.8,305.8
	375.6,305.5 375.7,305.5 375.9,305.9 376.1,306 376.1,306.1 376.2,306.3 376.3,306.3 376.4,306.2 376.3,305.9 376.5,306
	376.6,306.2 376.8,306.2 377,305.9 377.6,305.9 377.6,306 377.8,306.1 377.7,306.3 378,306.5 378,306.6 378.1,306.6 378.1,306.4
	378.4,306.3 378.8,306.1 379.6,306.1 379.9,306.1 380,306 380.5,305.8 380.7,305.7 380.8,305.6 380.8,305.4 381.7,305.2 381.8,305
	382,304.9 382.2,304.8 382.1,304.7 382.2,304.5 382.3,304.5 382.6,304.2 382.8,304.2 382.8,304.2 382.9,304.2 383.1,304 383.1,304
	383,304 383,303.9 383.2,303.9 383.3,303.9 383.5,303.8 383.7,303.8 383.8,303.6 384.1,303.6 384.2,303.4 384.6,303.3 385.4,303.2
	385.5,303.1 385.8,303.1 386.1,302.9 386.1,302.8 386.3,302.8 386.6,302.5 386.7,302.5 387.3,302 387.8,301.7 388.3,301.3
	388.4,301.3 388.6,301.5 388.8,301.5 389,301.5 389.2,301.4 389.4,301.3 389.5,301.2 389.5,301.1 389.6,301.1 389.6,301
	389.7,300.9 389.9,300.7 390.3,300.8 390.5,300.8 390.5,300.3 390.2,299.7 390.2,298.8 390.1,298.7 389.9,298.4 389.5,298.3
	389.5,298.2 389.2,298 388.4,297.6 388.4,297.1 388.7,296.9 388.8,296.9 388.9,296.8 389,296.7 389.3,296.9 389.7,296.9
	389.9,297.1 390.3,297.2 390.5,297.2 390.6,297.3 390.8,297.2 390.9,297.3 390.8,297.6 390.9,297.7 391,297.9 391,297.9 391,298.2
	391.2,298.4 391.3,298.4 391.5,298.5 392.1,298.5 393,298.3 393.1,298.2 393.4,298.1 393.5,298 393.8,298 393.8,298.1 393.9,298.1
	393.8,298.2 393.9,298.4 394.1,298.5 394.2,298.7 394.4,298.9 394.6,298.9 394.9,299.1 395.6,299.2 395.7,299.4 395.6,299.9
	395.7,300.2 395.8,300.2 395.9,300.4 396.1,300.6 396.8,300.9 397.7,301 398.3,301 398.7,300.9 398.9,301 399.4,301 399.5,301.1
	400.7,301 400.9,300.9 401,300.9 401.3,301 401.3,301.1 401.3,301.2 401.4,301.1 401.4,301.2 401.7,301.2 401.7,301.3 402.2,301.3
	402.9,301 403.1,301 403.1,300.9 403.4,300.9 403.9,300.7 404.1,300.7 404.1,300.6 404.8,300.3 405,300.2 405.1,300.2 405.1,300
	405.2,300 405.3,299.9 405.5,299.9 405.9,299.6 406.2,299.6 406.5,299.3 406.7,299.3 406.9,299.1 407.3,299 407.4,299 407.4,299.1
	407.3,299.2 407.4,299.3 407.4,299.4 407.5,299.7 407.7,299.8 407.8,300 408.1,300.3 408.1,300.4 408.2,300.4 408.4,300.5
	408.5,300.6 408.7,300.9 409.1,301 409,300.9 408.7,300.7 408.7,300.6 408.2,300.3 407.9,299.8 407.7,299.7 407.5,299.5
	407.5,299.4 407.5,299.5 407.7,299.5 407.9,299.4 407.7,299.2 407.5,299.3 407.5,299.2 407.9,298.8 407.9,298.7 408.2,298.5
	408.3,298.3 408.9,298.1 409.3,297.9 409.4,297.9 409.6,297.9 409.7,297.9 409.7,297.8 409.7,298 409.8,298 409.9,298 410,298
	410.3,297.9 410.5,297.9 410.5,297.8 410.8,297.5 411.7,297.1 411.7,297 412,297 413,296.5 413.3,296.5 413.6,296.3 414,296.3
	414,296.2 414.2,296.1 415.3,296.1 415.8,295.9 416.2,295.8 416.4,295.7 416.8,295.7 416.8,295.6 "/>
<polygon fill="#C6E09D" points="360.4,289.4 360.6,289.6 361,289.7 361.1,289.7 361.2,289.6 361.5,289.6 361.5,289.8 361.4,290
	361.5,290 361.6,290.1 361.7,290.1 361.7,290 361.8,290 361.8,289.7 361.9,289.7 362,289.8 362.2,289.8 362.2,289.9 362.6,289.8
	362.7,289.7 363,289.8 363.3,289.8 363.4,289.9 363.4,290.1 363.5,290.2 363.5,290.4 363.6,290.5 363.7,290.6 363.8,290.7
	364,290.7 364.4,290.4 364.6,290.4 364.7,290.3 364.9,290.3 365.2,290.5 365.3,290.5 365.4,290.4 365.5,290.4 365.8,290.6
	365.9,290.5 366.2,290.6 366.5,290.8 366.6,290.8 366.7,290.7 366.9,290.7 367.2,290.9 367.2,290.5 367.5,290.5 367.5,290.7
	367.6,290.7 367.6,290.9 367.7,291.1 367.6,291.4 367.8,291.4 367.9,291.5 368,291.5 368,291.7 368.2,291.8 368.2,291.8
	368.1,291.9 368.1,292.1 368.4,292.3 368.4,292.7 368.4,292.8 368.4,293.1 368,293.6 368,293.8 367.8,294 368,294.1 368.3,294.1
	368.3,294.2 368.2,294.3 368.3,294.4 368.5,294.4 368.5,294.5 368.6,294.5 368.6,294.7 368.7,294.7 368.6,295.1 368.6,295.1
	368.6,295.4 369.1,295.4 369.2,295.3 369.4,295.3 369.4,295.4 369.8,295.4 369.9,295.5 370,295.6 370.2,295.6 370.4,295.5
	370.4,295.6 370.5,295.8 370.2,296 370.2,296.2 370.2,296.4 370.4,296.5 370.4,296.6 370.5,296.6 370.6,296.8 370.3,297
	370.3,297.1 370.5,297.3 370.6,297.3 370.6,297.2 370.7,297.2 370.8,297.3 370.8,297.8 370.9,298 370.9,298.2 371,298.3 371,298.9
	371.6,299.3 371.8,299.3 371.8,299.4 371.6,300.1 371.3,300.3 371.3,300.6 371.3,300.8 371.6,301 372,301 372.1,300.8 372.8,300.8
	373.1,300.6 373.4,300.6 373.8,300.4 373.9,300.3 374.6,300.2 374.9,300.1 375,299.6 375.2,299.5 375.3,299.3 375.7,299 376,299
	376.1,298.9 376.8,298.9 376.9,299 377.1,299 377.5,299.2 377.8,299.2 377.9,299.3 378.4,299.4 378.5,299.4 378.8,299.4
	378.9,299.3 379.3,299.2 379.5,299.4 379.7,299.4 379.9,299.5 380.1,299.4 380.1,299.5 380,299.5 380.1,299.5 380.2,299.6
	379.9,299.9 379.9,300.1 379.5,300.1 379.3,300.2 379.3,300.4 379.2,300.4 379.2,300.9 379.1,300.9 379.1,301 378.9,301
	378.8,301.1 378.6,301.3 378.5,301.6 378.3,302.1 377.8,302.6 377.8,302.9 377.8,303.5 377.7,303.7 377.1,303.9 377,304.2
	377,304.4 376.8,304.4 376.4,304.7 376.3,304.7 376.2,304.9 375.9,305 375.3,305.5 375.1,305.6 374.8,305.9 374.5,306 374.1,306.3
	373.9,307.2 373.7,307.3 373.5,307.2 373.5,307 373.1,307 372.8,307.4 372.7,307.5 372.8,307.5 372.8,307.5 372.6,307.5
	372.5,307.6 372.1,307.6 371.8,307.8 371.5,308.2 371.2,308.7 371.2,309.1 371.3,309.6 371.2,309.9 371,310.1 371,310.3
	370.8,310.2 370.7,310.4 370.6,310.4 370.3,310.6 370,310.6 369.7,310.8 369.5,311.1 369.1,311.3 368.8,311.6 368.6,311.8
	368.5,311.9 368.3,311.9 368.2,312 367.9,312.4 367.7,312.8 367.5,313 366.9,313.4 365.9,313.8 365.6,313.8 365.5,313.6
	365.7,313.5 365.6,313.5 365.3,313.6 365.1,313.5 364.8,313.4 364.7,313.4 364.9,313.5 364.9,313.6 364.8,314.1 364.1,314.6
	363.7,314.6 363.7,314.7 363.9,314.7 364,314.8 364.2,314.8 364.6,314.8 365.2,315.1 365.4,315.1 365.4,315.3 365.4,315.3
	365.3,315.3 365.1,315.1 364.8,315 363.8,314.9 363.2,314.4 362.9,314.1 362.4,313.9 361.8,313.7 361.6,313.7 361.4,313.8
	361.3,314.1 361.4,314.1 361.3,314.3 361.2,314.3 361.2,314.5 361.1,314.7 360.9,314.8 360.8,314.6 360.9,314.2 361,314.2
	361,314.1 361.1,314 361.3,313.7 360.9,313 360.9,312.5 360.8,312.5 360.8,312.4 361.1,312 361.3,312.1 361.5,311.9 361.8,311.8
	361.9,311.7 361.9,311.8 362.3,311.8 362.4,311.5 362.5,311.2 362.7,310.6 362.6,310.3 362.4,309.8 362.3,309.8 362.3,309.9
	361.9,310.1 361.7,310.4 361.5,310.8 361.4,310.9 361.1,310.9 361.1,311.3 361.1,311.4 361,311.6 360.7,311.9 360.6,311.9
	360.4,312.1 360.3,312.5 360,312.6 359.8,312.7 359.8,312.8 359.6,312.8 359.5,312.9 359.5,313 359.4,312.8 359.5,312.7
	359.5,312.6 359.4,312.5 359.2,312.2 359,312.1 358.9,312.3 358.9,312.1 359,311.9 359,311.6 358.9,311.6 358.7,311.2 358.8,310.7
	358.4,310.5 358.3,310.7 358.2,310.6 358,310.7 357.9,310.8 357.6,310.8 357.4,311 357.2,311.1 357.2,310.9 357.1,310.9
	357.1,310.7 357.1,310.7 357.1,310.5 357.2,310.4 357.2,310.3 357.1,310.3 357,310.4 356.9,310.4 356.8,310.3 356.2,310.2
	356.1,310.1 356.2,310 356.3,309.9 356.3,309.8 356.2,309.6 356.2,309.4 356.3,309.3 356.3,309.1 356.5,308.9 356.5,308.6
	356.8,308.6 356.8,308.5 356.3,308.6 356.3,308.3 356.5,308.1 356.3,307.8 356.1,307.6 355.9,307.3 355.5,307.2 355.3,306.9
	355.4,306.7 355.4,306.5 355.5,306.4 355.5,306.2 355.2,306.1 355,306.1 354.8,305.9 354.6,305.6 354.2,305.3 354.2,305.3
	354.1,305.2 354,305.1 353.8,304.9 353.9,304.8 353.9,304.6 354,304.4 353.9,304.4 353.8,304.2 353.6,304.2 353.6,303.9
	353.7,303.9 353.6,303.7 353.9,303.5 353.8,303.3 353.8,303.3 353.6,303.5 353.6,303.6 353.6,303.6 353.4,303.4 353.4,303.3
	353.3,303.3 353.2,303.2 353.2,303.1 353.2,303 353.3,303 353.2,302.9 353.2,302.8 353.1,302.8 353.1,302.8 352.9,302.8 352.9,303
	352.9,303 352.8,302.9 352.8,302.8 352.9,302.8 352.8,302.8 352.8,302.7 352.8,302.6 352.6,302.7 352.5,302.6 352.3,302.5
	352.4,302.2 352.3,302.2 352.2,302.3 352.1,302.4 352.1,302.2 352.1,302.1 352.1,302.1 352.3,302.1 352.3,301.9 352.6,301.7
	352.6,301.5 352.8,301.5 353.2,301 353.5,300.8 353.5,300.5 353.6,300.5 353.7,300.7 353.8,300.7 354,300.6 354,300.5 354.2,300.4
	354.3,300.1 354.5,299.9 354.6,299.9 354.6,299.8 354.3,299.8 354.1,300.1 353.8,300.2 353.7,300.2 353.7,300.1 353.7,300.1
	353.5,300.5 353.4,300.5 353.2,300.4 353.4,299.9 353.4,299.7 353.5,299.5 353.4,299.1 353.3,299 353,298.9 353,298.7 352.9,298.4
	352.7,298.4 352.6,298.4 352.6,298.4 352.4,298.3 352.5,298 352.3,298 352.2,297.9 352.3,297.8 352.4,297.7 352.4,297.6
	352.6,297.6 352.8,297.6 353,297.4 353,297.1 352.9,297 352.9,297 353,296.8 353.2,296.8 353.2,296.6 353,296.6 353,296.5
	353,296.4 353.2,296.3 353.2,296.1 352.9,295.9 353,295.9 353.3,295.5 353.5,295.5 353.5,295.1 353.6,295 353.6,294.3 353.8,294.3
	353.6,293.9 353.4,293.9 353.3,293.8 353.3,293.6 353.2,293.5 353.1,293.4 353.1,293.2 353.2,293.1 353.3,292.9 353.2,292.8
	352.9,292.7 352.9,292.5 352.8,292.5 352.8,292.4 352.9,292.4 352.9,292.2 352.7,292 352.7,291.7 352.8,291.6 353.3,291.3
	353.5,291.3 353.6,291.5 353.7,291.6 354,291.5 354.1,291.4 354.3,291.3 354.4,291.4 354.8,291.4 354.9,291.3 355.1,291.4
	355.1,291.3 355.1,291.1 355.2,290.9 355.4,290.8 355.4,291 355.6,291 355.8,290.6 356,290.5 356.2,290.5 356.1,290.6 356.1,290.7
	356,290.8 356,291 356.3,291.2 356.4,291.2 356.4,291 356.6,290.8 356.8,290.8 357,291 357,291 357.1,290.9 357.3,290.9
	357.2,290.7 357.3,290.5 357.2,290.3 357.3,290.3 357.4,290.2 357.6,290.3 357.7,290 357.8,290 358.1,290.1 358.1,290.2
	357.9,290.4 358.3,290.5 358.3,290.6 358.2,290.7 358.4,290.7 358.4,290.5 358.5,290.5 358.6,290.6 359,290.6 359,290.8
	359.3,290.7 359.3,290.6 359.2,290.6 359.1,290.4 359.4,290.2 359.4,290 359.1,290.1 359,290.1 359,290 359.1,290 359.2,289.9
	359.5,289.9 359.5,289.7 359.6,289.7 359.8,289.7 359.8,289.6 360.2,289.6 360.2,289.5 "/>
<path id="GB-UKG_1_" fill="#E0EDC3" d="M485.9,308.4l1.2-0.5l1,1.6l3.9,1.6l1.7,1.1l1,1.2l0.2,0.6l0,2l1.4,2.4l-0.2,1.7l0.4,2.5
	l0.3,0.8l0.8,0.8l0.1,1.9l-0.6,1.5l-2.8,1.8l0.1,1.3l-0.3,1.4l-0.4,0.4l-0.8,0l0,1.7l0.7,1.2l0.2,1.3l1.2,0.2l0.6,0.6l1.7,0l1,1.3
	l0.8,0.5l4.6,0.3l1.1,0.9l0.9,1.7l-1.2,1.1l-0.7,2.2l-2.2,1.2l-1.4,2.7l1,1l1.8,0.7l0.3,1.8l0.9,0.1l0.7-0.9l0.4,0.7l0.9,0l0.2,0.7
	l2.4,3l-0.2,1l-1.1,0.7l0.9,1.8l-0.2,1.7l1.4,0.5l1.2,1.5l4,1.8l0.7,0.8l0.4,1.1l5.2,2.8l2.7,4.5l1.5,0.9l1.3,2.9l1,1.9l0.1,0.9
	l-0.8,0.8l-2.7,0.9l-0.8,0.6l0.4,0.7l1.7,0.4l0.3,0.4l-1.1,1.6l0.8,0.8l0,1.9l-3,1.8l0,0.6l1,1.2l-0.2,0.9l-2.8,1.2l-0.7,0.8
	l-0.2,0.8l0,0l-0.6,0.8l-0.4,1.5l-1.6,1.3l1.1,1.2l-0.3,0.8l-1.1,0.3l-1.4-1.3l-0.9-0.1l-0.6,0.1l0.1,1.2l-0.2,0.2l-1.5,0.2l-0.2,1
	l-1,1.3l0,1.7l-0.7,3.5l-0.4,0.8l-1.4,0.3l-0.2,1.3l-1.9,0.2l-0.4,0.9l-0.5,0.1l-2.5-2.4l0,0l0-0.4l0.9-1l1.1-2.1l-0.4-0.3l-1.9,0.3
	l-0.9-0.4l-1.6-2.8l-0.5-1.6l-1.1-0.4l-1.1-1.4l-1.1,0.6l-1.8,2.5l-1.5-0.4l-1,0.9l0,0.4l0.8,0.4l1.1,1.6l0.1,1.2l-0.3,0.9l-0.6,0
	l-1.8-1.7l-1.3-0.3l-0.7,0.4l-1.2-0.3l-1.5,0.3l-3.1,2.2l-2.1-0.6h-1.8l-1.2,1l-0.7-0.9l1.4-3l-2.5,0.1l-0.3,0.6l-0.3,2.2l0.8,1
	l-0.8,0.6l-1.7-0.3l-1.3,2.2l-0.9,0.1l-2.9-0.9l-0.6-1.6l-1.2-1.9l-1.4,0.2l-1.3,1.5l-1,0.4l-0.8-0.4l-0.6-1.6l-1-0.5l-0.6,1.9
	l0.2,0.9l-0.6,1l-0.1,1.4l1.1,0.9l0.3,1.5l1.1,1.2l0.2,1l-0.2,0.6l-1.8,1.2l-1.8,0.2l-0.7,1.8l-1.6-0.2l-1.4,0.6l-0.4,0.8l-0.6-0.2
	l-1.1,0.7l-0.5-1.3h-0.3l-0.3,0.5l-0.3,2.1l0,0l-0.6,0.6l-0.3-0.7l-0.9-0.2l-0.8-1.1h-2l-1.5-2.2l0-0.6l-0.6-1l-2.2-1.3l-2.3-2.3
	l-1.5,0.2l-2.5,1.6l-0.9-0.2l-0.3-0.8l-1.1-0.5l-0.3-1.5l-1.8-1.7l-1.2-1.7l-1.8-3.2l0.4-1.1l-0.2-0.9l-1.6-1.9l-0.8-0.1l0.6-2.3
	l0.6-1l0.2-0.2l-1.4-0.6l-0.1-0.6l2.8-1.8l0.2-0.6l-0.2-0.2l-1.5,0.3l-0.4-0.4l-0.1-0.6l2.7-4.1l0.3-1.3l1.3-0.9l0.8-1.1l3-0.5
	l0.1-0.3l-0.3-0.4l-1.6-0.4l-0.5-1l0.5-1.9l1.8-1.2l0.2-0.6l-0.2-0.8l-0.9-0.4l-2.4,0.5l-2.3-0.4l-1.9-2l-1.9-1.3l-1.3-1.6l-1.5-0.6
	l-0.7-0.8l-0.3-0.9v-1.7l0.9-1.3l2.4-0.9l2.1-1.4l4.1-0.2l0.5-1.4l1.5-0.5l0.9-1.9l-0.3-0.8l-1.5-1.6l-2.9,2l-0.9,1.5l-1.2,0.3
	l-0.5-0.3l0.6-1.4l-0.9-1.7l0-1.4l2.2-1.6l0.4-0.8l0.4-2.4l1.8-1.3l0.2-0.7l-0.3-1.8l1.1-2.5l2.2-0.4l0.7-0.9l-0.1-0.5l-1.8-1.1
	l-0.5-1l-3-0.7l-0.5-0.4l-0.4-0.9l-2-0.3l-0.9-0.4l-0.5-0.6l-0.8-2.2l0.2-1l1.7-1.9l-0.6-2.3l1.8-0.9l0.4-1.6l1.2-1.1l0.3,0.1
	l3.3-2.5l1.6,0.1l1.8,1.7l2.5-0.8l1.3,0.2l3.6,3.5l1.7-1.4l1.5-0.2l0.1-2.5l-0.5-1.7l0,0l5.4-1.6l1.7,0.8l0.6,2l1-0.2l1.6,0.8
	l0.7-1.2l1.7,0.6l1.5-0.2l1-0.7l0.4-1.2l2.3-0.9l0.6-0.9l-0.4-3.1l0.4-1.3l1.6-0.3l1.5-2l1.7,0.1l1.3-0.5l4.6-5.4l1.2-0.2l0.2-0.6
	l-0.5-1l0.1-0.3l0.7-0.1l1.2,0.8h1.7l1.9-1.6l1.3-0.1L485.9,308.4z"/>
<path id="GB-UKD" fill="#E0EDC3" d="M420.4,226.8l0.2,0.1v0.2l-0.2,0l-0.2,0.2l-0.3,0.1l-0.1,0.4l0.1,0.3l0.2,0.2v0.2l0.3,0.1l0,0.2
	l0.1,0.1l0.2,0.8l0,0.6l0.1,0.2l0.1,0.1l0,0.4l0.1,0.5l0.1,0.2v0.1l-0.1,0.1v0.2l-0.1,0.1l0.3,0.1l0.1,0.2l0.1,0.1l0,0.2l0.2-0.1
	l0.2,0.1v0.2l-0.1,0l0,0.1l0.2,0l0.2,0.3l-0.1,0.2l0,0.2l0.1,0l-0.1,0.2l0,0.2l0.3,0.5l0.2,0l0.2,0.1l0,0.2l0.1,0.1l0,0.2v0.5
	l0.2,0.2l0.2,0.1l0.1,0.2h0.1l0.2,0l0.8-0.5l0.1,0.1l0,0.2l0.1,0l0-0.4l0.1,0l0.1,0.1l0,0.2l-0.2,0.5h-0.3l0,0l-0.1,0l-0.1,0.1
	l-0.4,0l-0.1,0.1l-0.5,0l-0.3-0.2l-0.1-0.2l-0.2-0.2v-0.1l-0.2-0.2l-0.1-0.5l-0.1-0.2l-0.1-0.1l-0.4-0.7l-0.1-0.1l-0.2-0.4l-0.2-0.2
	l-0.8-1.4l-0.1-0.3l-0.1-0.2l-0.1-0.3l-0.3-0.4l-0.1-0.4l-0.1-0.3l0-0.3l0.1,0v-0.3l-0.1-0.1l0-0.4l-0.1-0.3l0-1l0.1-0.2v-0.1
	l0.2-0.2l0.4-0.1l0.2-0.2L420.4,226.8L420.4,226.8z M449.6,135l0.4,0.5l1.2,3.8l0.7,1l2.2,0.8l0.5,1.8l1.7,1.2l0.4,0.8l2.2-0.6
	l1,0.7l-0.5,0.7l0.2,0.6l-0.2,0.7l0.7,1.7l-4,2.4l-0.4,0.5l0,1.8l-1.2,1.7l1.4,0.8l0.4,1.8l0.8,1.3l-0.9,0.6l-0.6,2l-1.2,0.9
	l0.3,0.9l1.1,1.3l0.2,1l-0.4,0.9l0.3,1.1l1.5,1.4l1.7,0.2l3.5-2.5l1-1.1l0.6-0.2l2,3.2l2.9,2.4l-1.1,4.9l-1.4,3.2l0.5,0.8l2.8,1.5
	l0.5,0.7l0.1,0.7L470,184l-1,1.1l0.5,2.2l0.6,1.3l3.9,3.2l0.9,1.8l1.5,0.3l0.3,3.7l0.4,1.1l-0.2,1.5l0,0l-0.7-0.3l-1.3,1.2l-2.6-0.1
	l-1.6,1.1l-1,1.6l0.6,2v1l-3.3,2.8l0.3,0.7l1.5,1.1l0.3,0.8l0,2.5l-0.3,1l0.6,1.4l-0.2,1.5l-0.3,0.5l-1,0.2l-1.2-0.8l-1.5,0.8
	l-0.9,1.2l-2.4-0.2l-0.3,1.1l-3,4l-0.4,1l-1.5,0.8l-0.2,2l0.3,1.3l1.3,1.4l2.6,1.5l0.4,0.7l0.1,2.1l0.5,0.6l1.1,0.2l2.4-0.7l1.3,0.3
	l0.3,0.5l0.2,1.3l0.5,0.3l-0.5,1.4l0.6,1l1.8,0.2l0.7,1.6l0.7,0.1l2.4-1.1l0,0.9l0.3,0.4l1.6,0.2l0.6,1l0.2,1.6l3.5,1.9l0.4,2.3
	l1.6,2.2l1.7,1.3l-0.2,1.2l-0.5,0.8l-2.5,1.2l-1.3,1.7l0,3.1l-2,2.6l0.5,1.8l-0.1,0.8l0.5,0.2l0.5,1l0.7-0.1l1,1l0.9-0.2l0.8-0.8
	l1,0l0.1,0.9l0.6,0.9l-0.2,1.4l0.6,0.7l0.4,1.8l1.5,0.3l0.6,1.8l2,2.2l2.1,3l0,0l-0.7,1.1l-0.5,1.7l-0.7,0.4l-1.6,0.1l-0.7,2.2
	l-0.2,2.2l-1.4,1.4l-0.2,0.6l0.1,0.6l1.1,0.5l0.5,0.7l-1.2,2.1l-0.6,0.3l-0.1,0.6l0.9,1.4l0.2,1l0.1,6.1l0.3,1.9l1,1l-0.3,2l0,0
	l-1.5,1.8l-1.3,0.1l-1.9,1.6h-1.7l-1.2-0.8l-0.7,0.1l-0.1,0.3l0.5,1l-0.2,0.6l-1.2,0.2l-4.5,5.4l-1.3,0.5l-1.7-0.1l-1.5,2l-1.5,0.3
	l-0.4,1.3l0.4,3.1l-0.6,0.9l-2.3,0.9l-0.4,1.2l-1,0.7l-1.5,0.2l-1.7-0.6l-0.7,1.2l-1.6-0.8l-1,0.2l-0.6-2l-1.7-0.8l-5.4,1.6l0,0
	l-2.4-1.6l-2,0.1l-0.8-1.5l-1.7-1.7l0.2-0.9l-0.4-1.8l-1.6-4l0.1-0.3l-2.3-1.8l-1.1-1.9l0.1-0.4l2.5-1.7l-0.2-1.3l-2.2-2.5l-2.4-2
	l-1.8-1l-2.2,0l-0.4-0.8l-0.2,0.3l0,0l-0.1-0.1l0.1,0V304l-0.2,0.1V304l-0.1-0.1l0-0.1h-0.1l-0.1-0.1l-0.1-0.6l0.5,0l0.1,0.2h0.1
	l-0.1-0.2l0.3,0l0-0.1l-0.3,0l-0.1-0.1l-0.2,0l-0.1,0l-0.1-0.1l0.2-0.1l0.1-0.1l0.1,0l0.2,0.2h0.1l0-0.1l-0.1,0v-0.1l0.1-0.2
	l0.2,0.1l0.3,0l0,0l0.1,0v-0.1l-0.1,0l-0.1,0.1l-0.6-0.1l-0.2,0.1l0.1-0.1l-0.1-0.1l0.2-0.1l0.1,0l0-0.1l-0.3,0l-0.1,0.2l-0.2,0
	l-0.1-0.1l-0.2,0l0-0.1l0.1,0v0h0.1l0.1-0.1l-0.2,0.1l-0.1,0l0-0.1l-0.1,0.1l-0.2-0.1l0-0.2l-0.1-0.1v-0.2h0.5l0.1,0V301l-0.3,0
	l0.1-0.2l-0.3,0.1l-0.2-0.3l-0.1-0.2v-0.1l0.1-0.1l-0.3-0.1v-0.3l-0.1-0.1l-0.1-0.2l0-0.4L427,299l-0.1-0.1l0-0.6l-0.2-0.1l0.2,0
	l0.1,0.1h0.1v-0.1l-0.3-0.3l-0.1,0l-0.7-1l-0.2-0.1l-0.3-0.3l-0.2,0l-0.4-0.5l-0.1-0.1l-0.1-0.2l-0.1-0.4l-0.1-0.2l-0.3-0.2
	l-0.1-0.2l-0.2-0.2l0-0.2l-0.1,0v-0.2l-0.1-0.1l-0.1-0.6l-0.1-0.1v-0.1l-0.1-0.1l0-0.1l0.2,0l0.4-0.3l0.1-0.2h0.1l0.3-0.4v-0.1
	l0.3-0.1l0.2-0.2h0.1l0.3-0.2h0.1l0.2-0.2l0.3-0.1l0.1-0.1l0.3-0.1l0.2-0.1l0.2,0l0.2-0.2l0.4,0l0.4-0.3l0.2,0l0.2-0.2h0.2l0.2-0.1
	l0.2-0.2l0.1,0l0.2-0.3l0.3,0l-0.1-0.1l0.2-0.1l0.3-0.3l0.7-0.1l0.1-0.1l0.5-0.2l0.2-0.1h0.3l0.1,0.1l0.1,0.2l0.1,0v0.3l0.1,0.2
	l0,0.2l0.1,0.1l0.1,0.5l0.1,0.2l0,0.1l0.3,0.3v0.1l0.1,0l0.1,0.3l0.1,0v0.5l-0.4,0.2l-0.1-0.1l-0.1,0l-0.3-0.2l-0.6,0.1l-0.1-0.1
	l0-0.1H431l-0.1-0.1h-0.1l0.1,0.2l0.3,0.2h0.3l0.1-0.1l0.3,0l0.3,0.1l0.1,0.2h0.1v0.1l0.1,0.1h0.1v-0.1l0.1,0h0.2v0.2l0.1,0.1
	l-0.1,0.5l0.2,0.7l0.1,0.1l0.1,0.3l0.2,0l0,0.2l-0.1,0v0.3l0.1,0.1l0.2,0.1l0.1,0.3l0.2,0.1l0,0.1l0.1,0l0.1-0.2l0.1,0.2l0.1,0.1
	l0,0.1l0.1,0.1l0.3,0.2l0,0.1l0.1,0.1v0.1l0.3,0.4l0,0.1l0.1,0.1v0.1l0.1,0.1v0.1l0.1,0.2l0.1,0.1l0,0.2l0.1,0.2v0.1l0.1,0.1
	l0.1,0.3l0.4,0.3l0.1,0.4l0.1,0l0,0.2l0.2,0.2l0.1,0.2l0.2,0.1v0.1l0.2,0.1l0.1,0.1l0.2,0.1l0.3,0l0.1,0.1l0.1,0l0.1,0l0.1,0.1
	l0.1,0l0,0.1l0.2,0l0.5,0.4l0.2,0.3l0.1,0l0.3,0.2l0.1,0l0.2,0.1l0.3,0l0.2-0.1l0.1,0l0.1-0.1v-0.1l0.2,0l0.2,0.1l0.1,0v-0.1l0,0
	l0.3,0l0.1,0l0.1-0.1l0.2,0l0.6-0.4l0.2,0l0.1-0.2l0.5-0.3l0.1,0l0.1-0.1l0.1,0l0.2,0l0.1,0.1l0.1-0.1h0.3l0.1-0.1l0.2,0.1l0.1-0.1
	h0.5l0.1,0v0.2h0.1l0.2-0.1l0.1-0.1l0.1,0l0.4-0.4l0.4-0.2l0.1-0.1l0.1,0.1h0.2l0.2,0.4l0.1,0.1h0.4l0-0.1h-0.3l-0.2-0.1l-0.2-0.5
	l-0.3-0.3l-0.3-0.3l-0.1-0.3l-0.1,0v-0.1l-0.1-0.1l-0.8,0l-0.1,0.3l-0.1,0l-0.1,0.2l-0.5,0l-0.4-0.4l-0.3-0.2l-0.1-0.1l-0.4-0.2
	l-0.1,0v0.1l-0.4,0l-0.3,0.3h-0.1l0,0.1l-1-0.1l-0.8-0.4l-0.3,0v-0.1l0.1-0.1l-0.2,0l-0.2-0.2l-0.2-0.1l-0.3-0.3l-0.3-0.1l-0.1-0.2
	l-0.2-0.1l0-0.1l-0.3-0.2l-0.1-0.3l-0.2-0.1l0-0.1l-0.2-0.1l0-0.1l-0.2-0.2l-0.3-0.1l-0.1-0.2l-0.3-0.1l-0.1-0.2l-0.3-0.1l-0.1-0.1
	l-0.3-0.1l-0.1-0.1h-0.1l-0.4-0.2l-0.2-0.2l-0.4-0.4h-0.1l-0.1-0.3l-0.3-0.3l-0.3-0.8l-0.1-0.1l-0.1-0.5l-0.1,0l0-0.4l-0.1-0.2v-0.4
	l-0.1-0.1l-0.1-0.7v-0.6l-0.1-0.6l0-0.1l-0.1,0l-0.1-0.4l0.1-0.1h0.3v0h-0.2l0.2-0.1v-0.1l-0.2,0.1l-0.1,0v-0.1h-0.1l0.1,0.1l0,0.1
	l-0.1-0.4l-0.1-0.1v-0.1l0.2,0l0.1-0.1l0-0.1l-0.2,0.1l0.1-0.1v-0.1l-0.2,0.1l0.1-0.1h-0.1l-0.1,0.1l0.1,0.2l-0.1-0.1l-0.2,0
	l-0.1-0.1l-0.1-0.1l-0.3-0.5l-0.1-0.2h-0.1l-0.1-0.2l0.2-0.2l0-0.2l-0.1-0.4L431,285l-0.2-0.5l-0.1-0.1l-0.1-0.7l-0.1-0.2l-0.1-0.3
	h-0.1l-0.1-0.8l-0.1,0V282l0.1-0.1l-0.1-0.6l-0.1-0.1l-0.5-0.1l-0.3-0.5l-0.2-0.1l-0.1-0.1l-0.2-0.1l-0.1-0.2l-0.2-0.1l-0.2-0.2
	l-0.1-0.6l0.2-1.3l0.1,0v-0.1l0.1-0.4l0.3-0.5v-0.1l0.1-0.1l0.1-0.3l0.3-0.4l0-0.2l0.1-0.1l0.3-0.4l0.1-0.3l0.1,0l0.2-0.3l0.1-0.2
	h0.1l0.1-0.1l0.1-0.3l0.2-0.2l0-0.2l0.1,0l0.1-0.4l0.1-0.1l0.2-0.3l0.1-0.4l0.1-0.1l0.1,0v-0.1l0.1,0v-0.1l0.2-0.2l0.2-0.1l0.3-0.6
	l0.1,0l0.2-0.4l0.1-0.1l-0.2-0.2l-0.2-0.1v-0.1h0.2l0.2,0.2l0.1,0l0.1-0.1l0.2-0.1l0.2-0.2l0.3-0.4l0.2,0l0.1-0.1l0-0.2l0.1,0
	l0.1-0.7l-0.1-0.1l-0.1-0.1l0.4-0.2l0-0.2l0.1-0.2l0.1-0.3l0.1-0.1l0.1-0.2l0.1-0.1l0.1-0.2l0.3-0.2l0.3,0l0.1-0.2l0.2,0v-0.2
	l0.1-0.2l0.1-0.2l0.2-0.1v0l-0.3-0.1l-0.1-0.4l0.4-0.2l0.1-0.2l0.1,0l0.1-0.2l0.1-0.1V264l-0.3-0.6l0,0l-0.2,0l-0.1-0.1l-0.1,0.1
	l-0.1,0v-0.1h-0.1l-0.1,0.1l-1.1,0l-0.7-0.2l-0.2-0.1h-0.1l0,0.1l-0.1,0l-0.1-0.1l-0.3,0l-0.5-0.2l-0.2-0.2l-0.2-0.1v0l-0.3-0.2
	l-0.3-0.3l-0.1-0.3l-0.3-0.4l-0.2-0.6l-0.2-0.3l-0.2-0.9v-1.4l0.1-0.4l-0.1-1.3l0.1-0.4l0-0.9l0.1-1.2l0.1-0.2l0.2-1.7l0.1-0.2
	l0-0.6l0.1-0.1l0-1.5l-0.1-0.4l0-0.3l0-0.3l-0.1-0.1l0-0.2l-0.1-0.2l0-0.4l-0.1,0v-0.4l0.3-0.3l0.5-0.2l0.4-0.1h0.2l0,0.1h0.2v0
	l0.6-0.3h0.1l0.1,0.1l0.1,0.5l-0.1,0.2l-0.3,0.2l0.1,0.1l0,0.1l0,0.6l0.1,1.2l0.2,0.3l0.2,0v0.3l0.2,0.2l0.1,0.2l1,0.5l0.1,0.2
	l0.2,0.1l0,0.3l-0.2,0.1l-0.3,0v0.3l0.1,0.3l0,0.2l0.3,0.1h0.2l0.1-0.1l0.3,0l0.2,0.2l0.2,0.5l0.2,0.3l0.2,0.1h0.3l0.1-0.1l0-0.1
	l-0.3,0l-0.2-0.1l-0.1-0.2l-0.1-0.4l-0.1-0.2h-0.1l-0.1-0.1h-0.2l0-0.1l-0.2,0l-0.3-0.1l0.2-0.4h0.1l0.1-0.2l0-0.2l-0.1-0.4
	l-0.2-0.1v-0.1l-0.3-0.2v-0.1l-0.1,0l0-0.1l-0.1-0.1l-0.2-0.2l-0.2-0.4l-0.2-0.2l-0.1-0.8l0.1-0.2l-0.1-0.1l0.1-0.5l-0.1,0l-0.1-0.2
	l0.1-0.8l-0.1-0.1l0.1-0.1l0.5-0.1l0.1-0.1l0.5-0.2l0.1-0.1l0.2,0l0.4-0.3l0.3-0.1l0.3-0.2l0.4-0.1l0.2-0.1l0.4-0.1l0.2-0.2h0.2
	l0.1-0.1l0.2,0l0.3,0l0.4,0.4l0.2,0.1h0.4l0.1,0V245h0.4l0.2-0.1l0-0.1l0.1,0l0.1-0.1l0.1-0.2l-0.1-0.1l0.1-0.3l0.3-0.1l0.2,0.1
	l0.1-0.1l0.1,0l0.1-0.3l0.1-0.1l0.1-0.2l0.1,0l0-0.1l-0.4,0l-0.7-0.4l-0.1-0.6l0.1-0.1l-0.1,0l-0.3-1.1l-0.3-0.3l-0.1-0.2l-0.2-0.2
	l-0.1-0.4l-0.3-0.3l-0.1-0.3l0-0.4l-0.1-0.1l-0.1-0.3l-0.1-0.1l-0.2,0l-0.1-0.1l-0.1-0.1l-0.1-0.1l-0.1-0.2l-0.3-0.3l0.1,0l0.1-0.2
	l0.2,0l0-0.1l-0.1,0l-0.3,0l-0.1,0.2l-0.1,0v-0.1l0.3-0.2l0.1,0l0.1-0.2l0.1,0l0.1-0.1h0.2l0-0.2l-0.1-0.1v-0.1l0.1-0.1l-0.1-0.1
	l0-0.2l0.3,0l0.2-0.1l0.1-0.5l0.1-0.2v-0.3l0.2-0.2l0.1-0.3l0.2,0l0.3-0.2l0.1-0.4l-0.2-0.3l0.1,0l0.1,0.2l0.2,0l0.3,0.1l0.3-0.4
	l0.2,0l0.1,0l0.1,0.1h0.2l0.4-0.2l0.3-0.3l0-0.2l0.3,0v-0.1l0.3-0.1l0.2-0.2l0.1-0.6l0.2-0.4l0-0.3l0.1,0v-0.2l0.1-0.1l0.2,0
	l0.1-0.2l0.1,0l0.3-0.6l0.1-0.4l0-0.2l0.1-0.2v-0.2l0.1,0l0-0.1H444l-0.1,0.3l-0.2,0l-0.3-0.2l0-0.2l-0.1-0.1l-0.4-0.1v-0.2
	l-0.1-0.2l0-0.2l-0.1,0v-0.3l-0.1-0.3v-0.1l0.2-0.2v-0.2l-0.1-0.1l-0.5,0.1l-0.4-0.6v-0.9l-0.1-0.2l-0.1-0.2l-0.2-0.1l-0.1-0.2
	l-0.2,0l-0.1-0.1l-0.5-0.2l-0.1,0l-0.2-0.1l0-0.3l0.2-0.2l-0.2-0.3l0.3-0.2h0.4l0.1-0.2l0.4-0.1l0.1-0.2l0.4-0.2l0.1-0.2h0.6l0-0.2
	l0.1,0v-0.2l0.2-0.1v-0.2l0.3-0.2v-0.2l0.2-0.3l0-0.2l0.1,0l0.2,0l0.3-0.4l0.2,0l0.1-0.2l0.1,0v-0.2l-0.1-0.1l-0.1-0.3l-0.2,0l0-0.2
	l-0.1-0.1l0-0.2l-0.1-0.2l0-0.1l-0.1-0.2l-0.3-0.1H443l0,0.2l0.1,0.2l0.1,0h0.1l0-0.1l0.1,0l0.3,0l-0.1,0.3l-0.2,0.3l0,0.2l0,0.8
	l-0.4,0.1l-0.1,0.2l-0.9,0.4l-0.1,0.2l-0.1,0.5l-0.1,0.2v0.2l-0.1,0.1l-0.1,0l-0.5-0.1l-0.3,0.2l-0.5,0l-0.4,0.2l-0.3,0.2l0.1,0.3
	l-0.1,0.2h-0.1V223l-0.1,0l-0.5,0.2l0,0.1l-0.2,0.1v0.1l-0.2,0.1l0,0.2H438l0,0.2l-0.1,0l-0.1,0.1v0.4l-0.1,0.1l0,0.3l-0.2,0.4
	l0.1,0.3l-0.1,0.1l-0.1,0h-0.1l0,0l0.1,0.1l0.2,0l-0.1,0.1v0.4l-0.3,0.2l-0.2,0.3L437,227l-0.2-0.2l-0.1-0.4l-0.2-0.1l-0.3,0.2
	l-0.1,0l-0.2,0.2l-0.2,0.1l-0.2,0.2h-0.2l-0.5,0.2l-0.5,0l-0.4-0.3l-0.2,0v-0.1l-0.1,0l0-0.2l-0.3,0l-0.1-0.2l-0.1,0l0.1-0.2V226
	l0.2-0.1l0-0.2l-0.1-0.2l0.2-0.3l-0.1-0.4l-0.1,0l0-0.1h-0.1l-0.1-0.1l-0.4-0.5l-0.3-0.2l-0.1-0.2l-0.2-0.1l-0.2-0.2l0-0.1l-0.3-0.2
	l0.2-0.1h0.1l0,0.1l0.2-0.1l0.1-0.3l0.1-0.1l0.2,0l0.1-0.1l0.1-0.1v-0.2l-0.1-0.3l-0.3-0.2l0-0.5l-0.2-0.2l-0.1-0.5l-0.2-0.4
	l-0.1-0.1h-0.2l-0.2,0.2h-0.1l-0.3-0.2l0-0.4l0.2,0l-0.1-0.2l0.4,0l0.1,0l0.2-0.2l0-0.2h0.2v-0.1l-0.1,0l-0.2,0.1l0,0.3l-0.1,0
	l-0.5-0.1l-0.1,0.1l-0.1,0.4l-0.2,0.3v0.3l0.1,0.1l-0.1,0.2v0.3l-0.1,0.1l0.1,0.2l0.3-0.1l0.4,0.2l0.2,0.2l0,0.3l-0.2,0.4l-0.1,0.4
	l-0.2,0.1l-0.1,0.2l-0.2,0l-0.1,0.2l-0.1,0.3l-0.1,0v0.2l0.1,0.1v0.2l-0.2,0.2l-0.1,0.2l0,0.2l-0.2,0.2l0,0.2l0.1,0.1v0.2l0.1,0.2
	v0.2l-0.1,0.1l0,0.4l-0.1,0.1v0.2l-0.3,0l-0.1,0.1l0,0.1l-0.1,0.1l0,0.2l-0.2,0.1l-0.1,0.2l-0.1,0.2l-0.2,0.2l-0.1,0.2l0,0.2
	l-0.2,0.5v0.2l-0.2,0.1l-0.2,0.3l-0.3,0.2l0,0.2l-0.1,0.1v0.4l-0.1,0.2l-0.5,0.3l-0.2,0.2l-0.1,0.4h-0.1l-0.3,0.3l0.1,0.1l-0.1,0.1
	l-0.4,0.3v0l-0.1,0l-0.1,0.2l-0.5,0.3l-0.3,0.3l-0.1,0.2L425,233l-0.1,0.3v0.2l0,0.1l0.1,0.1v0.1l0.3,0.1l0.1,0.2l0.3,0.2h0.2
	l0.2,0.3l0,0.2l-0.1,0v0l-0.3,0l0,0.1h-0.1l-0.1-0.6l-0.5-0.4l-0.1-0.2l0-0.1l-0.1-0.2l-0.1,0l0.1,0.1l-0.1,0.1l0.1,0.3l-0.1,0
	l0-0.1l-0.1,0l0.1-0.2l0.1,0v-0.2l0.1-0.2l0-0.2l-0.6-0.5l-0.1-0.2v-0.1l0.1,0v-0.2l-0.1-0.1v-0.2l-0.3-0.3l-0.4,0l0.1-0.2l-0.2-0.3
	H423l-0.3,0.2l-0.2,0.1v0.1l0.1,0.2l0,0.3l-0.2,0l-0.2,0.2l-0.1,0.4l-0.4-0.1l-0.3-0.5l-0.2-0.1l-0.1-0.2l-0.1-0.3l0-0.4l-0.1,0
	l0-0.2l-0.1-0.2l0-0.2l0.1-0.4l-0.1-0.6l0.1-0.5l0.2-0.7v-0.2l0.1-0.1l0-0.4l0.2-0.3v-0.2l-0.2-0.2l-0.2,0v0.2l-0.2,0l-0.1-0.3
	l-0.2-0.2l-0.2-0.3l0-0.2l0.2-0.2l0.5-0.2l0.5,0l0.1,0.1h0.3l0.3-0.2V225l0.2-0.1l0.1-0.3l0-0.3l-0.1-0.1h-0.1l-0.3-0.2l0.1,0
	l0.2,0.1l0.2,0l0.1-0.4l-0.1-0.1l0-0.2l0.2-0.2l0.2-0.3v-0.2l-0.1-0.1l0-0.2l-0.1-0.1l-0.1-0.2l0.1,0.1h0.1l0.1-0.1l0.1-0.2l0.1-0.7
	l0.1-0.1l0.1-0.2l0.1-0.1l0-0.2l0.1-0.2l0.1-0.3l0.2-0.2l0.1-0.2h-0.1l-0.1,0.2l-0.2,0.2l-0.1,0.2l-0.1,0.1l-0.1,0l0-0.2l-0.2-0.9
	l-0.1-0.2l-0.3-0.3l-0.1-0.2l-0.1,0l0-0.2l0.1-0.1l-0.1-0.3l-0.5-0.4l-0.2,0v-0.2l0.1-0.1l0.1-0.3l-0.1-0.3l-0.1,0l-0.1,0l-0.1,0.3
	l-0.1,0l0.1,0.2l-0.1,0.1l0,0.2l0.1,0v0.1l0.1,0.2l0.3,0.2l-0.1,0.5l-0.1,0v0.1l0.1,0l0,0.4l-0.1,0.2l-0.1,0l0,0.2l-0.1,0.1v0.2
	l-0.2,0.2l0,0.2l-0.1,0.1h-0.1l-0.1,0.1l-0.2,0l-0.1,0.5h-0.1l-0.1,0.1l-0.1,0.2l0,0.1l0.1,0l0.1,0.2h0.1v0.1l-0.1,0.1v0.2l0.3,0.1
	l0.1,0.2l0.1,0.2v0.1l-0.2,0.1l-0.1,0.5l-0.3,0.2l-0.1,0.1l-0.1,0l-0.1,0.1l-0.3,0.1h-0.2l-0.3-0.1l-0.3-0.3l-0.1-0.2l-0.1,0
	l-0.1,0.1l-0.4,0.5l-0.5,0.3l-0.5,0l-0.3-0.1l-0.2-0.1l-0.1-0.1v-0.1l-0.4-0.5l-0.1-0.2l-0.1-0.1l-0.1-0.4l-0.3-0.5l-0.8-1.4
	l-0.1-0.1l-0.3-0.6l-0.3-0.4l-0.3-0.5l-0.1-0.1l-0.1-0.2l-0.2-0.3l-0.2-0.1l-0.3-0.6l-0.1-0.2l-0.1-0.2l0-0.4l-0.1,0l-0.1-0.2
	l-0.1,0l-0.3-0.6l-0.2-0.5l0-0.3l0.1-0.2l-0.1,0l-0.1-0.2l0-0.3l0.1-0.2l0.3-0.2l0-0.6l-0.1-0.6l-0.1,0v-0.4l-0.2-0.3l-0.1-0.4
	l-0.1-0.2l0-0.2v-0.4l0.1-0.2l0-0.5l0.2-0.2l0.2-0.1l0.2-0.5l0.1,0l0,0.1l-0.1,0.2l0,0.4l-0.1,0.3l0.2,0.2l0.3,0.1h0.2l0.4-0.4h0.1
	l0.2-0.2l0-0.2l-0.1,0l-0.1,0.1l0,0.1l-0.3,0.2h-0.1l-0.1,0.1l-0.3,0l-0.2,0v-0.3l0.1-0.1v-0.4l-0.1-0.2l-0.2-0.2l0-0.3l0.1-0.3
	l0.3,0v-0.2l0.1-0.2h-0.1l-0.1,0.2l-0.3,0l0-0.1h-0.1v0.2l0.1,0l0,0.2l0.1,0l-0.1,0.2h-0.1l-0.1-0.2l-0.3,0l-0.1,0.1l-0.1,0.2h-0.1
	l-0.4-0.3v-0.2l0.1-0.2v-0.1l-0.1-0.2l-0.1,0l0,0l0.1,0.2v0.1l-0.1,0v0.3l0.3,0.3l0.4,0.2l0.3,0.2l0,0.3l-0.4,0.3l-0.3,0l-0.1-0.2
	l-0.2-0.1l-0.2-0.4l-0.4-0.4l-0.2-0.4l-0.3-0.4l-0.2-0.4l-0.2-0.3l-0.2-0.8l-0.1-0.1l-0.1-0.3l-0.2-0.2l-0.4-0.7l-0.2-0.2h-0.1
	l-0.4-0.6l-0.1,0l-0.3-0.4v-0.1l-0.3-0.4l-0.1-0.2h-0.1l0.1-0.1l-0.1,0l-0.1-0.1l-0.1-0.3l-0.5-0.5l-0.1-0.2l-0.2-0.2l-0.1-0.3
	l-0.3-0.3l-0.1-0.2l-0.4-0.3l-0.3-0.3l-0.2-0.1l-0.1-0.3l-0.2-0.2l-0.1-0.2l-0.1-0.1l-0.2-0.3l-0.3-0.7l-0.3-0.3l-0.1-0.4l-0.1-0.2
	l-0.1-0.2l-0.1-0.1l-0.1-0.2l-0.4-0.3h-0.1l-0.1,0.1H402l-0.2-0.1l-0.1-0.4l-0.2-0.4l-0.1-0.3l-0.2,0l-0.2-0.2l-0.2-0.8l0.1-0.2
	l0.1-0.1l0.5-0.2l0.3-0.3l0.3-0.2l0.1,0l0.1-0.2l0.1-0.3l0.1-0.1l0.1-0.3l0.1,0l0.1-0.7l0.3-0.6v-0.2l0.1,0l0.1,0.1l0.2,0l0-0.1
	l0.1,0l0.1-0.3l-0.1-0.4l0.3-0.4l0-0.6l0.2-0.1v-0.2l-0.1-0.1l0-0.3l-0.1,0l0.1-0.8l0-0.4l0.2-0.1l0.1-0.2l0.1-0.5l0.1,0l0-0.2
	l0.1,0l0-0.3l0.1-0.1l-0.1-0.2l0.1-0.3v-0.9l-0.1-0.3l-0.1-0.6v-0.9l-0.2-0.7l0.1,0.1l0.1,0.2l0.3,0.1l0.1,0l0-0.3l0.2-0.3v-0.1
	l0.1-0.1l-0.1-0.3l0.3-0.3l0.1-0.2v-0.1l0.2-0.1v-0.2l0.1-0.1l0.1-0.2l0.2-0.1l0.1-0.2l0.2,0l0.2-0.2v-0.2l0.1-0.1l0-0.1l0.3-0.2
	l0.1-0.4l0.2-0.2v-0.2l0.1-0.1v-0.3l0.1-0.2l0-0.2l0.1-0.1v-0.2l0.1-0.1v-0.7l0.1,0l0,0.1h0.3l0-0.1l0.2-0.2l0.2-0.6l0.6-0.3
	l0.4-0.4v-0.1l0.5-0.2l0.1-0.1l0.2,0l0.2-0.3l0.2-0.2l0-0.1h0.1v-0.2l0.3-0.3l0-0.1l0.2-0.2l0.2-0.4l0-0.2l0.1-0.2l0.1-1l0.1-0.1
	l0-0.5l0.1-0.2h-0.1v-0.2l-0.1,0V171l-0.1,0l-0.1-0.4l-0.1-0.2l-0.1-0.8l0.2-0.3l0.2-0.7l0.1-0.2l0.1-0.3l0.1-0.2v-0.2l0.2-0.3l0,0
	l0.1-0.2l0.1-0.5l0.3-0.6l0.2-1.1l0.1-0.1v-0.4l0.1-0.3l0.1,0v-0.2l0.1-0.3l0.2-0.1l0.5-0.6l0.1-0.2l0.2-0.2l0.1-0.3l0.4-0.4v-0.1
	l0.9-0.5l0.1-0.1l0.1,0l0-0.1l0.2,0h0.4l0.1,0.1l-0.5,0.3l0,0.1l0.2,0l0.1,0.3l0.7,0.3l0.3,0l0.3,0.1l0,0.1h0.1l0.4,0.3l0.2,0.1
	l0,0.1l0.1,0l0,0.1l0.1,0.2h0.3l0.1,0.1l0.1,0.1l-0.1,0.2l0.1,0v0.1l0.1,0l0.1-0.2l0-0.2l0.1-0.1l-0.1-0.1l-0.1-0.3l-0.1-0.1
	l0.1-0.4l-0.3-0.1v-0.2l0.1-0.1l0.3,0l0.7,0.2l0.1-0.1l0.3-0.1l0.1-0.2l0.1,0l0.1-0.2l0.3-0.4l0-0.6l0.1-0.1h0.1v0.1l0.1,0h0.6
	l0.1,0.3l0.3,0.2l0.1,0v-0.3l-0.4-0.1l-0.2-0.3l-0.6,0l-0.1-0.1v-0.1h-0.1l0,0.1l-0.6,0.2l-0.2,0.3l-0.3,0.4h-0.7l-0.1,0l0.1-0.1
	l0-0.1l-0.2,0l-0.2,0l-0.1-0.2h-0.2l0-0.2L418,160l-0.1-0.2l0.2-0.7l0.3-0.5l0.3-0.3l0.1-0.2l0.5-0.3l0.5-0.2l0.3,0l0.3-0.2h0.1
	l0.1-0.1l0.1,0l0.5-0.2l0.1-0.2l0.3-0.2l0.1-0.2l0.5,0l0.3-0.2h0.7l0.5,0.3l0.3,0l0.2,0.2l0.1,0.3l0.3,0.3l0.2,0.1l0.3,0l0.1,0.1
	l0.4,0l0.1,0.2l0,0.3h0.1l0,0.1l0.4,0.2l0.1,0.1h0.1l0.2,0.2l0.7-0.1l0.5,0.2l0.2,0l0.3-0.2l0.2-0.3l0.3-0.1l0.5-0.1l0.7-0.3
	l0.2-0.2l0.1-0.4l0.4,0l0,0h0.1l0-0.1h0.1l0.1,0.1l0.3,0l0,0l0.7,0l0.3-0.2l0.3-0.1l-0.1,0L432,157l-0.4,0l-0.2,0l-0.5-0.5l-0.4,0
	l-0.2,0.1l-0.1,0l-0.3-0.3l-0.2,0.1l-0.1,0.2l-0.1,0l-0.2,0.2l-0.2,0l-0.2-0.1v-0.2l-0.1-0.1V156l0.2-0.2l0.5-0.3l0.1-0.2l0.3-0.2
	l0.3-0.4l0.2-0.8l0.3-0.3l0.2,0l0.1,0.1l0.1,0.6l0.1,0.2l0.2,0.1l-0.1,0.2l0.1,0.3l0.3,0l0.7-0.3h-0.2l-0.5,0.2h-0.1l-0.1-0.1
	l0.1-0.5l-0.1-0.2l-0.2,0v-0.4l-0.1,0v-0.1l-0.2-0.1l0,0l0.2-1.5l0.8-1.3l-0.1-3.2l0.9,0l1.9,1.1l1.4,0l1.1-2.8l2.3-0.9l0.7-1.9
	l1.8-1.6l0.8-1.8l2.5-0.6l1.3-0.7l2.4-2.1L449.6,135z M449.6,135l0.4,0.5l1.2,3.8l0.7,1l2.2,0.8l0.5,1.8l1.7,1.2l0.4,0.8l2.2-0.6
	l1,0.7l-0.5,0.7l0.2,0.6l-0.2,0.7l0.7,1.7l-4,2.4l-0.4,0.5l0,1.8l-1.2,1.7l1.4,0.8l0.4,1.8l0.8,1.3l-0.9,0.6l-0.6,2l-1.2,0.9
	l0.3,0.9l1.1,1.3l0.2,1l-0.4,0.9l0.3,1.1l1.5,1.4l1.7,0.2l3.5-2.5l1-1.1l0.6-0.2l2,3.2l2.9,2.4l-1.1,4.9l-1.4,3.2l0.5,0.8l2.8,1.5
	l0.5,0.7l0.1,0.7L470,184l-1,1.1l0.5,2.2l0.6,1.3l3.9,3.2l0.9,1.8l1.5,0.3l0.3,3.7l0.4,1.1l-0.2,1.5l0,0l-0.7-0.3l-1.3,1.2l-2.6-0.1
	l-1.6,1.1l-1,1.6l0.6,2v1l-3.3,2.8l0.3,0.7l1.5,1.1l0.3,0.8l0,2.5l-0.3,1l0.6,1.4l-0.2,1.5l-0.3,0.5l-1,0.2l-1.2-0.8l-1.5,0.8
	l-0.9,1.2l-2.4-0.2l-0.3,1.1l-3,4l-0.4,1l-1.5,0.8l-0.2,2l0.3,1.3l1.3,1.4l2.6,1.5l0.4,0.7l0.1,2.1l0.5,0.6l1.1,0.2l2.4-0.7l1.3,0.3
	l0.3,0.5l0.2,1.3l0.5,0.3l-0.5,1.4l0.6,1l1.8,0.2l0.7,1.6l0.7,0.1l2.4-1.1l0,0.9l0.3,0.4l1.6,0.2l0.6,1l0.2,1.6l3.5,1.9l0.4,2.3
	l1.6,2.2l1.7,1.3l-0.2,1.2l-0.5,0.8l-2.5,1.2l-1.3,1.7l0,3.1l-2,2.6l0.5,1.8l-0.1,0.8l0.5,0.2l0.5,1l0.7-0.1l1,1l0.9-0.2l0.8-0.8
	l1,0l0.1,0.9l0.6,0.9l-0.2,1.4l0.6,0.7l0.4,1.8l1.5,0.3l0.6,1.8l2,2.2l2.1,3l0,0l-0.7,1.1l-0.5,1.7l-0.7,0.4l-1.6,0.1l-0.7,2.2
	l-0.2,2.2l-1.4,1.4l-0.2,0.6l0.1,0.6l1.1,0.5l0.5,0.7l-1.2,2.1l-0.6,0.3l-0.1,0.6l0.9,1.4l0.2,1l0.1,6.1l0.3,1.9l1,1l-0.3,2l0,0
	l-1.5,1.8l-1.3,0.1l-1.9,1.6h-1.7l-1.2-0.8l-0.7,0.1l-0.1,0.3l0.5,1l-0.2,0.6l-1.2,0.2l-4.5,5.4l-1.3,0.5l-1.7-0.1l-1.5,2l-1.5,0.3
	l-0.4,1.3l0.4,3.1l-0.6,0.9l-2.3,0.9l-0.4,1.2l-1,0.7l-1.5,0.2l-1.7-0.6l-0.7,1.2l-1.6-0.8l-1,0.2l-0.6-2l-1.7-0.8l-5.4,1.6l0,0
	l-2.4-1.6l-2,0.1l-0.8-1.5l-1.7-1.7l0.2-0.9l-0.4-1.8l-1.6-4l0.1-0.3l-2.3-1.8l-1.1-1.9l0.1-0.4l2.5-1.7l-0.2-1.3l-2.2-2.5l-2.4-2
	l-1.8-1l-2.2,0l-0.4-0.8l-0.2,0.3l0,0l-0.1-0.1l0.1,0V304l-0.2,0.1V304l-0.1-0.1l0-0.1h-0.1l-0.1-0.1l-0.1-0.6l0.5,0l0.1,0.2h0.1
	l-0.1-0.2l0.3,0l0-0.1l-0.3,0l-0.1-0.1l-0.2,0l-0.1,0l-0.1-0.1l0.2-0.1l0.1-0.1l0.1,0l0.2,0.2h0.1l0-0.1l-0.1,0v-0.1l0.1-0.2
	l0.2,0.1l0.3,0l0,0l0.1,0v-0.1l-0.1,0l-0.1,0.1l-0.6-0.1l-0.2,0.1l0.1-0.1l-0.1-0.1l0.2-0.1l0.1,0l0-0.1l-0.3,0l-0.1,0.2l-0.2,0
	l-0.1-0.1l-0.2,0l0-0.1l0.1,0v0h0.1l0.1-0.1l-0.2,0.1l-0.1,0l0-0.1l-0.1,0.1l-0.2-0.1l0-0.2l-0.1-0.1v-0.2h0.5l0.1,0V301l-0.3,0
	l0.1-0.2l-0.3,0.1l-0.2-0.3l-0.1-0.2v-0.1l0.1-0.1l-0.3-0.1v-0.3l-0.1-0.1l-0.1-0.2l0-0.4L427,299l-0.1-0.1l0-0.6l-0.2-0.1l0.2,0
	l0.1,0.1h0.1v-0.1l-0.3-0.3l-0.1,0l-0.7-1l-0.2-0.1l-0.3-0.3l-0.2,0l-0.4-0.5l-0.1-0.1l-0.1-0.2l-0.1-0.4l-0.1-0.2l-0.3-0.2
	l-0.1-0.2l-0.2-0.2l0-0.2l-0.1,0v-0.2l-0.1-0.1l-0.1-0.6l-0.1-0.1v-0.1l-0.1-0.1l0-0.1l0.2,0l0.4-0.3l0.1-0.2h0.1l0.3-0.4v-0.1
	l0.3-0.1l0.2-0.2h0.1l0.3-0.2h0.1l0.2-0.2l0.3-0.1l0.1-0.1l0.3-0.1l0.2-0.1l0.2,0l0.2-0.2l0.4,0l0.4-0.3l0.2,0l0.2-0.2h0.2l0.2-0.1
	l0.2-0.2l0.1,0l0.2-0.3l0.3,0l-0.1-0.1l0.2-0.1l0.3-0.3l0.7-0.1l0.1-0.1l0.5-0.2l0.2-0.1h0.3l0.1,0.1l0.1,0.2l0.1,0v0.3l0.1,0.2
	l0,0.2l0.1,0.1l0.1,0.5l0.1,0.2l0,0.1l0.3,0.3v0.1l0.1,0l0.1,0.3l0.1,0v0.5l-0.4,0.2l-0.1-0.1l-0.1,0l-0.3-0.2l-0.6,0.1l-0.1-0.1
	l0-0.1H431l-0.1-0.1h-0.1l0.1,0.2l0.3,0.2h0.3l0.1-0.1l0.3,0l0.3,0.1l0.1,0.2h0.1v0.1l0.1,0.1h0.1v-0.1l0.1,0h0.2v0.2l0.1,0.1
	l-0.1,0.5l0.2,0.7l0.1,0.1l0.1,0.3l0.2,0l0,0.2l-0.1,0v0.3l0.1,0.1l0.2,0.1l0.1,0.3l0.2,0.1l0,0.1l0.1,0l0.1-0.2l0.1,0.2l0.1,0.1
	l0,0.1l0.1,0.1l0.3,0.2l0,0.1l0.1,0.1v0.1l0.3,0.4l0,0.1l0.1,0.1v0.1l0.1,0.1v0.1l0.1,0.2l0.1,0.1l0,0.2l0.1,0.2v0.1l0.1,0.1
	l0.1,0.3l0.4,0.3l0.1,0.4l0.1,0l0,0.2l0.2,0.2l0.1,0.2l0.2,0.1v0.1l0.2,0.1l0.1,0.1l0.2,0.1l0.3,0l0.1,0.1l0.1,0l0.1,0l0.1,0.1
	l0.1,0l0,0.1l0.2,0l0.5,0.4l0.2,0.3l0.1,0l0.3,0.2l0.1,0l0.2,0.1l0.3,0l0.2-0.1l0.1,0l0.1-0.1v-0.1l0.2,0l0.2,0.1l0.1,0v-0.1l0,0
	l0.3,0l0.1,0l0.1-0.1l0.2,0l0.6-0.4l0.2,0l0.1-0.2l0.5-0.3l0.1,0l0.1-0.1l0.1,0l0.2,0l0.1,0.1l0.1-0.1h0.3l0.1-0.1l0.2,0.1l0.1-0.1
	h0.5l0.1,0v0.2h0.1l0.2-0.1l0.1-0.1l0.1,0l0.4-0.4l0.4-0.2l0.1-0.1l0.1,0.1h0.2l0.2,0.4l0.1,0.1h0.4l0-0.1h-0.3l-0.2-0.1l-0.2-0.5
	l-0.3-0.3l-0.3-0.3l-0.1-0.3l-0.1,0v-0.1l-0.1-0.1l-0.8,0l-0.1,0.3l-0.1,0l-0.1,0.2l-0.5,0l-0.4-0.4l-0.3-0.2l-0.1-0.1l-0.4-0.2
	l-0.1,0v0.1l-0.4,0l-0.3,0.3h-0.1l0,0.1l-1-0.1l-0.8-0.4l-0.3,0v-0.1l0.1-0.1l-0.2,0l-0.2-0.2l-0.2-0.1l-0.3-0.3l-0.3-0.1l-0.1-0.2
	l-0.2-0.1l0-0.1l-0.3-0.2l-0.1-0.3l-0.2-0.1l0-0.1l-0.2-0.1l0-0.1l-0.2-0.2l-0.3-0.1l-0.1-0.2l-0.3-0.1l-0.1-0.2l-0.3-0.1l-0.1-0.1
	l-0.3-0.1l-0.1-0.1h-0.1l-0.4-0.2l-0.2-0.2l-0.4-0.4h-0.1l-0.1-0.3l-0.3-0.3l-0.3-0.8l-0.1-0.1l-0.1-0.5l-0.1,0l0-0.4l-0.1-0.2v-0.4
	l-0.1-0.1l-0.1-0.7v-0.6l-0.1-0.6l0-0.1l-0.1,0l-0.1-0.4l0.1-0.1h0.3v0h-0.2l0.2-0.1v-0.1l-0.2,0.1l-0.1,0v-0.1h-0.1l0.1,0.1l0,0.1
	l-0.1-0.4l-0.1-0.1v-0.1l0.2,0l0.1-0.1l0-0.1l-0.2,0.1l0.1-0.1v-0.1l-0.2,0.1l0.1-0.1h-0.1l-0.1,0.1l0.1,0.2l-0.1-0.1l-0.2,0
	l-0.1-0.1l-0.1-0.1l-0.3-0.5l-0.1-0.2h-0.1l-0.1-0.2l0.2-0.2l0-0.2l-0.1-0.4L431,285l-0.2-0.5l-0.1-0.1l-0.1-0.7l-0.1-0.2l-0.1-0.3
	h-0.1l-0.1-0.8l-0.1,0V282l0.1-0.1l-0.1-0.6l-0.1-0.1l-0.5-0.1l-0.3-0.5l-0.2-0.1l-0.1-0.1l-0.2-0.1l-0.1-0.2l-0.2-0.1l-0.2-0.2
	l-0.1-0.6l0.2-1.3l0.1,0v-0.1l0.1-0.4l0.3-0.5v-0.1l0.1-0.1l0.1-0.3l0.3-0.4l0-0.2l0.1-0.1l0.3-0.4l0.1-0.3l0.1,0l0.2-0.3l0.1-0.2
	h0.1l0.1-0.1l0.1-0.3l0.2-0.2l0-0.2l0.1,0l0.1-0.4l0.1-0.1l0.2-0.3l0.1-0.4l0.1-0.1l0.1,0v-0.1l0.1,0v-0.1l0.2-0.2l0.2-0.1l0.3-0.6
	l0.1,0l0.2-0.4l0.1-0.1l-0.2-0.2l-0.2-0.1v-0.1h0.2l0.2,0.2l0.1,0l0.1-0.1l0.2-0.1l0.2-0.2l0.3-0.4l0.2,0l0.1-0.1l0-0.2l0.1,0
	l0.1-0.7l-0.1-0.1l-0.1-0.1l0.4-0.2l0-0.2l0.1-0.2l0.1-0.3l0.1-0.1l0.1-0.2l0.1-0.1l0.1-0.2l0.3-0.2l0.3,0l0.1-0.2l0.2,0v-0.2
	l0.1-0.2l0.1-0.2l0.2-0.1v0l-0.3-0.1l-0.1-0.4l0.4-0.2l0.1-0.2l0.1,0l0.1-0.2l0.1-0.1V264l-0.3-0.6l0,0l-0.2,0l-0.1-0.1l-0.1,0.1
	l-0.1,0v-0.1h-0.1l-0.1,0.1l-1.1,0l-0.7-0.2l-0.2-0.1h-0.1l0,0.1l-0.1,0l-0.1-0.1l-0.3,0l-0.5-0.2l-0.2-0.2l-0.2-0.1v0l-0.3-0.2
	l-0.3-0.3l-0.1-0.3l-0.3-0.4l-0.2-0.6l-0.2-0.3l-0.2-0.9v-1.4l0.1-0.4l-0.1-1.3l0.1-0.4l0-0.9l0.1-1.2l0.1-0.2l0.2-1.7l0.1-0.2
	l0-0.6l0.1-0.1l0-1.5l-0.1-0.4l0-0.3l0-0.3l-0.1-0.1l0-0.2l-0.1-0.2l0-0.4l-0.1,0v-0.4l0.3-0.3l0.5-0.2l0.4-0.1h0.2l0,0.1h0.2v0
	l0.6-0.3h0.1l0.1,0.1l0.1,0.5l-0.1,0.2l-0.3,0.2l0.1,0.1l0,0.1l0,0.6l0.1,1.2l0.2,0.3l0.2,0v0.3l0.2,0.2l0.1,0.2l1,0.5l0.1,0.2
	l0.2,0.1l0,0.3l-0.2,0.1l-0.3,0v0.3l0.1,0.3l0,0.2l0.3,0.1h0.2l0.1-0.1l0.3,0l0.2,0.2l0.2,0.5l0.2,0.3l0.2,0.1h0.3l0.1-0.1l0-0.1
	l-0.3,0l-0.2-0.1l-0.1-0.2l-0.1-0.4l-0.1-0.2h-0.1l-0.1-0.1h-0.2l0-0.1l-0.2,0l-0.3-0.1l0.2-0.4h0.1l0.1-0.2l0-0.2l-0.1-0.4
	l-0.2-0.1v-0.1l-0.3-0.2v-0.1l-0.1,0l0-0.1l-0.1-0.1l-0.2-0.2l-0.2-0.4l-0.2-0.2l-0.1-0.8l0.1-0.2l-0.1-0.1l0.1-0.5l-0.1,0l-0.1-0.2
	l0.1-0.8l-0.1-0.1l0.1-0.1l0.5-0.1l0.1-0.1l0.5-0.2l0.1-0.1l0.2,0l0.4-0.3l0.3-0.1l0.3-0.2l0.4-0.1l0.2-0.1l0.4-0.1l0.2-0.2h0.2
	l0.1-0.1l0.2,0l0.3,0l0.4,0.4l0.2,0.1h0.4l0.1,0V245h0.4l0.2-0.1l0-0.1l0.1,0l0.1-0.1l0.1-0.2l-0.1-0.1l0.1-0.3l0.3-0.1l0.2,0.1
	l0.1-0.1l0.1,0l0.1-0.3l0.1-0.1l0.1-0.2l0.1,0l0-0.1l-0.4,0l-0.7-0.4l-0.1-0.6l0.1-0.1l-0.1,0l-0.3-1.1l-0.3-0.3l-0.1-0.2l-0.2-0.2
	l-0.1-0.4l-0.3-0.3l-0.1-0.3l0-0.4l-0.1-0.1l-0.1-0.3l-0.1-0.1l-0.2,0l-0.1-0.1l-0.1-0.1l-0.1-0.1l-0.1-0.2l-0.3-0.3l0.1,0l0.1-0.2
	l0.2,0l0-0.1l-0.1,0l-0.3,0l-0.1,0.2l-0.1,0v-0.1l0.3-0.2l0.1,0l0.1-0.2l0.1,0l0.1-0.1h0.2l0-0.2l-0.1-0.1v-0.1l0.1-0.1l-0.1-0.1
	l0-0.2l0.3,0l0.2-0.1l0.1-0.5l0.1-0.2v-0.3l0.2-0.2l0.1-0.3l0.2,0l0.3-0.2l0.1-0.4l-0.2-0.3l0.1,0l0.1,0.2l0.2,0l0.3,0.1l0.3-0.4
	l0.2,0l0.1,0l0.1,0.1h0.2l0.4-0.2l0.3-0.3l0-0.2l0.3,0v-0.1l0.3-0.1l0.2-0.2l0.1-0.6l0.2-0.4l0-0.3l0.1,0v-0.2l0.1-0.1l0.2,0
	l0.1-0.2l0.1,0l0.3-0.6l0.1-0.4l0-0.2l0.1-0.2v-0.2l0.1,0l0-0.1H444l-0.1,0.3l-0.2,0l-0.3-0.2l0-0.2l-0.1-0.1l-0.4-0.1v-0.2
	l-0.1-0.2l0-0.2l-0.1,0v-0.3l-0.1-0.3v-0.1l0.2-0.2v-0.2l-0.1-0.1l-0.5,0.1l-0.4-0.6v-0.9l-0.1-0.2l-0.1-0.2l-0.2-0.1l-0.1-0.2
	l-0.2,0l-0.1-0.1l-0.5-0.2l-0.1,0l-0.2-0.1l0-0.3l0.2-0.2l-0.2-0.3l0.3-0.2h0.4l0.1-0.2l0.4-0.1l0.1-0.2l0.4-0.2l0.1-0.2h0.6l0-0.2
	l0.1,0v-0.2l0.2-0.1v-0.2l0.3-0.2v-0.2l0.2-0.3l0-0.2l0.1,0l0.2,0l0.3-0.4l0.2,0l0.1-0.2l0.1,0v-0.2l-0.1-0.1l-0.1-0.3l-0.2,0l0-0.2
	l-0.1-0.1l0-0.2l-0.1-0.2l0-0.1l-0.1-0.2l-0.3-0.1H443l0,0.2l0.1,0.2l0.1,0h0.1l0-0.1l0.1,0l0.3,0l-0.1,0.3l-0.2,0.3l0,0.2l0,0.8
	l-0.4,0.1l-0.1,0.2l-0.9,0.4l-0.1,0.2l-0.1,0.5l-0.1,0.2v0.2l-0.1,0.1l-0.1,0l-0.5-0.1l-0.3,0.2l-0.5,0l-0.4,0.2l-0.3,0.2l0.1,0.3
	l-0.1,0.2h-0.1V223l-0.1,0l-0.5,0.2l0,0.1l-0.2,0.1v0.1l-0.2,0.1l0,0.2H438l0,0.2l-0.1,0l-0.1,0.1v0.4l-0.1,0.1l0,0.3l-0.2,0.4
	l0.1,0.3l-0.1,0.1l-0.1,0h-0.1l0,0l0.1,0.1l0.2,0l-0.1,0.1v0.4l-0.3,0.2l-0.2,0.3L437,227l-0.2-0.2l-0.1-0.4l-0.2-0.1l-0.3,0.2
	l-0.1,0l-0.2,0.2l-0.2,0.1l-0.2,0.2h-0.2l-0.5,0.2l-0.5,0l-0.4-0.3l-0.2,0v-0.1l-0.1,0l0-0.2l-0.3,0l-0.1-0.2l-0.1,0l0.1-0.2V226
	l0.2-0.1l0-0.2l-0.1-0.2l0.2-0.3l-0.1-0.4l-0.1,0l0-0.1h-0.1l-0.1-0.1l-0.4-0.5l-0.3-0.2l-0.1-0.2l-0.2-0.1l-0.2-0.2l0-0.1l-0.3-0.2
	l0.2-0.1h0.1l0,0.1l0.2-0.1l0.1-0.3l0.1-0.1l0.2,0l0.1-0.1l0.1-0.1v-0.2l-0.1-0.3l-0.3-0.2l0-0.5l-0.2-0.2l-0.1-0.5l-0.2-0.4
	l-0.1-0.1h-0.2l-0.2,0.2h-0.1l-0.3-0.2l0-0.4l0.2,0l-0.1-0.2l0.4,0l0.1,0l0.2-0.2l0-0.2h0.2v-0.1l-0.1,0l-0.2,0.1l0,0.3l-0.1,0
	l-0.5-0.1l-0.1,0.1l-0.1,0.4l-0.2,0.3v0.3l0.1,0.1l-0.1,0.2v0.3l-0.1,0.1l0.1,0.2l0.3-0.1l0.4,0.2l0.2,0.2l0,0.3l-0.2,0.4l-0.1,0.4
	l-0.2,0.1l-0.1,0.2l-0.2,0l-0.1,0.2l-0.1,0.3l-0.1,0v0.2l0.1,0.1v0.2l-0.2,0.2l-0.1,0.2l0,0.2l-0.2,0.2l0,0.2l0.1,0.1v0.2l0.1,0.2
	v0.2l-0.1,0.1l0,0.4l-0.1,0.1v0.2l-0.3,0l-0.1,0.1l0,0.1l-0.1,0.1l0,0.2l-0.2,0.1l-0.1,0.2l-0.1,0.2l-0.2,0.2l-0.1,0.2l0,0.2
	l-0.2,0.5v0.2l-0.2,0.1l-0.2,0.3l-0.3,0.2l0,0.2l-0.1,0.1v0.4l-0.1,0.2l-0.5,0.3l-0.2,0.2l-0.1,0.4h-0.1l-0.3,0.3l0.1,0.1l-0.1,0.1
	l-0.4,0.3v0l-0.1,0l-0.1,0.2l-0.5,0.3l-0.3,0.3l-0.1,0.2L425,233l-0.1,0.3v0.2l0,0.1l0.1,0.1v0.1l0.3,0.1l0.1,0.2l0.3,0.2h0.2
	l0.2,0.3l0,0.2l-0.1,0v0l-0.3,0l0,0.1h-0.1l-0.1-0.6l-0.5-0.4l-0.1-0.2l0-0.1l-0.1-0.2l-0.1,0l0.1,0.1l-0.1,0.1l0.1,0.3l-0.1,0
	l0-0.1l-0.1,0l0.1-0.2l0.1,0v-0.2l0.1-0.2l0-0.2l-0.6-0.5l-0.1-0.2v-0.1l0.1,0v-0.2l-0.1-0.1v-0.2l-0.3-0.3l-0.4,0l0.1-0.2l-0.2-0.3
	H423l-0.3,0.2l-0.2,0.1v0.1l0.1,0.2l0,0.3l-0.2,0l-0.2,0.2l-0.1,0.4l-0.4-0.1l-0.3-0.5l-0.2-0.1l-0.1-0.2l-0.1-0.3l0-0.4l-0.1,0
	l0-0.2l-0.1-0.2l0-0.2l0.1-0.4l-0.1-0.6l0.1-0.5l0.2-0.7v-0.2l0.1-0.1l0-0.4l0.2-0.3v-0.2l-0.2-0.2l-0.2,0v0.2l-0.2,0l-0.1-0.3
	l-0.2-0.2l-0.2-0.3l0-0.2l0.2-0.2l0.5-0.2l0.5,0l0.1,0.1h0.3l0.3-0.2V225l0.2-0.1l0.1-0.3l0-0.3l-0.1-0.1h-0.1l-0.3-0.2l0.1,0
	l0.2,0.1l0.2,0l0.1-0.4l-0.1-0.1l0-0.2l0.2-0.2l0.2-0.3v-0.2l-0.1-0.1l0-0.2l-0.1-0.1l-0.1-0.2l0.1,0.1h0.1l0.1-0.1l0.1-0.2l0.1-0.7
	l0.1-0.1l0.1-0.2l0.1-0.1l0-0.2l0.1-0.2l0.1-0.3l0.2-0.2l0.1-0.2h-0.1l-0.1,0.2l-0.2,0.2l-0.1,0.2l-0.1,0.1l-0.1,0l0-0.2l-0.2-0.9
	l-0.1-0.2l-0.3-0.3l-0.1-0.2l-0.1,0l0-0.2l0.1-0.1l-0.1-0.3l-0.5-0.4l-0.2,0v-0.2l0.1-0.1l0.1-0.3l-0.1-0.3l-0.1,0l-0.1,0l-0.1,0.3
	l-0.1,0l0.1,0.2l-0.1,0.1l0,0.2l0.1,0v0.1l0.1,0.2l0.3,0.2l-0.1,0.5l-0.1,0v0.1l0.1,0l0,0.4l-0.1,0.2l-0.1,0l0,0.2l-0.1,0.1v0.2
	l-0.2,0.2l0,0.2l-0.1,0.1h-0.1l-0.1,0.1l-0.2,0l-0.1,0.5h-0.1l-0.1,0.1l-0.1,0.2l0,0.1l0.1,0l0.1,0.2h0.1v0.1l-0.1,0.1v0.2l0.3,0.1
	l0.1,0.2l0.1,0.2v0.1l-0.2,0.1l-0.1,0.5l-0.3,0.2l-0.1,0.1l-0.1,0l-0.1,0.1l-0.3,0.1h-0.2l-0.3-0.1l-0.3-0.3l-0.1-0.2l-0.1,0
	l-0.1,0.1l-0.4,0.5l-0.5,0.3l-0.5,0l-0.3-0.1l-0.2-0.1l-0.1-0.1v-0.1l-0.4-0.5l-0.1-0.2l-0.1-0.1l-0.1-0.4l-0.3-0.5l-0.8-1.4
	l-0.1-0.1l-0.3-0.6l-0.3-0.4l-0.3-0.5l-0.1-0.1l-0.1-0.2l-0.2-0.3l-0.2-0.1l-0.3-0.6l-0.1-0.2l-0.1-0.2l0-0.4l-0.1,0l-0.1-0.2
	l-0.1,0l-0.3-0.6l-0.2-0.5l0-0.3l0.1-0.2l-0.1,0l-0.1-0.2l0-0.3l0.1-0.2l0.3-0.2l0-0.6l-0.1-0.6l-0.1,0v-0.4l-0.2-0.3l-0.1-0.4
	l-0.1-0.2l0-0.2v-0.4l0.1-0.2l0-0.5l0.2-0.2l0.2-0.1l0.2-0.5l0.1,0l0,0.1l-0.1,0.2l0,0.4l-0.1,0.3l0.2,0.2l0.3,0.1h0.2l0.4-0.4h0.1
	l0.2-0.2l0-0.2l-0.1,0l-0.1,0.1l0,0.1l-0.3,0.2h-0.1l-0.1,0.1l-0.3,0l-0.2,0v-0.3l0.1-0.1v-0.4l-0.1-0.2l-0.2-0.2l0-0.3l0.1-0.3
	l0.3,0v-0.2l0.1-0.2h-0.1l-0.1,0.2l-0.3,0l0-0.1h-0.1v0.2l0.1,0l0,0.2l0.1,0l-0.1,0.2h-0.1l-0.1-0.2l-0.3,0l-0.1,0.1l-0.1,0.2h-0.1
	l-0.4-0.3v-0.2l0.1-0.2v-0.1l-0.1-0.2l-0.1,0l0,0l0.1,0.2v0.1l-0.1,0v0.3l0.3,0.3l0.4,0.2l0.3,0.2l0,0.3l-0.4,0.3l-0.3,0l-0.1-0.2
	l-0.2-0.1l-0.2-0.4l-0.4-0.4l-0.2-0.4l-0.3-0.4l-0.2-0.4l-0.2-0.3l-0.2-0.8l-0.1-0.1l-0.1-0.3l-0.2-0.2l-0.4-0.7l-0.2-0.2h-0.1
	l-0.4-0.6l-0.1,0l-0.3-0.4v-0.1l-0.3-0.4l-0.1-0.2h-0.1l0.1-0.1l-0.1,0l-0.1-0.1l-0.1-0.3l-0.5-0.5l-0.1-0.2l-0.2-0.2l-0.1-0.3
	l-0.3-0.3l-0.1-0.2l-0.4-0.3l-0.3-0.3l-0.2-0.1l-0.1-0.3l-0.2-0.2l-0.1-0.2l-0.1-0.1l-0.2-0.3l-0.3-0.7l-0.3-0.3l-0.1-0.4l-0.1-0.2
	l-0.1-0.2l-0.1-0.1l-0.1-0.2l-0.4-0.3h-0.1l-0.1,0.1H402l-0.2-0.1l-0.1-0.4l-0.2-0.4l-0.1-0.3l-0.2,0l-0.2-0.2l-0.2-0.8l0.1-0.2
	l0.1-0.1l0.5-0.2l0.3-0.3l0.3-0.2l0.1,0l0.1-0.2l0.1-0.3l0.1-0.1l0.1-0.3l0.1,0l0.1-0.7l0.3-0.6v-0.2l0.1,0l0.1,0.1l0.2,0l0-0.1
	l0.1,0l0.1-0.3l-0.1-0.4l0.3-0.4l0-0.6l0.2-0.1v-0.2l-0.1-0.1l0-0.3l-0.1,0l0.1-0.8l0-0.4l0.2-0.1l0.1-0.2l0.1-0.5l0.1,0l0-0.2
	l0.1,0l0-0.3l0.1-0.1l-0.1-0.2l0.1-0.3v-0.9l-0.1-0.3l-0.1-0.6v-0.9l-0.2-0.7l0.1,0.1l0.1,0.2l0.3,0.1l0.1,0l0-0.3l0.2-0.3v-0.1
	l0.1-0.1l-0.1-0.3l0.3-0.3l0.1-0.2v-0.1l0.2-0.1v-0.2l0.1-0.1l0.1-0.2l0.2-0.1l0.1-0.2l0.2,0l0.2-0.2v-0.2l0.1-0.1l0-0.1l0.3-0.2
	l0.1-0.4l0.2-0.2v-0.2l0.1-0.1v-0.3l0.1-0.2l0-0.2l0.1-0.1v-0.2l0.1-0.1v-0.7l0.1,0l0,0.1h0.3l0-0.1l0.2-0.2l0.2-0.6l0.6-0.3
	l0.4-0.4v-0.1l0.5-0.2l0.1-0.1l0.2,0l0.2-0.3l0.2-0.2l0-0.1h0.1v-0.2l0.3-0.3l0-0.1l0.2-0.2l0.2-0.4l0-0.2l0.1-0.2l0.1-1l0.1-0.1
	l0-0.5l0.1-0.2h-0.1v-0.2l-0.1,0V171l-0.1,0l-0.1-0.4l-0.1-0.2l-0.1-0.8l0.2-0.3l0.2-0.7l0.1-0.2l0.1-0.3l0.1-0.2v-0.2l0.2-0.3l0,0
	l0.1-0.2l0.1-0.5l0.3-0.6l0.2-1.1l0.1-0.1v-0.4l0.1-0.3l0.1,0v-0.2l0.1-0.3l0.2-0.1l0.5-0.6l0.1-0.2l0.2-0.2l0.1-0.3l0.4-0.4v-0.1
	l0.9-0.5l0.1-0.1l0.1,0l0-0.1l0.2,0h0.4l0.1,0.1l-0.5,0.3l0,0.1l0.2,0l0.1,0.3l0.7,0.3l0.3,0l0.3,0.1l0,0.1h0.1l0.4,0.3l0.2,0.1
	l0,0.1l0.1,0l0,0.1l0.1,0.2h0.3l0.1,0.1l0.1,0.1l-0.1,0.2l0.1,0v0.1l0.1,0l0.1-0.2l0-0.2l0.1-0.1l-0.1-0.1l-0.1-0.3l-0.1-0.1
	l0.1-0.4l-0.3-0.1v-0.2l0.1-0.1l0.3,0l0.7,0.2l0.1-0.1l0.3-0.1l0.1-0.2l0.1,0l0.1-0.2l0.3-0.4l0-0.6l0.1-0.1h0.1v0.1l0.1,0h0.6
	l0.1,0.3l0.3,0.2l0.1,0v-0.3l-0.4-0.1l-0.2-0.3l-0.6,0l-0.1-0.1v-0.1h-0.1l0,0.1l-0.6,0.2l-0.2,0.3l-0.3,0.4h-0.7l-0.1,0l0.1-0.1
	l0-0.1l-0.2,0l-0.2,0l-0.1-0.2h-0.2l0-0.2L418,160l-0.1-0.2l0.2-0.7l0.3-0.5l0.3-0.3l0.1-0.2l0.5-0.3l0.5-0.2l0.3,0l0.3-0.2h0.1
	l0.1-0.1l0.1,0l0.5-0.2l0.1-0.2l0.3-0.2l0.1-0.2l0.5,0l0.3-0.2h0.7l0.5,0.3l0.3,0l0.2,0.2l0.1,0.3l0.3,0.3l0.2,0.1l0.3,0l0.1,0.1
	l0.4,0l0.1,0.2l0,0.3h0.1l0,0.1l0.4,0.2l0.1,0.1h0.1l0.2,0.2l0.7-0.1l0.5,0.2l0.2,0l0.3-0.2l0.2-0.3l0.3-0.1l0.5-0.1l0.7-0.3
	l0.2-0.2l0.1-0.4l0.4,0l0,0h0.1l0-0.1h0.1l0.1,0.1l0.3,0l0,0l0.7,0l0.3-0.2l0.3-0.1l-0.1,0L432,157l-0.4,0l-0.2,0l-0.5-0.5l-0.4,0
	l-0.2,0.1l-0.1,0l-0.3-0.3l-0.2,0.1l-0.1,0.2l-0.1,0l-0.2,0.2l-0.2,0l-0.2-0.1v-0.2l-0.1-0.1V156l0.2-0.2l0.5-0.3l0.1-0.2l0.3-0.2
	l0.3-0.4l0.2-0.8l0.3-0.3l0.2,0l0.1,0.1l0.1,0.6l0.1,0.2l0.2,0.1l-0.1,0.2l0.1,0.3l0.3,0l0.7-0.3h-0.2l-0.5,0.2h-0.1l-0.1-0.1
	l0.1-0.5l-0.1-0.2l-0.2,0v-0.4l-0.1,0v-0.1l-0.2-0.1l0,0l0.2-1.5l0.8-1.3l-0.1-3.2l0.9,0l1.9,1.1l1.4,0l1.1-2.8l2.3-0.9l0.7-1.9
	l1.8-1.6l0.8-1.8l2.5-0.6l1.3-0.7l2.4-2.1L449.6,135z"/>
</svg>
