
<svg xmlns:svg="http://www.w3.org/2000/svg" xmlns="http://www.w3.org/2000/svg" version="1.1" viewBox="0 0 1080 1290" >
    <defs>
        <style>
            path:hover {
                fill: red;
            }
            path {
                fill: #c5e39d;
                stroke-width: 1;
                stroke: #a6d567;
            }
        </style>
    </defs>

  <g
     transform="matrix(1,0,0,1.63,-0.65361936,0)"
     id="Districts">
    <path
       d="m 783.65362,49.67408 c -11.75252,0.358914 -22.70713,3.147244 -31.6875,5.272239 -4.56914,0.917038 -11.63083,5.429267 -14.875,1.687116 -9.4052,1.610908 -20.77816,3.346965 -23.28125,8.148006 -10.34947,4.83127 -21.76492,7.854381 -33.37505,9.854295 -5.46111,-0.945503 -12.07743,-0.96673 -19.90625,-0.249233 -8.00464,-0.622841 -21.21718,-0.09845 -24.25,-5.042178 0.10164,-6.080951 -12.12332,-2.782675 -14.4062,-7.189417 -3.46687,-1.269256 -13.63982,3.723699 -18.96875,-0.249233 -0.55012,-2.873794 -2.90732,-3.872233 -8.15625,-4.313651 -3.17808,-1.200874 -13.58054,-1.850207 -10.0625,2.875767 6.01687,0.896473 1.4247,5.020203 4.5625,4.792945 -2.30324,1.303147 1.32012,2.699362 -2.65625,4.562883 -0.65458,0.09171 -6.41202,0.476154 -1.4375,2.396473 4.28927,-0.537172 10.47683,-1.699921 11.75,-0.958589 2.69249,2.992797 8.88691,6.045987 5.78125,6.959356 -3.57052,-3.469553 -5.91856,-8.250473 -14.65625,-6.000767 2.40835,1.598221 1.10219,3.084276 -4.78125,2.645705 -2.11163,0.190473 -3.73588,1.669767 -7.46875,2.645706 -6.6434,4.661086 -18.15391,6.632061 -27.34375,7.43865 -4.42992,0.726564 -10.25599,-4.122681 -15.375,-3.125 -6.89982,-0.653288 4.42765,7.689031 6,9.835123 3.66535,-2.155497 5.80659,2.849129 7.9375,4.31365 9.04869,2.528337 23.06272,6.450874 14.15625,12.730064 -11.37565,1.49066 -3.71191,14.49328 -16.8125,15.35659 -3.30852,1.32828 -14.23112,9.47598 -9.125,11.04295 3.14294,-0.71089 10.26287,-1.01485 4.34375,0.47929 -3.99641,0.14855 -7.47132,-0.56256 -8.15625,3.10583 -3.58856,1.88758 -1.66711,6.14309 3.34375,3.85353 1.63361,0.9753 -0.19323,5.71437 3.59375,6.00076 2.60563,2.17012 9.11059,-0.39854 5.28125,3.83436 9.7493,2.06907 1.97586,7.09605 -0.71875,10.54448 -2.47975,3.97612 2.11565,7 0,10.81288 10.70879,5.3429 16.61297,-1.19779 27.59375,-1.43788 5.86362,-1.87083 8.27081,3.45794 9.625,4.06442 -2.19118,3.99479 -2.92514,5.44601 2.40625,6.48006 6.31608,2.67486 14.09814,6.09033 16.0625,10.56365 3.21939,5.98886 13.31841,4.10273 20.65625,1.68711 8.88134,-0.47067 10.77497,-9.20435 21.84375,-9.35582 5.57167,-2.16338 15.09162,0.57666 17.03125,-4.81212 8.55648,0.53094 12.38067,-4.42641 18.25,-4.56288 6.01739,-2.44709 11.07654,0.969 4.0625,4.81211 6.5671,0.34558 1.51861,8.25453 10.8125,10.31442 5.7543,-1.29502 12.83125,0.12736 17.75,-1.91718 5.93815,1.39581 7.67345,1.50424 10.3125,2.39647 3.42105,-2.5258 7.4644,-0.39876 10.34375,-3.60429 2.89381,-2.76969 7.18294,-4.25487 11.75,-1.66795 2.92082,-0.14777 -5.65243,2.90929 -1.90625,5.02301 -1.11243,4.08496 -13.32017,6.05176 -13.46875,10.33359 -5.74839,2.26901 2.84184,5.40697 6,5.5023 1.01627,2.292 0.60035,4.16481 -4.5625,5.04218 -0.32381,4.31562 -5.25486,4.76839 -0.71875,7.91794 1.70671,3.74182 3.6933,6.41787 1.46875,8.16718 12.85922,0.85747 33.05856,-1.59901 37.65625,-10.08436 6.99031,-0.51212 12.641,0.028 18.5,3.6043 8.66035,-2.36257 8.58233,2.65019 12.21875,3.83436 6.92674,3.06807 13.47284,0.73338 19.6875,1.20782 1.91081,-3.83668 7.76776,-2.86161 6.5,-6.7293 3.56961,-2.83626 6.78127,-0.85396 10.3125,-3.35506 2.47677,-2.02971 8.71763,-2.07838 12.46875,0 0.44748,3.96496 5.633,-0.8814 9.84375,0.4793 5.21082,0.63068 2.18011,-1.0487 3.59375,-3.35507 0.3455,-3.09676 3.90507,-11.40036 10.5625,-8.39723 6.17606,1.7915 9.94777,-1.74581 15.84375,-0.24924 7.03184,-1.54701 5.29279,-5.82552 9.375,-7.18941 0.50872,-4.96449 9.48273,-2.73391 12.71875,-4.79295 0.36681,-4.89682 5.50329,-0.42737 2.875,0.70936 4.6366,2.94564 8.29257,5.07721 14.40625,6.95935 1.62105,0.54312 3.8262,-2.20121 8.40625,-0.70935 2.84587,-2.09297 6.60798,-5.43837 9.34375,-1.45706 6.37883,1.16995 12.70481,-0.5553 15.125,2.41565 -0.92861,3.9442 9.49659,6.53581 9.84375,10.31441 3.18913,1.66287 4.93566,8.62243 7.4375,3.10583 6.32104,-3.35048 11.89969,-9.62061 23.03125,-8.39724 1.76927,-4.67792 -0.56822,-8.49525 0.96875,-11.7523 -0.38748,-1.7904 -1.72177,-3.2937 -3.34375,-4.56288 0.88911,-1.75612 5.49908,-5.18063 -1.21875,-5.04218 -1.72149,-1.63229 -9.78659,0.77924 -9.125,-2.62653 -2.3018,-1.45951 -5.72315,-0.48357 -7.4375,-0.95859 -3.80499,-0.69273 -2.21983,1.59036 -4.78125,1.66794 -2.73123,-0.21675 -7.28128,-1.18456 -11.78125,-1.91718 -4.55896,-1.42844 -1.66436,-5.73037 -5.03125,-7.66871 -1.2232,-0.6674 -7.57635,-0.29545 -5.53125,-3.125 1.01242,-2.87325 2.42951,-4.77137 -2.625,-5.52147 4.92115,-1.68963 -4.44136,-0.9391 1.1875,-2.87577 0.36867,-1.49277 -3.50025,0.0529 0.5,-1.68711 3.12705,0.39814 -5.09734,-1.46613 0.46875,-1.18865 -0.90931,-1.01651 -6.60148,0.42744 -1.6875,-1.43789 3.83594,-0.0182 -3.94877,-1.4128 -0.46875,-1.91718 -0.6446,-2.57271 -5.4542,-0.0282 -3.59375,-2.6457 -2.06358,-1.0828 1.66225,-4.22092 -5.28125,-5.29141 -1.0598,-2.19643 -5.47731,-0.20712 -2.65625,-3.10583 2.94685,-2.07972 -0.66428,2.53088 2.875,-0.72853 3.86232,-3.00135 -3.20534,-1.7154 0.5,-3.60429 3.86401,-1.14807 3.52777,-6.86058 -0.71875,-3.35506 -3.06366,4.14098 -9.38607,0.97565 -15.125,-1.18865 -4.72559,0.77331 -5.44277,-3.53176 -11.0625,-4.08359 -2.63733,-3.0867 -4.85916,-7.31962 -7.65625,-5.75154 -4.14802,-1.62102 -2.75656,-3.72593 1.1875,-2.89494 3.70824,0.0654 9.77219,-3.69913 13.9375,-3.10582 8.75778,-1.05445 11.85169,-9.14511 2.15625,-11.52224 -6.66347,-8.34986 -21.3382,-12.569224 -32.15625,-18.481598 -10.67249,-1.794319 -24.15725,-0.422644 -28.5625,-8.148006 -11.10545,-8.325576 -25.86273,-16.465693 -39.625,-24.003067 -2.90933,3.240902 -8.47116,-4.357489 -4.5625,0.709356 2.69314,4.215202 -9.86201,-6.719333 -5.03125,0.479294 -1.80753,0.749518 -2.18045,-4.907478 -5.03125,-0.958589 0.005,3.717362 -1.2349,-2.341949 -1.6875,0.958589 1.20488,2.344068 3.80861,5.258908 1.6875,4.812117 -2.8471,3.220257 -0.0976,-2.906974 -3.125,-1.437884 -5.65379,-1.269337 -7.41334,-3.828371 -6,-7.687883 -3.44304,-2.458247 -8.21361,-5.333257 -14.875,-5.272239 z m -250.09375,85.65951 c 0.22201,-0.6217 -0.87312,0.0575 0,0 z m 13.65625,-50.383437 c 0.90149,0.04988 -0.25082,-0.656074 0,0 z m 0.5,0 c 0.90149,0.04988 -0.25082,-0.656074 0,0 z m 40.0625,-21.357362 c -0.89203,0.281368 0.51235,0.359411 0,0 z m -0.21875,0.230061 c -0.90149,-0.04988 0.25082,0.656074 0,0 z m 100.4375,9.240798 c 0.97299,-0.07097 -0.0321,-0.248092 0,0 z m 0.84375,-0.115031 c -0.17423,-0.741043 -0.57254,0.209749 0,0 z m 25.0625,-8.282208 c 0.97299,-0.07098 -0.0321,-0.248092 0,0 z m 0.375,-0.115031 c 0.99422,-0.301883 -0.55556,-0.394423 0,0 z m 78.5,-9.835123 c 0.51348,0.371738 -0.95945,0.274121 0,0 z m 0.21875,0 c 1.10663,-0.177362 0.67924,0.705845 0,0 z m -0.71875,0.230062 c 0.55423,0.382438 -0.92791,0.308707 0,0 z m 1.9375,0 c 0.5369,-0.183089 0.12239,0.726202 0,0 z m 0.46875,0.249233 c 0.55033,-0.210014 0.19232,0.693627 0,0 z m 2.875,0 c 0.72625,-0.187326 -0.38868,0.618696 0,0 z m -6.71875,0.230061 c 0.94424,-0.0793 -0.993,0.65527 0,0 z m 5.75,0.249233 c 0.72625,-0.187326 -0.38868,0.618697 0,0 z m -6.71875,0.230062 c 0.91764,-0.09888 -0.90708,0.660505 0,0 z m -0.71875,0.249233 c 0.44473,0.537154 -1.89948,0.589948 0,0 z m 22.09375,3.355061 c -0.42327,2.409638 -0.29805,1.696276 0,0 z m -7.4375,4.31365 c -0.0722,0.809375 -1.35587,1.484473 0,0 z m -214.5625,2.396473 c 5.86049,-0.177288 4.92595,4.995067 3.34375,0.728527 -0.66178,-0.359018 -2.84976,-0.217122 -3.34375,-0.728527 z m 12.71875,10.56365 c 0.44505,1.360239 1.15165,0.499061 0,0 z"
       id="Clwyd"
        />
    <path
       d="m 571.46612,337.11656 c -5.39523,-0.62689 -5.38927,5.95632 -8.875,1.95552 -4.42489,-3.12255 -9.32981,3.0857 -13.1875,1.41872 -4.02662,-1.50478 -10.76531,1.90393 -10.8125,5.04217 -4.84911,2.89259 -6.36743,0.23575 -10.8125,-1.43788 -11.77559,1.20528 -10.23081,8.12309 -7.65625,14.14877 1.76484,3.58789 1.43634,9.34173 -2.1875,10.10353 -3.06244,3.16277 -5.25223,8.34919 -6.71875,10.06519 0.12438,3.7675 -0.87459,6.66096 -1.4375,9.12576 0.66052,2.1898 -3.87638,2.06686 -1.90625,4.81212 1.78764,2.99202 -3.17007,5.7895 -4.5625,9.33665 -3.7788,2.97823 -5.22159,6.11951 -6.46875,9.12577 -0.58688,5.46973 -5.41032,9.35245 -8.65625,13.89954 -3.09304,2.58262 -7.79541,5.15606 -9.125,8.16718 -5.42651,0.0534 -5.86477,3.72534 -8.875,6.71012 -2.73052,3.34347 -6.51977,6.43666 -12.71875,7.93712 -3.52197,2.77273 -13.45629,1.62625 -14.40625,5.5023 -8.12506,2.66213 -11.14124,7.45743 -21.34375,9.375 -0.75293,-2.70483 -8.02683,4.10853 -8.90625,-0.49847 -5.53285,-3.90386 -10.48468,2.91319 -14.875,5.27224 -3.82543,3.18144 -8.65347,5.23039 -13.1875,8.87654 -4.64435,1.0472 -6.46212,4.54392 -11.78125,2.20475 -0.81488,-1.59489 -0.56189,4.09563 -5.5,4.52454 -3.06748,2.31312 -12.04872,9.55856 -19.4375,7.93712 -5.01749,0.73578 -6.46814,-2.47827 -11.53125,-3.37424 -4.49508,1.43996 -7.8701,3.81097 -13.6875,1.43789 -2.9223,1.69624 -11.82285,-0.16474 -13.4375,1.43788 -1.11363,2.214 -7.01029,0.12245 -8.875,1.93635 -0.3479,0.60223 -6.33889,1.20053 -6.96875,0.70936 -2.83322,3.45222 0.29003,4.2701 -0.71875,7.68788 -1.67013,0.12177 0.85454,-4.74897 -1.6875,-0.95859 -1.47083,1.72283 -7.74189,0.57223 -8.625,-0.47929 -3.80127,-2.02111 -5.82301,-2.78918 -7.21875,1.18865 -5.88489,0.99213 -1.7069,2.40656 -2.625,4.56288 -4.76383,2.12134 -4.32413,6.40767 -8.15625,7.18942 -2.80545,2.63597 -5.95174,3.85246 -8.15625,5.75153 -4.67253,1.85226 -13.43029,1.15096 -15.625,3.125 -1.83016,1.18249 -8.69553,5.13572 -1.90625,6.49923 -2.80825,5.6103 -7.88158,2.95471 -11.28125,4.56289 -2.90499,0.0361 -5.3476,-0.064 -7.90625,-0.95859 0.76692,-2.0202 -3.49354,-5.23982 -6.96875,-3.6043 -5.08143,2.24102 1.88359,4.00433 -0.96875,5.29141 -3.2671,1.62603 -1.188,3.78398 -5.03125,2.62654 -1.87076,1.62948 -3.70189,1.06187 -7.4375,2.60736 -2.20059,0.83101 -4.53508,1.07822 -7.6875,1.47623 -0.16767,2.48668 -3.11927,-0.97719 -6,-0.49847 -0.25416,-1.79115 -2.83465,-1.29709 0.71875,-3.58512 5.07837,-2.64468 -1.24551,0.0127 -0.96875,-3.125 0.39696,-2.64769 -3.30827,-1.41076 -4.3125,-1.18865 -1.54334,-0.58002 -5.94323,-0.30382 -6.71875,0.70935 -1.21838,-0.0514 -3.82799,-2.3386 -6.46875,-1.68711 -1.29419,-1.44736 -6.55024,0.78324 -6.96875,-0.70936 -0.82767,-1.06637 -4.44677,-1.5972 -6.71875,-0.47929 1.83584,1.51167 -11.0107,5.45283 -1.21875,6.72929 -3.16753,2.26956 5.07351,0.95874 -0.71875,4.04525 -5.44862,1.72989 -5.69663,1.6854 -3.34375,3.85352 5.49429,0.76975 -0.19128,2.09635 1.1875,4.08359 3.29672,2.66652 -2.87818,3.68205 -5.03125,2.87577 -2.60619,-0.26626 -0.11628,3.99444 -6.46875,2.62653 -3.40085,0.15151 -4.34743,1.13301 -7.9375,-1.18865 -0.42259,1.77059 -3.944,1.28896 -0.96875,2.41565 -0.10779,1.79646 -4.25374,1.2509 -4.3125,3.08665 -1.30019,1.57138 -7.82186,-0.12644 -8.625,-0.46012 -1.86454,1.65428 -3.21544,-0.47608 -5.53125,0.70936 -1.54234,0.606 -1.52638,1.07038 -3.125,1.68711 2.2503,2.61369 -6.24132,1.10602 -1.90625,3.6043 -3.82793,2.13183 -9.484616,0.46824 -12.000001,3.83435 -4.226703,1.12345 -5.363924,3.48444 -8.65625,3.35507 -3.791875,1.14394 -7.151383,0.87389 -8.875,0.24923 -1.748641,1.22001 -8.467692,2.20293 -8.15625,4.31365 5.509277,-1.29497 6.576699,3.54386 2.15625,5.52147 -4.947611,-1.44254 -2.551887,3.36306 -0.71875,3.85353 0.346638,2.84966 -7.596713,4.49091 -1.90625,5.75153 2.28876,-0.84205 5.790003,-2.59478 6.46875,-0.47929 5.751981,-1.85882 6.218643,-2.87236 11.53125,-3.37423 1.234472,-0.17806 4.551909,0.85246 5.28125,-0.21089 6.275228,-0.0315 9.943171,-1.74356 12.937501,0.46012 0.88309,1.78943 5.37124,0.38839 6.71875,0.72853 3.66852,-1.39807 5.49046,2.68498 6,1.68711 4.09474,-1.57733 6.91383,1.70776 7.21875,0.21089 2.66279,0.002 9.67065,-0.85532 10.3125,3.125 4.34174,2.91226 3.75289,9.35504 6.25,11.02378 2.73221,5.7837 2.35345,10.03572 1.65625,15.1265 -1.2934,4.24172 -6.03909,5.73534 -11.03125,2.87583 -2.4445,1.74889 -8.41403,-0.69749 -10.3125,1.43785 -3.87494,0.69123 -4.05605,3.91184 -8.15625,4.81208 -5.72991,-0.65668 -5.21302,1.19921 -5.53125,4.06442 0.21026,6.52614 -10.324729,1.09528 -13.437501,2.66491 -1.767743,-0.3 -6.481458,-0.94393 -2.875,1.68712 2.035014,0.8449 3.465836,2.08908 7.4375,3.58515 -3.987369,4.44951 1.741591,-1.87166 6.468751,0.72847 4.18392,1.9103 2.3795,4.0611 7.4375,4.31368 1.66101,1.56994 -0.59073,3.8692 0.96875,6.00079 0.12272,0.75381 1.82432,1.9462 3.375,3.12497 1.32411,2.11135 3.65994,0.40608 3.34375,-1.68711 4.99415,0.95435 3.48174,-1.01344 4.8125,-2.16644 0.45944,-1.5051 -1.0916,-3.55706 1.90625,-3.33583 -4.64589,0.16349 -9.37746,-3.54387 -3.34375,-4.10282 1.96055,1.04024 9.23162,0.72503 9.125,0 3.92283,-2.82227 6.68521,3.5765 7.90625,0.24926 2.39435,-0.84601 1.10689,-1.67914 4.8125,-2.3965 3.16622,1.18601 2.8566,4.17558 6,5.02306 6.00554,-0.13987 8.40477,-1.08521 14.15625,-0.24926 5.03504,-3.26184 10.32447,2.41239 17.03125,2.41564 6.5764,1.3162 11.65598,-3.1176 18.71875,-1.43791 2.55053,-3.71313 9.48648,2.04006 12.96875,-2.41558 7.46769,1.71889 5.96669,-4.39902 7.4375,-7.43865 -4.99873,-1.46227 -6.29805,-3.787 -4.8125,-6.94025 2.49863,-3.96859 0.49083,-6.11675 -4.3125,-7.68785 4.30823,1.24399 6.86284,1.8138 9.59375,0.97779 -3.58021,2.24368 -2.71722,6.3065 -3.8125,9.58589 -0.80173,2.51178 7.22053,2.62417 4.3125,6.2308 -3.00366,3.69079 8.86605,2.38625 0.71875,3.12503 -2.74915,1.13558 -3.20363,4.41442 -9.125,3.37423 -2.5966,5.55994 -6.09673,-0.72773 -10.8125,0.70933 -2.79093,3.11098 -11.01803,0.26852 -13.90625,3.85349 -3.21642,2.26129 4.60665,6.54497 -1.9375,3.83436 -3.21609,0.58123 4.02115,-2.5089 -2.875,-2.18552 -6.20977,-0.18724 -18.54102,-3.3743 -22.5625,-0.46013 -3.89185,1.04387 1.94042,4.28798 -3.84375,4.31362 -3.89075,1.28927 -5.07454,-2.43539 -5.28125,-3.12503 -3.8982,-0.7222 -11.70946,-2.38926 -13.4375,-0.47926 4.91205,1.45049 -3.59759,1.42828 -3.34375,3.37423 3.5574,0.62166 0.5464,3.0527 1.1875,3.35509 4.22288,-1.91349 5.77885,2.46234 9.84375,1.43786 4.51513,0.71055 10.57407,0.61914 11.53125,5.52147 1.98002,1.61129 3.68524,5.88301 1.1875,5.50227 4.35777,0.0131 -5.83713,4.10755 0,5.78994 6.97963,0.72454 7.3623,1.05939 14.40625,2.60736 3.65259,3.67982 9.95527,-1.32748 13.90625,1.22699 2.00493,1.54614 6.29675,1.39915 8.40625,2.37731 1.70861,1.50319 3.91829,2.60012 5.53125,1.68711 0.76604,-0.41423 7.28107,1.41442 5.53125,-0.47932 1.55034,-3.04749 5.21236,-5.19516 10.5625,-3.83436 -2.86349,-2.35343 -1.93587,-5.31307 1.1875,-6.71012 3.00992,-0.94988 4.47802,-1.00239 6.96875,-2.87577 4.73699,-0.35754 2.93916,-0.65153 4.0625,-2.87577 4.2524,-1.26932 7.98291,0.67399 11.78125,-0.49846 1.57877,2.86294 8.17254,-0.81552 9.09375,2.85662 5.10737,-0.10754 9.28054,2.55976 11.0625,-1.64883 2.63282,-0.8965 7.69469,0.88209 5.03125,-2.64564 5.65921,-2.6116 9.9175,0.36527 16.8125,-0.72859 -1.3446,-1.47755 5.42802,-5.31283 6.46875,-7.43865 -4.74784,-1.81178 2.78081,-7.24037 5.53125,-8.87651 -12.11576,-2.8719 0.79725,-12.08497 10.3125,-12.00153 8.55912,-1.9238 19.40295,-1.32994 26.625,-1.18865 9.21173,-2.90479 22.08088,1.48564 31.46875,2.87577 3.43457,1.88196 9.3869,-0.99234 12.46875,0 4.3115,-3.2335 15.96562,-4.10718 16.3125,-7.20859 1.71404,3.84171 -6.48889,3.85969 -6,6.25 3.94428,-0.99325 -0.69646,-1.24098 4.8125,-0.97773 6.35013,-3.08798 4.78236,1.37576 -0.96875,1.68711 -5.97845,0.5346 -11.51762,3.44841 -7.90625,7.18939 4.47157,-2.61994 6.52249,-0.0301 8.15625,-1.18865 -1.22414,-0.55337 5.20348,3.26785 5.5,1.68712 0.99548,-1.86166 -7.02132,-2.86565 -2.375,-5.75154 1.92805,-1.81214 3.17067,-2.353 0.71875,0.72853 -4.47709,3.0754 4.06066,2.44687 2.875,6.21166 1.70571,1.77601 1.1766,-6.25503 1.1875,-8.39724 1.25229,-0.65982 1.64617,6.62306 0.5,8.8957 0.80915,1.1181 0.45944,-1.92257 2.375,0.72853 1.51393,1.39104 0.80835,-4.02018 0.5,-5.78988 -0.1946,-1.70938 1.27041,4.07 1.4375,5.54062 7.01644,2.49239 10.31537,7.23932 16.3125,9.58589 4.76422,1.75963 4.08238,2.55055 10.09375,2.4157 4.08757,0.18853 1.49335,1.50313 7.1875,2.39644 4.04976,-1.06006 10.89041,-3.0438 14.40625,-6.49926 4.90254,0.25748 11.57958,-2.31706 12.96875,0.49853 -4.9925,-0.98362 -13.59472,1.4503 -4.8125,2.16638 7.34408,2.02711 8.90194,10.18067 19.9375,8.87656 4.11142,-1.68386 11.14091,1.00387 12.71875,-3.12503 7.64554,0.14644 11.53732,-3.1608 18,-2.87577 3.82586,-1.22619 6.12534,-3.87619 1.4375,-5.75153 -2.87059,-2.2119 0.59834,-3.10896 3.34375,-2.41564 2.70272,-2.82786 0.2855,-5.53516 6.25,-5.52148 -1.09964,-2.47914 -0.43786,-3.77668 2.625,-2.16638 -2.52186,-1.57006 0.34051,-4.85613 -1.4375,-6.21165 -0.70316,-1.02552 -0.44045,-3.20227 2.40625,-4.35203 4.72853,-0.1003 3.84286,-2.40356 5.53125,-4.06441 1.92681,-1.47939 4.65588,-1.66467 5.75,-4.31362 5.23206,-0.69921 -0.57604,-5.66988 5.28125,-5.27227 3.87563,2.13785 9.16677,4.64693 14.65625,3.08662 2.2197,-1.39343 8.05145,-2.88994 12.46875,-3.33583 2.26047,0.18491 4.41128,2.64448 7.90625,1.43786 5.74117,2.48251 6.30539,-5.15375 4.8125,-6.72927 -0.53199,-1.58245 -4.81598,-4.47437 -4.5625,-5.5215 5.01678,0.57525 6.68682,-1.83001 10.5625,-1.43788 5.29727,-1.04307 9.907,-0.50163 15.59375,1.68711 3.57331,-0.19027 3.83298,4.97663 6,4.81215 0.2446,-6.17452 11.57687,-8.31641 8.65625,-13.93791 2.56535,-4.4485 5.84007,-8.85102 12.46875,-10.77454 1.71804,-1.62103 6.02742,-2.73605 7.9375,-5.29142 5.14636,-2.16279 2.32808,-8.18793 4.78125,-11.02377 -4.60915,-1.70107 -5.21755,-2.4641 -3.34375,-6.49923 2.53408,-2.34389 0.19359,-3.65087 1.4375,-7.43865 2.84879,-2.48042 8.51428,0.40577 5.5,-2.87577 0.30795,-2.76361 -5.45971,-4.40852 1.46875,-7.43865 2.97976,-1.70912 -0.53337,-3.34917 2.15625,-5.04218 2.75977,-2.57059 5.72058,-4.58076 8.375,-6.71012 1.90186,-2.52942 1.93444,-3.92938 -1.1875,-4.81212 3.1079,-3.36198 4.67232,-5.32193 9.375,-7.43865 -4.23546,-2.4212 -4.99089,-5.73853 -10.8125,-7.18941 -1.27737,-2.68536 8.92542,-6.40481 -2.15625,-5.75154 -4.0255,-2.16114 -10.69849,-3.63834 -13.6875,-4.33282 -4.187,-3.86737 1.46371,-4.14357 2.65625,-7.43865 -1.25966,-3.64931 -3.04848,-3.7531 -9.375,-5.04218 -2.31894,-1.98854 -8.92609,-2.8476 -3.125,-4.56288 5.36988,-3.1745 -1.44349,-8.82015 -0.21875,-12.21242 -0.50212,-3.67798 0.2131,-6.6038 0.71875,-9.62424 -3.21673,-2.3769 1.86643,-5.40128 -0.71875,-8.87653 2.75726,-2.03209 2.27664,-4.25334 0.21875,-6.00077 1.09309,-2.6671 1.94367,-4.16564 -1.4375,-5.75153 3.65499,-3.17818 3.25273,-4.78246 7.4375,-6.46089 2.40092,-0.0247 5.09867,-1.22101 9.375,-1.43788 -1.84928,-3.68821 -10.02312,-4.62881 -8.875,-6.7293 1.95515,-1.60548 2.06922,-6.6354 -4.09375,-7.20859 -2.09443,-2.81153 10.74683,-10.21052 15.59375,-9.85429 5.23685,0.52675 9.78655,-1.40245 14.15625,-2.87577 -2.94427,-3.80148 -3.67592,-4.70418 -10.78125,-6.92101 -5.09917,-0.10112 -3.42165,-7.61411 -7.4375,-9.8543 1.244,-2.30743 -1.43714,-3.78869 -0.96875,-6.71012 -5.44963,-0.54315 -7.51301,-2.6919 -7.6875,-4.81211 -4.41236,-2.89699 -10.67439,-3.81171 -13.4375,-6.23083 4.08643,-3.99967 -1.44798,-10.5066 9.125,-10.33359 5.57249,-2.70205 -1.56873,-8.55646 5.75,-9.35583 -3.88979,-7.03118 -9.19447,0.72541 -13.1875,0 0.14574,3.72096 -5.1238,4.6353 -9.125,4.31365 -2.87881,-1.00696 -2.98033,3.19572 -7.4375,2.41564 -2.72912,-1.44342 -5.72783,-1.38752 -6,-3.85352 -3.27898,-2.66847 -4.19173,-6.11881 -5.03125,-9.58589 4.70571,-4.43622 0.72652,-7.7237 0.71875,-12.25077 -5.18797,-4.07642 -9.25452,-3.19094 -19.9375,-3.08666 -1.40672,0.1108 -4.68794,0.19223 -6,-0.76687 z m 60.71875,114.01457 c 0.17423,0.74105 0.57254,-0.20975 0,0 z m -22.5625,164.11046 c 0.39392,0.78828 0.91031,0.14736 0,0 z m -215.53125,24.73154 c -0.25086,0.65613 0.90154,-0.0499 0,0 z m -102.96875,17.75312 c -0.11091,0.72853 1.81791,-0.15036 0,0 z m -60.9375,11.73313 c -0.59589,0.40559 0.96426,0.33577 0,0 z m -63.625,7.68786 c -0.96438,0.33582 0.59602,0.40564 0,0 z m -8.40625,-32.40031 c -0.28405,0.29104 0.92777,1.02466 0,0 z m 0.25,0.49847 c 0.2136,1.73454 0.45437,0.20012 0,0 z m 0.25,0.72852 c -0.5543,0.38246 0.92797,0.30878 0,0 z m -16.09375,-4.31368 c -0.19582,0.58687 0.84608,-0.0646 0,0 z m -45.125001,-7.93705 c 0.174256,0.74098 0.572508,-0.20976 0,0 z m 18.968751,-8.16724 c 0.47119,-0.3492 -0.92538,-0.24601 0,0 z m 1.6875,-36.71393 c -0.99422,0.30189 0.55556,0.39443 0,0 z m -27.375001,-2.14724 c -0.250816,0.65608 0.901494,-0.0499 0,0 z m -16.3125,3.125 c -1.310698,1.16346 1.294148,0.51263 0,0 z m 50.656251,-33.35889 c 0.25082,-0.65608 -0.90149,0.0499 0,0 z m 25.4375,-7.93712 c -0.45125,-0.62918 -0.96469,0.20178 0,0 z m -0.96875,-1.64877 c 0.41278,-0.66892 -0.73869,0.18933 0,0 z m -0.96875,-3.125 c -1.01206,9.8e-4 0.14625,0.52556 0,0 z m 5.53125,-15.12654 c 0.25082,-0.65607 -0.90149,0.0499 0,0 z m 25.4375,1.68712 c -0.17423,-0.74104 -0.57254,0.20975 0,0 z m 9.84375,4.06442 c 2.63944,1.19261 2.91013,-0.0344 0,0 z m 22.5625,-1.89801 c 0.73869,0.18933 -0.41278,-0.66891 0,0 z m 7.4375,-2.41564 c -0.25082,0.65607 0.90149,-0.0499 0,0 z m 42.46875,-16.06595 c -0.12239,-0.72621 -0.5369,0.18308 0,0 z m -0.21875,0 c -0.55033,-0.21002 -0.19232,0.69362 0,0 z m 30.46875,-17.27378 c -0.71473,-0.18494 0.36396,0.56873 0,0 z m 7.21875,-4.56288 c -0.57254,-0.20975 -0.17423,0.74104 0,0 z m 73.65625,-14.66641 c 1.02239,-1.03763 -0.92526,-0.76445 0,0 z m 29.78125,-13.89954 c 0.92791,-0.30871 -0.55423,-0.38244 0,0 z m 17.5,-2.14724 c 0.39924,-0.66732 -0.66841,0.16825 0,0 z m 88.8125,-72.94862 c -0.51348,0.37174 0.95945,0.27412 0,0 z m 10.09375,-40.56748 c 0.92013,-0.63114 -0.97461,0.0581 0,0 z m -0.25,0 c -0.94751,-0.19637 -0.38104,0.70416 0,0 z m -0.46875,0.24923 c -0.87312,-0.0574 0.22201,0.6217 0,0 z m -226.09375,143.0023 c -0.39924,0.66732 0.66841,-0.16825 0,0 z m 0.21875,0 c -8.63879,1.12924 4.62719,2.32807 0,0 z m -27.8125,20.66718 c 0.64159,-0.16495 -0.3522,0.56645 0,0 z M 187.68487,537.5 c -1.49449,0.23149 0.56048,0.46509 0,0 z m -1.1875,0.46012 c -0.25221,0.67785 1.03777,-0.21588 0,0 z m -35.0625,6.97853 c 0.55423,0.38243 -0.92791,0.3087 0,0 z m -41.28125,12.25076 c -0.10106,0.79748 0.72908,0.10521 0,0 z m -68.156251,16.77531 c -0.250816,0.65608 0.901494,-0.0499 0,0 z m 0.25,0.24923 c 0.942214,0.1899 0.09896,0.14214 0,0 z m -0.96875,0 c -1.664253,1.58778 2.163576,0.37459 0,0 z m -0.46875,0.72853 c -1.423614,-0.14283 0.194216,0.72014 0,0 z m -0.96875,0 c -2.325021,1.33552 0.611924,1.10474 0,0 z m 3.59375,6.71012 c -2.512199,1.26788 0.145041,1.22737 0,0 z m -3.125,0.97777 c -1.981825,1.18097 2.517868,0.024 0,0 z m -0.46875,0.46012 c -0.0028,-2.19235 -1.301324,1.36045 0,0 z m 18.96875,-0.24923 c -3.93179,1.42186 -2.398076,1.6046 -2.15625,4.10276 -4.986716,0.36449 -1.860156,4.3429 1.1875,3.83435 -0.553296,1.38281 3.676038,1.49414 3.375,1.43789 -0.04717,-3.48052 -0.716909,-5.44021 0.46875,-9.375 -1.231927,1.4966 -1.424402,0.60775 -2.875,0 z m -21.84375,5.78987 c 0.854633,0.7982 3.066121,0.17379 0,0 z m 36,0.46013 c -0.267985,0.73322 1.406707,-0.14894 0,0 z m 0,0.24923 c -1.014451,-0.28118 -1.680602,3.26664 0,0 z m 34.812501,0.72853 c -0.20839,0.56117 0.77802,-0.0465 0,0 z m 0.21875,0.21089 c 0.41571,0.93078 1.20752,-0.93129 0,0 z m -0.21875,0 c -0.90149,-0.0499 0.25082,0.65607 0,0 z m -75.375001,1.93635 c -1.554499,1.02975 2.298409,0.33913 0,0 z m 26.625,0.72852 c -3.329558,3.86514 3.398245,-0.2747 0,0 z m 2.90625,0.70936 c -0.271479,0.63131 0.837674,-0.032 0,0 z m 10.0625,36.94402 c -1.575588,1.4027 -6.973913,5.23908 0.25,5.27227 0.967066,-0.34227 3.982844,3.10331 4.78125,-0.21092 2.955997,-2.90325 2.578886,1.17392 4.09375,-0.49847 4.036829,1.08405 2.084114,-2.53159 -0.71875,-1.43785 -0.461922,-1.76399 -5.448143,-1.72994 -8.40625,-3.12503 z m 3.84375,6.71012 c -1.329178,-0.2316 -0.561185,0.73534 0,0 z m -5.03125,-1.43785 c -1.015335,-0.21233 -0.405875,0.72478 0,0 z m -2.65625,-1.18871 c -0.122422,-0.72614 -0.53686,0.18306 0,0 z m 0,-0.95853 c -0.668384,-0.16822 0.399198,0.66724 0,0 z m -0.21875,0 c -1.114385,-0.003 0.189253,0.62178 0,0 z m 2.625,-1.66798 c 0.994162,-0.30184 -0.555497,-0.39442 0,0 z m 14.875,1.91718 c -3.08625,2.21589 4.150165,0.85436 0,0 z M 8.6223694,635.4103 c -4.5517429,1.91313 3.3241426,1.34405 0,0 z m 382.8437506,5.27221 c 0.66198,1.45626 -0.22804,3.24571 0,0 z m -310.093751,5.29141 c -2.483111,1.8708 -7.958719,3.94749 -0.25,3.83436 2.086041,-0.9789 4.351825,-2.46448 3.84375,-3.37423 -0.958711,0.66619 -1.717881,-0.38859 -3.59375,-0.46013 z m 66.218751,0.24927 c -0.5589,0.64067 1.86605,-0.13491 0,0 z m 11.28125,0.21086 c -0.16979,1.13852 0.90608,0.79159 0,0 z m 1.9375,0.24926 c -0.8255,0.77086 0.76472,0.58209 0,0 z m -1.21875,0.2492 c -0.82302,0.55552 1.04538,0.0276 0,0 z m -0.71875,0.23006 c -0.5555,0.39442 0.99416,0.30184 0,0 z m -21.09375,2.87577 c 0.13056,1.34773 2.50788,-0.33791 0,0 z m 287.28125,9.12577 c -0.99427,0.3019 0.55563,0.39448 0,0 z m 4.09375,0.24926 c -0.27143,0.63123 0.83762,-0.032 0,0 z m -145.9375,7.89877 c -5.03273,1.33252 4.58588,1.02694 0,0 z m 1.1875,0.72847 c 4.63286,0.96865 1.21891,3.2392 4.09375,3.83436 3.40857,-0.73657 7.41418,1.85748 9.34375,-1.89798 -0.88262,-2.59104 -5.4711,-1.30325 -9.09375,-1.68712 -1.57311,-0.94797 -2.45204,-0.3165 -4.34375,-0.24926 z m -2.625,-0.23006 c 0.25077,-0.65601 -0.90145,0.0499 0,0 z"
       id="Dyfed"
        />
    <path
       d="m 876.05987,545.41794 c -3.63193,4.43716 -6.74462,2.89408 -8.875,7.20859 5.30593,2.98661 -1.38607,5.74652 3.34375,8.6273 -0.38014,2.62184 0.41813,5.86485 5.75,6.95936 2.30789,0.93864 3.38284,2.68781 6.25,3.60429 -0.0558,2.68809 5.55565,5.59278 2.65625,7.68789 1.82967,4.32771 -7.93364,2.42637 -10.8125,4.79294 -0.78357,2.62637 5.80065,4.85546 -1.4375,6.00077 0.19372,3.41465 -10.68768,3.37851 -7.21875,6.95935 -5.51191,-1.86519 0.25812,5.42397 -5.03125,1.18865 -5.22167,-2.02139 -4.52616,0.28259 -8.40625,1.68712 -1.44281,2.0243 -3.51642,1.43048 -3.59375,4.08359 -10.47338,3.09724 -24.06203,2.39441 -36.25,2.14724 -9.64132,-5.12514 -20.27035,-3.69511 -23.28125,3.85353 2.62112,5.48033 -13.99166,1.85879 -8.625,7.91794 -1.74103,5.65994 5.45739,12.49258 7.4375,15.35663 -4.22272,4.34595 4.96321,-1.10522 4.5625,2.39644 0.2108,1.98423 3.58641,8.51693 6.46875,12.23159 2.42432,3.93289 3.04809,5.93172 -1.4375,7.91798 2.31449,2.90957 -0.80623,8.92313 -4.0625,4.31362 0.73005,2.99803 -4.09099,5.57466 -5.53125,7.20859 5.05121,2.87159 1.91378,6.82742 3.84375,9.83509 2.17378,3.9438 2.18178,9.11221 7.4375,11.27301 6.50957,-1.53043 3.01129,5.30717 6.96875,6.72932 5.556,-4.00209 8.78024,3.80061 9.59375,4.79294 3.60537,1.69872 6.77489,0.1081 11.75,-0.47932 1.87283,-1.69632 10.49472,-0.96368 14.40625,-1.91718 2.84492,2.66239 5.22991,2.94411 6.46875,2.16644 5.56158,0.41326 6.26667,2.11 9.125,3.10583 3.1225,-1.46098 7.06584,2.92344 9.84375,3.8535 5.23703,0.65264 3.96646,3.97675 7.6875,5.27227 -3.43995,1.47356 -4.00262,2.59883 -6.96875,3.83435 2.61659,3.55743 4.63785,6.52043 10.09375,2.87577 14.15253,-4.74098 36.55473,-13.86816 55.6875,-10.31442 3.13352,0.95553 5.35471,-2.20754 7.90625,-1.43791 -0.94354,1.38448 -1.35744,1.70804 -3.34375,0.72859 0.25596,4.61442 6.48484,-3.82515 12,-3.12503 6.53527,-2.00448 4.12886,0.21448 -1.21875,0.72853 -8.08407,0.0466 -2.46217,4.07932 -7.1875,4.54374 4.93871,3.05705 5.7933,-3.81479 10.5625,-3.10589 7.306,-0.87252 2.37977,-2.40104 2.875,-2.16638 2.5517,-0.36227 4.90862,-1.48356 8.40625,-2.87577 -3.17137,1.94718 -3.39412,3.2273 -4.5625,5.27221 -3.41954,-0.81865 -5.23619,1.87798 -8.40625,1.91718 0.11047,1.25534 -9.26127,4.7838 -11.75,3.12503 -2.21886,3.67681 9.57817,3.10712 13.1875,2.87577 1.16716,-4.24117 -7.11348,-0.12847 -6.96875,-1.18865 4.84051,-1.95847 13.82788,-3.74743 16.8125,-5.04221 1.64256,-0.72865 14.54327,-5.83951 6.96875,-1.68712 -5.98858,1.14982 -6.06864,4.71282 -1.21875,2.64577 -0.0818,1.26822 2.98535,-1.86424 0.5,1.18859 -2.50101,3.90515 3.86286,0.28153 1.65625,-1.66792 3.89423,-3.5219 4.88688,-1.92626 4.34375,0.23006 2.02018,-1.96944 -2.12623,4.98473 3.34375,0.95859 -2.49905,-5.12116 3.55668,1.43939 0.71875,-3.58515 1.15638,-0.62822 2.25828,5.30853 4.5625,2.87583 2.19257,-0.64111 8.4924,-4.82448 9.375,-4.56295 -1.14988,4.56779 1.99502,-2.47564 3.84375,-4.56282 2.93006,-3.23429 2.76687,-2.75748 3.59375,-6.23086 6.94428,-0.46135 7.67478,-7.42116 15.59378,-7.20859 8.4692,-1.42957 5.0798,-9.26374 7.6874,-12.71086 -5.9021,-1.45245 -0.476,-6.67564 -5.5312,-7.91797 -6.7401,1.49951 4.2824,-4.8392 2.1562,-6.72927 -2.3993,3.49172 -10.1193,1.09025 -5.0312,-1.66797 7.8498,1.32086 11.7664,-2.81301 3.3438,-3.83436 1.8439,-3.293 1.2755,-6.2073 -4.3126,-7.68785 1.9008,-0.4289 7.3884,1.52804 5.0626,-2.3965 -4.7639,-1.73135 -3.4844,-6.12951 -6,-8.39724 6.0961,-0.49043 8.0364,-5.8573 7.9062,-8.64651 -7.1429,-2.34441 -4.9553,-6.66742 -3.125,-10.54441 0.091,-2.40442 1.3623,-3.7578 -1.9062,-6.25003 1.0911,-3.2943 9.495,-2.01289 6.9374,-6.00077 -1.8096,-2.16294 6.9297,-1.63488 0.7188,-2.87577 0.5226,-3.68992 -11.3209,-5.1286 -11.5,-2.16641 -2.1179,-1.58329 -2.5603,-5.58608 -6.25,-3.83435 0.2546,3.98098 -5.5715,-0.21019 -4.5625,-1.66795 -3.35854,2.89378 -4.42153,3.87507 -7.90623,3.35506 0.48591,-2.33524 -7.93652,-2.23859 -7.9375,-6.00076 -4.20975,-2.65847 -8.19374,-5.41435 -1.65625,-8.64648 -4.90469,-1.51514 -11.75106,-2.91098 -13.9375,-5.75153 -3.89341,-1.57785 -4.97221,-3.94761 -10.5625,-3.83436 -0.20778,-3.5086 -2.27251,-4.54793 -6.46875,-3.125 0.0471,1.66715 -7.4187,-1.20373 0.9375,-1.20782 5.75532,-1.32087 -2.80746,-2.72546 -3.8125,-3.10583 -3.6922,1.29092 -5.91144,-4.96007 -9.625,-1.68711 1.44695,3.64639 -6.88575,1.39898 -8.375,4.31365 -5.0589,2.22806 -7.59002,1.575 -12.5,4.08359 -2.81767,0.96492 -11.23197,2.44546 -9.34375,-0.70936 -0.30646,-1.43302 0.82747,-8.12599 -4.8125,-5.29141 -6.30115,2.22352 -9.71618,-1.98119 -8.40625,-5.04218 -2.78145,-3.08609 -5.13322,-6.281 -9.84375,-8.148 -2.01297,-3.39384 -7.87166,-4.50983 -10.78125,-7.68789 z m 98.40625,161.98236 c -0.81785,0.5451 0.34713,0.7778 0,0 z m -6.25,3.35503 c -0.87312,-0.0575 0.22201,0.62172 0,0 z m -0.25,0.23007 c -0.77062,0.0301 -0.23766,1.16803 0,0 z m -0.46875,0.47932 c -0.90154,-0.0499 0.25086,0.65614 0,0 z m -0.25,0.24926 c -1.07725,-0.12239 0.44501,1.05565 0,0 z m 3.375,-5.52147 c 0.70637,-0.12902 -0.26607,-0.48638 0,0 z m 8.875,-2.16644 c 0.84495,1.24558 -2.36872,2.24374 -0.25,0.24926 l 0.25,-0.24926 z m -0.25,0.24926 c -0.22201,0.62172 0.87312,-0.0575 0,0 z m 0.71875,0.23007 c 0.23875,-0.59571 -0.80722,0.0389 0,0 z m -3.84375,0.97773 c 0.89485,0.50405 1.10734,1.54668 0,0 z m 1.6875,0.47932 c 0.72625,-0.1873 -0.38868,0.61871 0,0 z m -1.1875,0.47926 c 0.77444,0.90418 -0.46667,1.40804 0,0 z m 0.71875,0 c 1.30503,0.65608 -0.45158,-0.64865 0,0 z m -0.5,1.18866 c 0.90154,-0.0499 -0.25086,0.65613 0,0 z m 2.40625,1.68711 c -1.73832,0.99933 0.21613,1.24865 0,0 z"
       id="Gwent"
        />
    <path
       d="m 382.59112,23.025307 c 0.0162,1.07587 2.06456,0.220659 0,0 z m 4.0625,2.166411 c -1.71895,0.942265 -8.66136,2.136085 -7.6875,2.875767 0.7081,0.452933 -1.62459,1.871711 -0.71875,2.894938 -3.18361,-1.950869 -5.09304,0.09502 -8.375,-1.457055 2.29204,-3.087035 -5.78219,-0.450043 -5.28125,1.457055 -1.52824,0.791282 -4.01187,-1.399414 -6.25,1.667945 -4.96181,-0.775621 1.46705,-4.258491 -4.3125,-1.917178 -4.68836,0.01865 -2.99697,3.700233 -8.15625,2.626534 -2.90848,0.604747 -5.82569,1.222001 -8.90625,0 -3.24136,1.285018 -3.63077,2.028235 -2.15625,4.351994 0.14996,0.477266 2.14276,3.213797 2.40625,4.773773 3.86001,2.128081 2.64063,6.547566 -0.96875,9.375 -2.64037,0.917981 0.53456,0.826003 -0.21875,2.3773 -2.72307,1.543926 1.37832,5.075219 -4.5625,5.291411 -2.03156,1.827263 -1.30935,2.491368 0.46875,4.332822 4.89272,0.851773 7.29884,9.001669 -1.90625,6.46089 -2.45036,-0.485141 -9.81639,0.368718 -10.34375,-1.93635 -1.37417,-0.805392 -4.64583,-1.230699 -6.46875,0.249233 2.52262,-2.312932 5.72574,-2.004104 2.625,-3.585122 -0.59516,3.233196 -5.98747,-0.712994 -8.15625,0 2.47427,-4.132338 0.0175,0.432153 -2.875,-1.437884 -2.02798,3.182792 -8.02292,-0.541981 -9.34375,0.249233 2.40177,4.023503 -7.13165,4.585651 -6,5.751534 2.67278,1.881497 4.03233,2.575933 6.9375,2.875767 -0.22988,2.247153 -5.89215,5.303362 -0.46875,5.751534 3.31009,-1.095565 5.61713,1.15549 8.15625,-1.188651 1.6624,0.39997 6.01109,0.670552 6.71875,0.958589 0.0935,2.387779 6.84725,0.143638 6.71875,2.377301 -1.50511,1.289239 -2.04008,3.234172 -0.21875,3.853527 0.97907,1.788313 5.56737,3.603362 2.625,6.499234 2.72066,1.535631 6.63013,3.337625 7.90625,2.147239 1.30766,-1.369565 4.0486,2.099098 5.28125,-0.709356 3.15201,0.535969 8.11012,-1.967994 9.125,0.460123 5.33241,-0.04272 1.88284,4.806957 7.4375,2.875767 3.07574,2.307171 -1.42946,3.104601 1.6875,4.31365 2.02305,0.06559 9.50383,2.872338 7.9375,5.789878 3.19315,-0.15804 -1.29657,3.11545 -0.71875,3.58512 -1.00007,1.23146 0.92343,5.01274 4.0625,3.6043 1.63166,1.37207 1.61998,-0.0145 2.15625,2.62653 -0.3449,1.57144 4.91546,-1.02021 5.78125,-0.72853 5.38958,0.28892 7.48042,5.56103 6.9375,6.25 3.62729,0.42852 2.98262,2.76499 4.34375,2.62654 4.53431,-1.8278 5.34563,-0.69987 7.65625,0.49846 5.48836,3.27002 0.35317,6.6811 2.15625,7.68789 1.27441,-2.59889 6.02124,-4.78067 9.375,-2.39648 1.68101,0.22773 3.98397,0.32748 5.28125,1.68712 -4.24582,-1.8888 -7.62264,-0.52603 -2.15625,1.18865 2.94179,0.029 1.07517,0.81935 7.6875,0.95859 2.10772,-0.53233 12.76209,2.69242 10.0625,-0.24923 0.41846,-3.28006 2.35554,-2.48809 1.6875,-1.89801 3.65376,-0.51642 6.80292,-3.15542 3.125,-2.20475 3.60582,-1.00878 7.62478,-2.96166 10.0625,-3.79602 -7.99629,1.97778 7.1089,2.84124 2.90625,-0.49846 -3.53857,2.09333 2.2598,-4.32528 5.03125,-4.31365 3.99607,-3.19272 9.78215,-5.85215 15.59375,-6.00077 5.7475,-2.81992 0.5372,-10.70778 8.65625,-11.7523 7.37923,-0.93244 7.43312,-4.148117 12.71875,-1.93635 3.47348,-4.688442 11.60384,-9.081086 20.875,-11.503068 3.00558,-1.003914 4.35998,-3.230564 7.90625,-4.31365 0.48775,-6.51943 9.45026,-9.824626 12.96875,-14.417178 6.86721,-2.383012 -2.00165,-4.09865 -6.46875,-3.374233 -7.17602,1.161319 -11.2082,-2.55897 -19.9375,-1.898006 -6.53103,1.161122 -8.24445,6.177723 -17.75,3.853527 -8.49203,-1.440343 -12.9474,-1.859981 -17.78125,-6.000767 -1.10449,-3.195581 -1.78532,-4.478933 -3.59375,-6.000767 0.83462,-2.119765 -3.77529,-3.523757 0,-5.540644 -3.62617,-0.763834 -11.71713,-1.017404 -12.21875,-4.562883 -3.24581,-0.728577 -4.11376,-5.157316 -1.6875,-7.189417 -0.55838,-3.277952 -3.96969,-5.057254 -5.53125,-7.189417 -1.18434,-2.961169 -2.49739,-2.723871 -3.59375,-0.958589 -4.15531,-0.758085 -8.96661,-1.342022 -12,-1.93635 -2.65939,2.49431 -3.06125,-2.378301 -6.25,0.249233 -2.86145,0.883967 -7.23067,1.278912 -8.875,-1.687116 -0.16536,-2.178435 -6.40281,-0.284754 -9.59375,-1.437884 -1.5893,2.569053 -3.46673,0.846846 -4.3125,-0.728527 -3.18036,1.441768 -3.97725,0.05091 -7.21875,-0.709356 z m 10.8125,1.936349 c 0.25082,-0.656075 -0.90149,0.04988 0,0 z m 3.59375,-0.249233 c 0.17423,0.741041 0.57254,-0.209746 0,0 z m 93.125,65.279908 c -0.92544,0.246061 0.47126,0.349251 0,0 z m -15.84375,7.64954 c -0.90149,-0.04988 0.25082,0.656078 0,0 z m -38.40625,23.542948 c -0.85683,0.25376 0.47035,0.33659 0,0 z m -34.3125,8.87653 c -0.99422,0.30188 0.55556,0.39442 0,0 z m -13.9375,-0.47929 c -0.85683,0.25376 0.47035,0.33659 0,0 z m -3.34375,-8.18635 c 0.54137,0.72979 0.72803,-0.10722 0,0 z m 0.46875,0.24923 c -0.25082,0.65607 0.90149,-0.0499 0,0 z m -3.59375,-0.95859 c -1.04222,-0.21386 0.24056,0.68602 0,0 z m -0.71875,-0.23006 c -0.95945,0.27412 0.51348,0.37174 0,0 z m -7.6875,-1.43788 c -0.80722,-0.039 0.23875,0.59571 0,0 z m -18.21875,-8.87654 c -0.95786,-0.81117 -1.46925,0.79636 0,0 z M 345.87237,95.973926 c -0.99422,0.301883 0.55556,0.394423 0,0 z m -0.25,0.249233 c -1.0648,-0.966675 -0.68342,3.062037 0,0 z m -18.71875,-2.626534 c -0.71473,-0.184944 0.36396,0.56873 0,0 z M 295.93487,78.220859 c -0.41278,0.668914 0.73869,-0.189332 0,0 z m -2.65625,-2.166411 c -0.83767,-0.03204 0.27148,0.631312 0,0 z m 0.96875,-4.045246 c -0.85683,0.253767 0.47035,0.336595 0,0 z m 15.125,-9.125767 c 7.72471,0.300706 5.0441,-0.790981 0,0 z m 5.03125,-0.249233 c 2.25576,-0.622705 0.9532,-0.912497 0,0 z m 1.4375,-0.728527 c 2.69029,-1.069021 0.4587,-0.691521 0,0 z m 1.21875,-0.709356 c 1.41726,-0.286183 -0.26313,-0.441394 0,0 z m 0.46875,-0.268405 c 0.84603,0.06461 -0.19578,-0.586805 0,0 z m 12.96875,2.166411 c -1.04222,-0.213865 0.24056,0.686018 0,0 z m 47.53125,-34.068251 c 0.25082,-0.656076 -0.90149,0.04988 0,0 z m 2.625,-1.687117 c 0.47126,-0.349254 -0.92544,-0.246061 0,0 z m -58.3125,-0.21089 c -1.73104,1.564537 -2.60698,2.188722 0.25,0.939418 3.87698,-3.113536 1.47321,-2.02838 -0.25,-0.939418 z m 45.125,1.898007 c 0.83767,-0.03205 -0.27148,0.631314 0,0 z m -26.65625,0.479294 c -0.25082,0.656075 0.90149,-0.04988 0,0 z m 108,10.084356 c -1.24875,2.40763 1.86114,2.290964 0,0 z m 2.40625,10.065184 c -0.92791,0.308707 0.55423,0.382438 0,0 z m 7.4375,1.226994 c -1.0123,1.489916 1.73234,0.05457 0,0 z m 73.6875,13.190184 c -3.93938,0.582079 -5.85289,5.037969 -0.96875,1.687116 -0.11038,-0.513264 4.03361,-1.874368 0.96875,-1.687116 z m -13.4375,14.647239 c -7.97627,0.707337 0.43937,5.335392 -0.71875,6.000767 -2.01272,-3.727786 -5.00143,-2.080681 -6,1.18865 -1.80191,2.811061 -4.33833,1.853699 -5.03125,1.437883 -7.87309,3.286105 5.88664,3.422927 1.4375,5.27224 -3.56218,-0.392233 -4.36424,-0.986957 -9.84375,0.479294 -5.87272,1.930417 -11.93456,3.970252 -16.3125,7.687881 -8.20513,0.91051 -19.29924,2.96846 -17.28125,10.31442 -0.24925,6.00028 -16.76786,6.18069 -19.6875,13.20936 -5.00094,5.65422 -14.62444,7.35549 -22.09375,11.7523 -4.72597,-1.7781 -8.41207,1.60587 -8.875,3.33589 -2.12405,2.18912 0.52722,2.71311 1.9375,6.00076 4.53503,5.29334 0.44384,10.01322 1.1875,15.37577 -2.54024,2.92086 -3.43427,3.66658 -5.03125,7.18942 -5.63054,1.45278 -8.74947,5.40925 -15.125,8.6273 -2.50269,2.72246 -6.16502,4.24562 -11.03125,3.37423 -6.28727,0.63991 -5.85686,4.9689 -11.28125,6.00077 -1.58048,2.99645 -4.01426,6.30987 -8.40625,6.48006 -3.53944,4.17179 -8.74841,6.40955 -15.84375,9.375 -4.79496,0.0838 -2.23736,-1.7314 -7.4375,0.21089 -6.97883,0.89583 -6.40245,-2.3157 -6.5,-3.6043 -2.02702,1.06621 -0.99068,3.86021 -5.03125,3.6043 -1.18956,3.27491 -8.36779,4.37736 -12.96875,5.06135 -1.52352,2.57898 -7.6392,8.68864 -11.03125,6.46089 -1.63156,1.35267 -5.92999,4.67284 -7.6875,6.97852 3.01459,2.52997 -5.12046,4.43672 -7.4375,4.06442 -1.75906,2.81462 -1.40227,6.66491 -7.4375,6.00077 -1.97959,2.59046 -6.97248,-0.0412 -5.75,3.37423 -0.80695,1.83143 2.58112,4.51977 -1.6875,5.75154 -4.25463,1.59028 -1.87865,2.33697 -4.3125,4.31365 -5.46491,1.17593 -1.20092,6.96111 -7.4375,7.20858 -3.28634,2.06583 0.034,3.27445 2.375,4.79295 1.7199,-1.57495 4.38678,2.9175 6.5,1.18865 5.64105,2.94267 2.1272,-9.82469 12.96875,-5.9816 4.14152,0.78937 4.30328,3.94996 6.21875,1.91718 2.75691,-2.34314 4.35876,-1.54596 7.4375,-3.37423 5.56095,0.98884 6.46788,3.20001 11.0625,0.24923 5.84186,-2.51543 6.113,-9.44222 17.03125,-5.75153 7.54728,2.47032 14.94452,5.36916 17.03125,8.39724 -2.79054,2.81724 -0.87644,5.94529 4.5625,6.72929 2.57613,-2.26133 5.14626,-8.09757 12.25,-4.56288 4.83882,-2.76521 2.46381,-7.32464 -2.65625,-9.12577 1.03507,-3.84917 0.98883,-5.00975 1.9375,-7.43865 3.80664,-2.18284 11.01003,-3.30056 6.96875,-6.48006 3.27989,-5.92051 15.60723,-9.07139 27.59375,-9.375 1.56508,-2.07201 -2.79368,-4.24758 4.3125,-5.02301 7.185,-0.88916 16.89701,1.69341 21.375,0.70936 -1.37593,-3.65955 6.80429,-6.68964 12.21875,-5.52147 0.90278,-0.15438 6.65085,-0.77416 10.5625,0.24923 3.01447,-2.06887 10.23228,-2.3774 14.65625,-3.60429 8.06578,0.73208 16.91326,5.27109 19.4375,7.18941 1.46363,2.7995 4.6819,4.22341 6.46875,5.75154 2.87777,5.05125 15.17598,11.07774 7.6875,17.54218 -1.3511,4.10942 -14.02563,5.69588 -7.6875,11.273 9.88702,9.18992 24.82531,18.08866 31.4375,30.00384 -2.86144,-0.15878 1.16855,3.08625 0.96875,2.87576 -4.43588,-0.18432 -3.36756,1.60401 -2.15625,1.43789 1.89139,-1.70908 -0.51307,2.20274 1.6875,1.43788 4.18536,5.97126 -5.57046,8.56442 -10.34375,11.27301 -6.02138,2.69603 -6.91788,7.41858 -10.53125,12.00153 -1.32613,4.75079 -8.09522,10.37507 0.46875,13.43942 4.66644,4.5045 7.93502,9.20859 11.03125,13.6503 3.35435,2.71663 2.37789,8.73399 6.5,8.91488 5.66661,-0.35016 8.37165,-2.41875 14.15625,-1.43788 3.86697,5.07054 10.60668,0.2941 11.5,-3.125 4.98956,-1.48579 6.90936,-1.7181 11.0625,-0.49847 2.46663,-2.84693 10.36626,-3.674 12.21875,-0.47929 6.24005,-0.85811 -2.33802,-7.4243 4.34375,-6.71013 3.46655,-1.34211 1.61715,-2.61974 6.71875,-2.14724 4.37128,0.0476 7.00073,0.80924 8.15625,-2.16641 3.73045,1.17149 -0.24085,-4.82446 4.78125,-2.87576 0.57839,-2.98611 5.97641,-3.35157 9.125,-3.37424 -3.16217,-1.95525 -1.17452,-4.94435 -2.875,-7.18941 3.46103,-0.46449 -0.86957,-4.14627 4.8125,-3.83436 1.25719,-2.29089 -5.76268,-2.91462 -1.6875,-6.00077 0.93399,-4.05084 8.06509,-6.2287 9.375,-9.12576 3.16377,-1.49418 4.24701,-2.15527 7.1875,0.49846 5.40278,0.98373 12.21564,0.0366 13.4375,0.70936 1.91029,-2.96601 4.40101,-4.47681 9.375,-2.64571 4.21378,-0.64331 6.85206,0.65205 7.65625,2.39648 3.40245,-1.52521 1.14321,-4.28161 5.28125,-6.25 0.96815,1.00431 4.53725,-2.8501 6.71875,-1.89801 5.56585,2.07547 8.72552,-0.0623 13.4375,-0.97776 6.7644,0.9501 8.73687,-2.24049 13.21875,-3.33589 -1.509,-4.21391 1.85346,-8.48677 6.46875,-12.00153 -3.64927,-0.21561 -1.86763,-4.51476 -3.59375,-6.71013 2.76932,-2.27595 -1.12962,-7.24356 -2.40625,-9.85429 -7.5222,-3.66117 3.82271,-6.21873 1.6875,-10.56365 1.64151,-4.22685 4.7177,-5.1668 8.15625,-3.37424 4.59436,0.86424 1.58064,-3.88921 8.40625,-3.58512 7.95667,-1.59917 17.54997,-0.92691 20.875,-7.43865 4.27033,-4.41653 8.69197,-5.60249 4.3125,-9.60506 -1.34219,-3.56301 -4.95123,-5.0594 -0.21875,-7.43865 0.41633,-3.98891 6.43839,-3.38163 5.5,-6.71012 -2.10669,-0.95663 -9.96112,-2.80543 -8.375,-5.02301 2.60189,-3.21931 5.469,-5.68496 10.3125,-7.68788 8.17653,-1.94344 1.68542,-5.59416 6.25,-7.68789 3.85797,-1.65146 -1.54038,-1.49739 -3.84375,-2.3773 -5.69317,-1.1413 -8.56209,6.15952 -13.9375,5.02301 -2.94149,1.19801 -5.67355,2.14503 -6.46875,0.47929 -2.98565,0.79923 -9.56071,-3.82228 -12.25,0.24924 -7.74893,-1.20581 -17.97384,2.45766 -19.4375,-4.81212 -0.13697,-3.03056 -2.54111,-4.61399 -3.84375,-5.75153 4.27277,-2.58992 3.65744,-6.5969 -2.40625,-4.81212 -4.54175,0.80934 -10.13794,2.29092 -15.84375,5.06135 -7.8754,-0.68789 -7.83591,5.67732 -17.03125,3.83436 -10.87928,0.42728 -17.93907,6.55968 -24.25,10.31441 -8.02683,-0.19715 -18.74211,6.76217 -21.34375,-1.68711 -5.60172,-1.22497 -6.91807,-7.84539 -14.65625,-9.12577 -3.73217,-2.61969 -9.81276,-1.97503 -6.46875,-5.27224 3.09324,-3.88059 -1.68917,-3.01145 -2.65625,-6.72929 -9.9852,-0.31637 -16.94285,1.89543 -23.03125,3.60429 -9.15982,1.80061 -11.65377,-2.66486 -10.0625,-6.23083 -4.2327,-4.59787 1.82986,-9.54277 5.5,-13.20935 -2.25832,-2.98923 -6.26869,-5.4583 -4.5625,-6.7293 -4.16831,-0.007 -8.87288,-1.15376 -8.40625,-4.06441 -0.0711,-3.7456 -1.23006,-2.94429 -6,-2.64571 -0.61619,-4.6081 4.5165,-6.75282 6,-12.21242 2.69969,-7.60694 18.32502,-6.06158 17.53125,-14.8773 -1.03435,-6.724 13.85528,-6.46368 10.09375,-13.93789 -11.25743,-2.288838 -18.98446,-8.073359 -22.8125,-11.253831 -5.83983,1.940736 -8.99902,-10.23116 -13.90625,-9.854295 -2.48607,-1.513712 -5.24756,0.03827 -7.9375,-2.147239 z m 14.65625,56.365035 c 1.71207,2.22523 12.94522,-0.68405 5.75,-0.70936 -1.08758,0.75978 -3.33212,0.76609 -5.75,0.70936 z m -18.25,148.54294 c 0.55556,-0.39442 -0.99422,-0.30188 0,0 z m 1.90625,-0.24923 c -0.35918,-0.68381 -0.97288,0.20529 0,0 z m -0.46875,-0.93942 c 0.25082,-0.65607 -0.90149,0.0499 0,0 z m -155.0625,-35.75537 c 0.57254,0.20975 0.17423,-0.74104 0,0 z m -16.5625,4.31365 c -1.19179,-0.98459 0.35633,0.84303 0,0 z m -39.59375,-35.27607 c 0.99422,-0.30189 -0.55556,-0.39443 0,0 z m 108.96875,-76.07362 c -0.59468,-0.20947 -0.15584,0.78879 0,0 z m 93.59375,-52.779909 c 0.57254,0.209748 0.17423,-0.741043 0,0 z m -1.65625,5.751534 c 0.83767,-0.03204 -0.27148,0.631313 0,0 z m -31.21875,8.416415 c 0.0272,0.613 1.62108,-0.14406 0,0 z m -112.0625,11.7523 c 0.66841,-0.16825 -0.39924,0.66732 0,0 z m 74.15625,11.7523 c 0.83767,-0.032 -0.27148,0.63131 0,0 z m -7.4375,3.125 c 0.20844,0.42858 -1.44673,0.24929 0,0 z m -3.625,1.16948 c 0.59602,0.40566 -0.96438,0.33583 0,0 z m 11.53125,0.72852 c 0.90149,-0.0499 -0.25082,0.65608 0,0 z m -33.125,2.18559 c 1.51617,0.16749 -0.46939,0.42422 0,0 z m 10.09375,8.87653 c 0.77802,-0.0465 -0.20839,0.56118 0,0 z m 0,0.46012 c 0.83767,-0.032 -0.27148,0.63132 0,0 z m 66,75.09586 c 0.99422,0.30188 -0.55556,0.39442 0,0 z m 0.46875,0.24923 c 0.99422,0.30189 -0.55556,0.39443 0,0 z m 0.25,1.68712 c 1.06903,-0.0117 -0.19599,0.62685 0,0 z m 11.75,23.75383 c 0.75025,0.126 0.90133,0.93798 0,0 z m -131.03125,5.29142 c 1.07016,0.0189 -0.2135,0.60417 0,0 z m 11.75,1.898 c -2.42851,1.62912 4.48599,1.91593 0,0 z m -3.125,1.93635 c -1.46801,2.4295 2.16093,2.95758 0,0 z m -79.90625,4.79295 c -2.28456,1.0952 1.41519,0.568 0,0 z m -1.4375,0.95859 c -1.17925,0.97377 1.44397,0.42611 0,0 z m -34.5625,6.25 c 0.10035,3.00868 -3.44614,5.95567 -2.65625,8.6273 2.64111,-2.14901 1.4905,-3.37743 6.25,-3.58513 2.80368,-2.78741 1.89291,-5.06415 -3.59375,-5.04217 z m -3.625,4.06441 c -0.18397,1.13314 1.08722,0.20059 0,0 z m 265.9375,15.12654 c 1.01538,-0.21236 0.40584,0.72484 0,0 z m 2.15625,7.68788 c 0.52807,-0.21026 0.21006,0.6466 0,0 z"
       id="Gwynedd"
       />
    <path
       d="m 750.02862,598.69632 c -3.54608,3.36276 -9.26008,9.36289 -11.03125,4.31365 -2.32,-2.41582 -8.78671,-3.40226 -8.15625,0.72852 -0.0353,5.76159 -11.6128,6.43594 -16.3125,9.58589 -2.7595,1.60126 -6.96728,3.06267 -8.40625,4.08359 4.06992,4.05546 -3.71798,1.42497 -6.25,2.16638 -3.90341,0.73049 -1.7097,6.05387 -8.40625,6.23086 -11.47789,2.25442 5.97926,11.11982 -0.9375,17.27381 -0.34182,4.4111 -0.40961,8.4322 -1.9375,12.00147 2.44378,4.25245 11.59545,8.50626 7.9375,12.96012 -8.60597,-2.35178 -11.34928,4.18086 -20.65625,0.47933 -6.89279,-0.31062 -15.45806,-3.81178 -17.28125,2.6457 -3.26305,2.79301 -3.44591,6.90196 -2.875,9.10663 3.18036,3.51987 -1.99939,0.91718 -4.3125,2.39644 -4.23827,6.37926 11.77182,10.73816 12.46875,13.91871 1.36128,2.13049 3.90046,5.95926 0.25,7.91798 -2.22714,1.98957 -12.16309,-0.16829 -12.96875,2.41558 -2.24405,0.12932 -2.79052,4.24607 -7.6875,1.43791 -5.00845,0.0883 -9.10851,-0.89613 -12.21875,-2.39644 -1.6563,3.11184 -6.53574,-1.59386 -7.21875,1.18859 3.62546,4.7527 3.72954,10.06172 8.65625,12.0016 4.69355,3.90435 7.87849,9.47202 14.875,9.83509 4.48137,-1.60608 8.80138,1.81448 11.03125,-1.18865 5.36401,-1.71442 8.65958,4.86582 13.4375,1.43785 6.41465,-1.77025 11.37828,-5.33331 17.53125,-3.8535 5.0242,-2.64331 13.31958,-5.02619 18.96875,0.24921 0.81053,-2.24823 -3.56265,-3.6532 1.65625,-4.31362 1.26937,-1.83037 -1.01268,-2.84694 3.625,-2.89497 4.28294,-2.66994 7.49527,-4.07191 14.625,-4.54368 7.70462,-0.52767 15.19145,3.90288 19.9375,3.10582 5.09113,-1.64147 4.18254,2.78062 7.90625,2.16645 -0.24573,-3.55884 6.81506,-3.66859 8.65625,-4.08362 4.01289,0.7446 6.30914,-0.60356 11.28125,0.95858 4.43772,0.75847 2.55373,-3.44 2.375,-5.0422 -3.4275,-1.56031 -0.85635,-6.64884 3.375,-4.54369 3.97134,-0.46073 0.99604,-3.36674 6.71875,-3.12503 -0.87831,-3.18975 6.66898,0.0314 9.375,-2.64564 4.99869,-1.01945 3.67844,4.93963 9.09375,4.56282 7.07407,-2.98288 10.81669,-7.75791 3.125,-11.04294 -3.39118,2.25098 -7.82707,-0.21577 -6.21875,-3.10577 -0.85174,-4.5327 -8.57641,-1.07209 -9.125,-6.0008 -0.50856,-2.66564 -3.08283,-6.69006 -4.09375,-9.12576 0.9787,-2.97461 0.24194,-6.53117 -3.34375,-8.87651 5.22753,-0.99699 4.94641,-5.80466 6.71875,-6.48012 4.97541,5.00791 3.30249,-4.19982 4.3125,-5.75153 7.18209,-1.66644 -3.21633,-8.3835 -2.875,-12.73006 -3.80909,-2.8781 -1.65071,-7.34945 -5.0625,-7.43865 -8.63147,3.23404 2.0653,-2.8905 -4.78125,-2.87571 -8.75896,-5.1881 1.28909,-18.72768 -14.15625,-17.04374 -0.96325,-1.20822 3.49776,-7.51245 -3.84375,-5.5023 -2.02384,-2.68995 -4.63339,-2.03833 -8.40625,-3.37424 -5.03162,2.12548 -6.1946,-2.73667 -3.84375,-4.06441 -1.85296,-1.01983 -3.53744,-2.30614 -5.53125,-3.125 z M 628.12237,715.79754 c -0.17426,-0.74098 -0.57251,0.20976 0,0 z"
       id="Mid Glamorgan"
       />
    <path
       d="m 836.9375,215.25 c -3.07102,3.07879 -8.46726,3.01759 -12.5,4.3125 -3.47349,3.1573 -1.4014,4.69803 -7.4375,6.25 -3.12549,2.98482 -9.89649,0.96192 -14.625,1.90625 -4.81235,-0.83212 -8.7224,-2.61089 -10.34375,-5.53125 -8.17735,1.71023 -14.30953,-5.07754 -21.59375,-3.34375 -7.58983,-2.90899 -9.72213,9.88569 -18.71875,7.6875 -8.49862,2.86067 -19.65435,1.41063 -26.625,3.34375 -5.70576,11.2529 -20.73423,6.74236 -28.34375,11.53125 -0.54903,5.46636 -8.97853,-4.01056 -10.3125,4.5625 -0.72563,3.47018 -2.73169,5.32423 -5.28125,7.90625 1.16535,2.99241 4.60683,3.68584 4.5625,6.25 4.07989,5.10766 -1.43884,7.25689 2.625,11.03125 -2.96677,2.78514 5.89589,2.5767 -0.9375,4.0625 -4.14256,3.71573 -3.88826,8.27215 -4.5625,10.5625 -5.09019,2.33928 -8.00906,3.83757 -15.84375,3.375 -4.68316,4.10753 -12.69885,-1.86845 -17.03125,3.125 -1.30019,-1.061 -3.24168,3.09999 -2.65625,3.8125 -2.33224,1.80816 -2.97234,2.67435 -4.3125,-0.21875 -3.60466,0.31625 -8.92433,-1.3948 -11.75,-0.71875 -3.14715,1.47676 -3.16756,5.2232 -6.5,2.15625 -4.50263,2.25652 -11.14281,-0.14044 -14.625,-1.6875 -1.16008,1.48717 -4.45821,1.80172 -4.5625,3.125 -2.35054,2.39604 -11.23556,6.8485 -7.6875,11.28125 6.59006,2.05217 -5.30102,2.21399 -1.4375,5.75 -4.32672,0.25527 1.71735,3.45216 -1.21875,5.53125 6.14363,3.05209 -2.70281,1.24879 -5.03125,3.125 -0.095,4.28168 -6.7132,0.14293 -4.0625,3.59375 -1.18397,2.59075 -4.11127,1.00637 -4.09375,3.84375 -2.57526,-0.1138 -9.31878,-0.82523 -10.5625,0.21875 -2.09881,2.83713 -8.13208,0.90531 -4.3125,5.78125 8.33662,0.31717 19.81446,-0.76743 25.4375,0.46875 6.82901,1.94416 5.14117,7.4097 6.71875,12 -2.87681,1.72273 -2.68285,5.45102 -1.6875,6.21875 1.10248,4.34055 4.19624,6.01689 6.25,8.90625 3.48288,0.61026 5.95329,2.02192 8.625,0 1.0617,-3.03812 7.41795,0.53421 10.8125,-2.90625 0.10131,-4.09985 5.44749,-2.70263 8.65625,-5.5 3.07935,-1.84265 9.05257,3.51541 1.65625,4.5625 3.84511,6.87427 -6.23113,8.61042 -8.875,9.84375 0.52166,4.84246 -4.79982,10.5539 2.15625,10.0625 2.71106,2.43978 11.20281,2.87249 10.09375,6.96875 3.59886,1.67826 9.62366,1.80077 6.71875,6.21875 3.38264,0.53716 -0.45325,3.95878 3.59375,5.53125 0.73999,2.60234 1.65719,9.15039 6.25,6.71875 5.37397,3.35069 8.30483,3.9521 8.875,7.6875 -5.58371,1.02885 -8.89928,3.1528 -14.875,2.375 -3.0215,0.37277 -16.7239,6.61599 -14.40625,9.84375 4.17175,0.01 7.62764,4.93888 3.84375,6.71875 -2.07623,2.41557 8.66051,3.66858 8.40625,7.4375 -5.35789,0.38388 -8.37054,0.91572 -12,3.125 0.27652,0.55327 -5.41871,4.54597 -3.125,5.75 4.94496,0.53528 -2.85791,5.16425 2.625,6.96875 -1.16065,2.22218 -3.68564,4.53192 -1.4375,7.4375 -2.40197,2.78364 -1.17784,4.04338 0.25,6.71875 -3.01653,2.40661 -0.46736,7.21593 -0.96875,10.09375 0.19361,3.07731 5.08996,8.91273 -0.71875,10.3125 -5.09255,1.90183 2.15654,2.21845 3.84375,4.3125 5.25477,0.92176 10.02205,1.62144 8.875,6.46875 -2.99048,1.7672 -5.1846,2.58321 -2.15625,5.78125 1.25704,1.31364 8.43092,1.32669 11.03125,3.59375 2.97565,2.00305 12.94403,-0.16774 5.78125,4.0625 -2.71581,1.55952 0.0979,3.76762 3.59375,4.5625 1.19305,1.63535 4.62163,3.89253 6.25,5.53125 -5.11409,1.8724 -6.19595,3.72398 -9.375,7.4375 5.15137,0.31023 1.17375,6.1407 -2.15625,6.96875 -1.86391,1.67975 -5.28149,4.20671 -6.46875,6.21875 3.86578,1.91332 -8.427,5.99729 -2.65625,8.65625 0.82896,2.09002 2.84334,5.01232 -1.6875,3.34375 -5.39688,1.0866 -3.43401,4.91287 -3.34375,7.21875 -1.50151,0.25863 -2.21293,5.25241 -2.65625,6.21875 1.61914,1.01435 6.56382,0.93898 3.125,3.125 2.90158,7.93848 -4.56395,10.24089 -8.40625,13.6875 -3.08644,0.83009 -6.06087,3.05964 -9.125,4.5625 -3.94565,2.57845 -6.48566,7.90174 -6.21875,11.03125 -1.47292,3.76727 -8.79973,5.40089 -8.65625,11.03125 2.31878,3.69563 7.83151,2.86428 10.09375,7.4375 0.0568,3.01199 0.50266,5.59859 6.46875,5.28125 5.15924,1.45815 10.64265,-2.14611 10.09375,-5.53125 0.70546,-4.07503 11.03638,-3.60552 15.84375,-4.3125 5.18849,-1.32158 10.4871,-2.87977 15.34375,-0.46875 5.51165,2.27235 8.94585,3.73921 15.125,3.34375 4.66463,0.22359 1.72823,9.46036 8.15625,5.0625 6.4603,-0.0881 5.68496,-5.2382 8.875,-6.5 2.22323,-1.06423 10.00487,2.27623 6.75,-1.90625 -0.45367,-1.48676 5.28454,-1.90867 6.9375,-3.84375 4.84261,-2.74972 12.18927,-3.71755 16.5625,-7.4375 1.04809,-4.0916 2.063,-7.18633 6.5,-4.8125 3.87217,3.09248 5.71319,4.8626 9.8125,0.71875 2.35325,-6.46086 12.26105,-0.87394 7.9375,1.9375 1.3886,3.99626 7.88613,0.61406 10.5625,3.125 2.02798,0.93383 4.92008,2.13943 7.1875,1.90625 1.67613,3.32013 -4.13113,6.60221 4.09375,5.75 5.60721,-0.76347 13.8565,0.18411 13.90625,-6.46875 9.67605,-12.64945 23.34897,2.51033 36.25,-2.15625 6.69436,-0.0456 19.11429,1.05531 23.53125,-3.59375 -1.18309,-1.34383 2.79481,-1.26817 3.59375,-3.375 3.16404,-1.26516 4.27236,-3.15722 9.34375,0.25 2.08205,0.50446 -1.34468,-4.59583 3.625,-2.40625 -4.27642,-4.23168 6.96714,-3.05542 6.46875,-6.71875 4.40614,-1.17767 5.10621,-2.60582 1.1875,-5.03125 1.76034,-4.47329 11.48452,-0.88455 11.53125,-5.53125 0.43264,-1.69321 0.96613,-4.50584 -2.625,-6.21875 0.62381,-2.76966 -4.29089,-3.24219 -5.78125,-5.28125 -4.11218,-0.77973 -7.8271,-3.81939 -6.21875,-6.71875 -1.23544,-1.83614 -4.75896,-4.94824 0,-6.25 -8.03755,-3.52657 0.61418,-6.21893 1.90625,-7.4375 7.95399,-4.28062 -4.24751,-8.38587 -4.3125,-14.15625 -6.25372,-1.86046 -0.74973,-6.18172 0.71875,-9.125 -2.64928,-3.12859 -2.07123,-4.82627 -6,-6.46875 -3.74904,-1.68572 -7.20825,-5.14425 -7.6875,-7.9375 4.3358,-3.08195 -2.92532,-10.41034 6,-8.625 1.43436,-0.90184 0.60902,-4.95929 -0.46875,-5.28125 -4.62573,-1.64672 -6.97026,-0.96455 -10.8125,-2.15625 -0.87116,-1.68689 2.00927,-3.77321 2.40625,-4.5625 6.85249,-0.44622 18.78619,-1.77747 21.34375,-7.4375 -4.99161,-4.12245 -7.76491,4.34525 -12.46875,0 -3.42709,0.28514 -7.61572,-3.02347 -1.6875,-4.3125 1.19168,-2.91983 7.96917,-2.34813 6,-6.71875 -1.11022,-4.50562 -3.26401,-4.57276 1.6875,-5.75 2.16932,-2.56315 9.61551,-2.31345 4.8125,-4.34375 3.49923,-1.65742 1.03408,-5.3932 2.625,-6.71875 4.19463,-0.41848 11.86586,0.17655 8.875,-3.34375 -1.41254,0.59956 -0.11092,-1.02053 0,-2.65625 5.82922,-1.13694 11.37993,-4.6602 17.53125,-3.59375 2.28669,1.42208 6.50102,-0.0575 8.65625,0.71875 3.7797,0.29821 3.27106,-4.9828 8.15625,-3.125 -7.68771,-2.9898 -13.20891,-0.0412 -20.15625,-2.375 -3.52482,-0.42886 -0.61525,-3.34009 -1.21875,-4.5625 3.32866,-1.29104 3.13115,-6.05976 2.40625,-9.125 0.48719,-5.79885 7.88232,-2.72639 11.75,-5.53125 1.71176,-0.49093 6.49251,-5.34245 4.5625,-7.1875 -4.1252,-1.16568 -8.09045,-2.14128 -11.5,-0.46875 -6.71702,-0.31219 -16.91153,3.80811 -25.21875,0.9375 -2.94115,-2.74174 -7.72891,-3.9321 -12.25,-5.5 -2.64923,-2.86875 -5.69452,-4.93717 -10.78125,-5.78125 -3.54601,-4.14786 -12.90805,-1.19994 -13.21875,-5.5 0.19617,-2.60869 -4.9808,-3.74339 -7.65625,-5.53125 -5.21498,-2.7321 -12.89572,-2.13227 -16.09375,-6.9375 -2.68923,-1.63928 0.47947,-3.55664 -3.125,-4.8125 0.35914,-4.63416 6.63797,-5.78834 8.65625,-9.125 3.82896,-2.54723 7.55183,-2.39973 12.71875,-2.625 7.03181,-5.06056 15.57405,-5.10418 22.0625,-7.6875 6.94157,-1.76859 13.51425,-0.19297 21.125,-0.96875 2.76735,0.26672 12.21432,0.1357 7.6875,-1.90625 0.27955,-2.51726 -0.80434,-3.20703 0.96875,-6 2.03307,-2.67234 9.66102,3.11434 10.78125,-0.96875 -2.16507,-2.48694 0.95525,-6.3177 2.65625,-10.3125 -3.40709,-1.00525 0.20658,-5.2775 -4.09375,-6.96875 -6.22413,-2.6886 -14.01976,1.34627 -17.75,5.0625 -3.93727,1.68099 -11.00179,1.43956 -13.9375,4.78125 6.22634,1.36274 4.37088,4.53609 -1.1875,4.5625 -4.35973,0.95639 -9.50634,2.86254 -13.6875,0.71875 0.93405,-3.38294 13.44692,-2.59206 5.28125,-8.875 -2.54928,-4.11263 -8.22322,-8.34038 -6,-10.3125 -0.82734,-0.66195 5.61582,-1.79765 6.5,-0.71875 3.04529,-2.07817 7.44737,-4.43872 10.53125,-5.28125 -3.39427,-4.1894 3.24505,-4.1193 2.65625,-6.96875 3.49199,-2.60081 2.73757,-3.64866 8.15625,-3.84375 -2.78248,-3.39475 -12.11362,-3.18534 -4.3125,-5.28125 3.96416,-0.0235 7.95693,-0.39527 8.15625,-3.34375 1.52531,-0.52506 -0.667,-3.83666 2.40625,-5.28125 0.23277,-1.68364 1.79798,-2.80155 -0.96875,-2.40625 3.02495,-3.50375 -3.411,-6.35656 3.84375,-6.25 0.2114,-3.36591 6.40459,-4.11475 3.34375,-8.625 2.38111,-2.97639 1.1404,-2.55374 4.34375,-1.1875 4.71533,0.59698 9.6486,-1.42678 13.1875,-1.6875 -2.16719,3.6634 2.69433,5.05842 5.53125,3.125 0.37036,-2.86683 -2.67106,-3.97723 -1.9375,-5.53125 -1.76786,-2.84071 -10.4522,1.86426 -10.5625,-2.625 4.94583,-1.3165 -3.77685,-2.2117 -5.28125,-3.84375 -4.09589,1.11447 -4.10438,-1.48537 -0.9375,-1.9375 2.35667,-3.39222 -2.30093,-5.14294 -4.5625,-3.34375 -0.14773,-1.978 -5.90618,1.61485 -2.65625,-0.96875 -1.42089,-2.04739 -9.43761,1.10686 -5.5,-1.6875 -3.29703,-1.5373 -4.80225,2.22546 -7.6875,-0.71875 -3.12077,4.39299 -3.37249,-2.90115 -6.71875,-1.4375 -1.51888,-2.67021 0.0195,-3.1489 0.96875,-6 -2.5487,-0.34462 -5.74717,1.3173 -8.1875,1.21875 0.58426,1.55213 -3.97559,3.76754 -4.78125,1.4375 -5.71514,-0.12446 -9.62666,-1.14042 -14.15625,-3.125 -0.34906,-1.25233 5.90836,-4.24978 0.71875,-3.84375 -3.28541,3.16202 -2.41623,-2.85228 -2.875,-4.0625 1.54516,-3.34556 5.26466,-4.62113 4.78125,-7.6875 2.23126,-2.81448 -6.30291,-2.49979 -1.1875,-4.5625 3.05524,-2.09428 8.75382,-2.79395 10.3125,-6 -2.712,-1.11691 -9.36777,-2.61077 -7.6875,-4.3125 1.63072,-2.51621 7.91869,-1.28889 2.15625,-2.65625 -2.86082,-2.43515 -5.19008,-5.01184 -11.5,-4.78125 z m 30.9375,267.3125 c 0.13404,-0.73816 -0.69829,0.10698 0,0 z M 629.3125,358.5 c -0.12906,0.7678 0.7678,-0.12906 0,0 z m -30.96875,-12.71875 c -0.60916,-0.25558 0.27642,0.68022 0,0 z"
       id="Powys"
       />
    <path
       d="m 840.99737,697.54601 c -6.27156,1.63969 -12.4419,0.60209 -17.03125,2.89497 -2.91689,-0.10061 -6.42665,1.29589 -9.125,-0.24927 -3.44711,1.60786 -7.78886,8.13123 -11.75,3.35504 -1.50803,-4.09172 -4.83442,-2.30712 -10.3125,-1.66792 -3.40489,-0.36975 -3.85384,0.26571 -5.78125,1.91718 -3.97636,0.0576 -2.56257,3.95024 -8.15625,2.3965 -5.52387,2.46908 3.45429,5.94454 -0.46875,8.39718 2.22452,3.82295 -8.35875,-0.81712 -10.09375,0.72859 -3.3995,0.0519 -4.78614,-0.52558 -7.4375,0.47926 -5.14497,-0.34589 -4.0813,6.43595 -7.90625,2.14724 -0.2774,-2.083 -6.66018,-0.54675 -8.90625,-1.18865 -6.37715,-1.91546 -14.72488,-4.23264 -22.0625,-1.91718 -4.62012,0.19853 -7.14957,4.79424 -12,4.06442 4.3235,2.08589 -4.04362,2.91178 -2.40625,4.08362 4.37314,3.79902 -2.58642,1.90362 -6.25,-0.95865 -6.55516,0.005 -11.82248,5.19546 -16.78125,2.87583 -6.03191,1.79589 -12.02098,4.60785 -17.53125,6.00073 2.62583,4.41264 12.48518,5.13013 15.375,9.60504 6.80117,2.77196 8.66319,8.46656 14.15625,12.23165 0.89653,4.02657 11.00385,4.06197 16.3125,2.87571 5.13883,0.85337 6.16952,2.16834 12,1.68711 7.06929,0.82491 12.66245,2.89191 20.65625,2.64577 5.24014,-0.10982 4.81931,2.80834 10.3125,2.6265 8.91868,-0.39674 14.81296,-2.03766 22.3125,-0.47926 4.16327,-1.21184 8.77571,-3.41166 12.46875,-3.83436 4.72284,2.29442 8.20871,2.21546 12.5,1.43786 2.93179,0.099 4.51049,-2.85442 7.6875,-2.14724 1.54738,-0.88528 5.85521,-2.31914 10.0625,-2.89491 5.1947,0.26301 5.55618,2.20791 8.65625,2.41558 -0.46711,-1.26994 0.99214,-1.81791 4.0625,-1.68711 -3.67727,0.82914 9.85491,-1.63191 6,-3.6043 -0.11517,-2.98607 -1.20404,-10.37681 5.53125,-13.66945 2.10331,-1.48632 5.72589,-1.11773 5.28125,-4.81214 6.81267,-5.01497 13.48729,-8.53405 22.0625,-11.98233 -2.19842,-3.73111 -7.33825,-5.97178 -0.21875,-6.95939 -1.69919,-1.31436 6.43904,-2.1527 -0.25,-4.08356 -1.38713,-3.53012 -6.86429,-4.26791 -11.03125,-6.48006 0.12386,-2.50773 -4.15546,0.38908 -4.8125,-1.68712 -1.41237,-0.0912 -5.48678,-2.53994 -8.40625,-2.62656 -1.95697,3.7508 -3.0769,-1.62644 -6.71875,-1.93632 z m -0.71875,52.79908 c -0.25086,0.65613 0.90154,-0.0499 0,0 z m 24,-26.39957 c 0.57258,-0.20976 0.1742,0.7411 0,0 z m -7.90625,38.1519 c -6.01034,2.83822 6.7412,2.79294 0,0 z"
       id="South Glamorgan"
       />
    <path
       d="m 588.74737,607.57285 c -3.28828,1.50961 -5.36293,1.08533 -9.84375,2.39647 -4.12872,-0.84418 1.51437,2.92694 2.40625,3.83436 2.05505,2.18914 2.34623,7.20975 -1.90625,8.87656 -3.84132,-1.19711 -7.12366,0.0987 -9.84375,-2.3965 -3.8306,0.89159 -10.5998,1.96982 -12.71875,3.60429 -3.79519,0.85007 -10.08943,0.40522 -12.25,-2.16644 -5.12755,-3.35141 -5.82162,2.10092 -5.75,3.37424 -3.00071,1.97908 -4.7453,4.51613 -6.96875,4.54374 -2.8128,2.41669 -0.92065,3.87816 -5.75,5.04215 -3.67111,-0.36976 -3.26176,4.14319 -2.90625,4.81214 1.58688,1.73669 -0.69419,4.18927 1.21875,5.50233 -4.12584,-2.26742 -1.65942,0.93166 -3.375,2.64565 -6.58017,-1.36988 -0.86129,7.03558 -9.59375,4.793 0.43084,3.37522 7.51514,6.48184 -0.71875,8.41638 -6.22505,-0.0392 -11.07647,2.85007 -18,3.10583 -2.61624,4.18111 -10.1945,1.20914 -15.375,3.12503 -11.36798,-0.98791 -11.95051,-12.30478 -23.75,-8.6465 -2.92234,-1.29939 -4.71853,3.34104 -0.25,1.43791 7.33986,1.55454 -1.85045,1.79994 -3.59375,3.8535 -3.31039,0.40663 0.52894,5.88571 -4.3125,8.14798 -5.22432,2.80681 -11.42522,5.74331 -17.28125,7.68791 -1.06502,2.19515 9.50789,9.0792 5.28125,13.91871 -3.01861,4.70123 -6.38879,2.53706 -10.8125,2.14724 -4.8878,-0.0173 4.8238,1.42331 6.96875,2.64571 1.29422,-0.53853 4.97943,-0.9716 8.65625,-0.95859 5.21648,2.02601 9.53118,3.71601 13.65625,5.27227 3.31372,2.19086 9.70786,2.35392 15.375,4.08356 -2.26535,-2.43197 2.06738,-5.42135 6.71875,-4.08356 5.7751,-0.27847 10.32666,3.88313 14.15625,0.47926 -1.99986,-2.41742 -6.541,-5.29994 1.4375,-6.95938 6.89484,-2.78688 14.28468,-0.82197 19.6875,0.72858 2.02446,-0.40153 11.08603,4.22589 10.8125,-0.24926 4.07756,-1.41669 8.53707,-2.16736 12,-0.23006 3.3808,-0.29515 6.30644,-1.32565 11.28125,0.23006 3.42522,-0.68988 6.3784,-1.61472 8.15625,-1.18865 -4.60981,-1.24546 -7.82102,-3.16135 -4.8125,-6.72932 4.05643,-3.32743 3.62659,-5.74608 8.40625,-6.71007 3.98569,-1.25368 -0.65547,-1.13619 3.125,-1.43791 2.77548,-1.99552 12.30241,1.09159 15.34375,-1.20785 5.15637,-0.84583 11.38643,1.52908 11.28125,1.43791 1.33419,4.09926 8.26799,-2.71337 12,1.43792 4.09131,2.58429 16.03054,6.62196 9.375,8.8957 0.73895,4.93227 10.65623,2.10632 11.75,6.95933 4.22184,3.03343 2.25179,8.82496 9.375,8.39723 2.06044,1.24019 5.60083,-1.54337 9.125,1.43792 3.78514,-0.2519 8.98279,1.25442 11.75,1.18859 2.1476,-2.66154 4.08436,-3.60835 11.53125,-3.83436 7.65936,1.14583 7.31321,-6.00307 3.8125,-8.39718 0.96143,-2.44325 -8.3293,-4.76257 -11.03125,-8.6465 -4.68123,-2.49485 -0.6148,-8.06705 3.84375,-5.75153 -1.77211,-2.31792 -0.59522,-4.22123 -0.71875,-6.95939 1.93853,-3.66307 4.88147,-10.91012 13.4375,-7.68785 6.78045,0.27963 16.77693,3.68055 22.3125,-0.70933 11.49812,3.05092 3.5603,-5.5046 0.5,-8.3973 -4.64256,-3.44822 -3.3563,-6.47902 -0.96875,-10.08429 -1.95869,-6.08804 4.23592,-12.5381 -3.125,-18.4816 -1.65769,-2.62288 -1.17324,-7.78251 -5.28125,-9.10662 -4.39751,0.37613 -6.98954,-0.48319 -9.84375,-1.43792 -4.45897,-1.53079 -13.27117,-5.69822 -19.4375,-1.20779 -5.92951,-0.36012 -19.27081,0.79608 -16.78125,5.04215 -0.72261,4.47834 -9.81002,6.77982 -17.0625,2.64577 3.87966,-3.95865 -5.50191,-7.74583 -8.15625,-9.12577 -4.52063,-3.17583 -3.38561,-7.12046 -10.78125,-7.66874 -2.99431,-2.51123 -7.70181,-0.61428 -11.78125,-1.68712 z m -18,72.46936 c -0.38868,0.61871 0.72625,-0.1873 0,0 z m -3.59375,0.47926 c -1.12192,0.68804 0.16409,0.64908 0,0 z m -137.0625,17.75307 c 0.1742,0.7411 0.57258,-0.20976 0,0 z m 92.90625,-60.94706 c -0.87312,-0.0575 0.22201,0.62172 0,0 z m 57.59375,41.02761 c -0.0832,0.82202 -0.96896,1.33853 0,0 z"
       id="West Glamorgan"
       />
  </g>

</svg>
